<mxfile host="app.diagrams.net" modified="2022-12-22T07:50:07.529Z" agent="5.0 (Windows NT 10.0; Win64; x64) AppleWebKit/537.36 (KHTML, like Gecko) Chrome/107.0.0.0 Safari/537.36" etag="3NCu3C4Klf1H8J7cpFe3" version="20.7.4" type="github" pages="5">
  <diagram id="-uO7c01zvqMkISeJF9gR" name="Page-1">
    <mxGraphModel dx="2261" dy="764" grid="1" gridSize="10" guides="1" tooltips="1" connect="1" arrows="1" fold="1" page="1" pageScale="1" pageWidth="827" pageHeight="1169" math="0" shadow="0">
      <root>
        <mxCell id="0" />
        <mxCell id="1" parent="0" />
        <mxCell id="Gc0ZzkE7HIkw814P57XK-2" value="容器&lt;br&gt;&lt;br&gt;&lt;div&gt;&amp;nbsp;&amp;nbsp;&lt;span style=&quot;background-color: initial;&quot;&gt;能放容器和库位&lt;/span&gt;&lt;/div&gt;" style="rounded=1;whiteSpace=wrap;html=1;" parent="1" vertex="1">
          <mxGeometry x="-800" y="290" width="120" height="60" as="geometry" />
        </mxCell>
        <mxCell id="Gc0ZzkE7HIkw814P57XK-4" value="抽屉" style="rounded=1;whiteSpace=wrap;html=1;" parent="1" vertex="1">
          <mxGeometry x="20" y="20" width="120" height="60" as="geometry" />
        </mxCell>
        <mxCell id="Gc0ZzkE7HIkw814P57XK-6" value="栈板" style="rounded=1;whiteSpace=wrap;html=1;" parent="1" vertex="1">
          <mxGeometry x="20" y="120" width="120" height="60" as="geometry" />
        </mxCell>
        <mxCell id="Gc0ZzkE7HIkw814P57XK-7" value="笼车" style="rounded=1;whiteSpace=wrap;html=1;" parent="1" vertex="1">
          <mxGeometry x="170" y="210" width="120" height="60" as="geometry" />
        </mxCell>
        <mxCell id="Gc0ZzkE7HIkw814P57XK-8" value="巷道" style="rounded=1;whiteSpace=wrap;html=1;" parent="1" vertex="1">
          <mxGeometry x="170" y="120" width="120" height="60" as="geometry" />
        </mxCell>
        <mxCell id="Gc0ZzkE7HIkw814P57XK-9" value="售后仓" style="rounded=1;whiteSpace=wrap;html=1;" parent="1" vertex="1">
          <mxGeometry x="170" y="20" width="120" height="60" as="geometry" />
        </mxCell>
        <mxCell id="Gc0ZzkE7HIkw814P57XK-13" style="edgeStyle=orthogonalEdgeStyle;rounded=1;orthogonalLoop=1;jettySize=auto;html=1;curved=1;" parent="1" source="Gc0ZzkE7HIkw814P57XK-11" target="Gc0ZzkE7HIkw814P57XK-12" edge="1">
          <mxGeometry relative="1" as="geometry" />
        </mxCell>
        <mxCell id="Gc0ZzkE7HIkw814P57XK-33" style="edgeStyle=orthogonalEdgeStyle;rounded=1;orthogonalLoop=1;jettySize=auto;html=1;curved=1;" parent="1" source="Gc0ZzkE7HIkw814P57XK-44" target="Gc0ZzkE7HIkw814P57XK-31" edge="1">
          <mxGeometry relative="1" as="geometry" />
        </mxCell>
        <mxCell id="Gc0ZzkE7HIkw814P57XK-38" style="edgeStyle=orthogonalEdgeStyle;curved=1;rounded=1;orthogonalLoop=1;jettySize=auto;html=1;" parent="1" source="Gc0ZzkE7HIkw814P57XK-44" target="Gc0ZzkE7HIkw814P57XK-26" edge="1">
          <mxGeometry relative="1" as="geometry" />
        </mxCell>
        <mxCell id="Gc0ZzkE7HIkw814P57XK-45" value="" style="edgeStyle=orthogonalEdgeStyle;curved=1;rounded=1;orthogonalLoop=1;jettySize=auto;html=1;" parent="1" source="Gc0ZzkE7HIkw814P57XK-11" target="Gc0ZzkE7HIkw814P57XK-44" edge="1">
          <mxGeometry relative="1" as="geometry" />
        </mxCell>
        <mxCell id="Gc0ZzkE7HIkw814P57XK-47" value="1:1" style="edgeStyle=orthogonalEdgeStyle;curved=1;rounded=1;orthogonalLoop=1;jettySize=auto;html=1;startArrow=classic;startFill=1;" parent="1" source="Gc0ZzkE7HIkw814P57XK-11" target="Gc0ZzkE7HIkw814P57XK-46" edge="1">
          <mxGeometry relative="1" as="geometry" />
        </mxCell>
        <mxCell id="Gc0ZzkE7HIkw814P57XK-11" value="SKU - stock keeping&lt;br&gt;（编码）" style="rounded=1;whiteSpace=wrap;html=1;" parent="1" vertex="1">
          <mxGeometry x="-580" y="750" width="120" height="60" as="geometry" />
        </mxCell>
        <mxCell id="Gc0ZzkE7HIkw814P57XK-12" value="商品分类" style="rounded=1;whiteSpace=wrap;html=1;" parent="1" vertex="1">
          <mxGeometry x="-770" y="750" width="120" height="60" as="geometry" />
        </mxCell>
        <mxCell id="Gc0ZzkE7HIkw814P57XK-15" style="edgeStyle=orthogonalEdgeStyle;rounded=1;orthogonalLoop=1;jettySize=auto;html=1;curved=1;" parent="1" source="Gc0ZzkE7HIkw814P57XK-14" target="Gc0ZzkE7HIkw814P57XK-11" edge="1">
          <mxGeometry relative="1" as="geometry" />
        </mxCell>
        <mxCell id="Gc0ZzkE7HIkw814P57XK-14" value="商品名&lt;br&gt;SPU" style="rounded=1;whiteSpace=wrap;html=1;" parent="1" vertex="1">
          <mxGeometry x="-660" y="870" width="120" height="60" as="geometry" />
        </mxCell>
        <mxCell id="Gc0ZzkE7HIkw814P57XK-17" style="edgeStyle=orthogonalEdgeStyle;rounded=1;orthogonalLoop=1;jettySize=auto;html=1;curved=1;" parent="1" source="Gc0ZzkE7HIkw814P57XK-16" target="Gc0ZzkE7HIkw814P57XK-11" edge="1">
          <mxGeometry relative="1" as="geometry" />
        </mxCell>
        <mxCell id="Gc0ZzkE7HIkw814P57XK-16" value="具体规格&lt;br&gt;内存、CPU、etc." style="rounded=1;whiteSpace=wrap;html=1;" parent="1" vertex="1">
          <mxGeometry x="-510" y="870" width="120" height="60" as="geometry" />
        </mxCell>
        <mxCell id="Gc0ZzkE7HIkw814P57XK-22" value="仓库&lt;br&gt;&lt;br&gt;现实仓库" style="rounded=1;whiteSpace=wrap;html=1;" parent="1" vertex="1">
          <mxGeometry x="-580" y="20" width="120" height="60" as="geometry" />
        </mxCell>
        <mxCell id="Gc0ZzkE7HIkw814P57XK-27" style="edgeStyle=orthogonalEdgeStyle;rounded=1;orthogonalLoop=1;jettySize=auto;html=1;curved=1;" parent="1" source="Gc0ZzkE7HIkw814P57XK-23" target="Gc0ZzkE7HIkw814P57XK-22" edge="1">
          <mxGeometry relative="1" as="geometry" />
        </mxCell>
        <mxCell id="Gc0ZzkE7HIkw814P57XK-23" value="库房&lt;br&gt;&lt;br&gt;仓库的某个房间&lt;br&gt;或定向区域" style="rounded=1;whiteSpace=wrap;html=1;" parent="1" vertex="1">
          <mxGeometry x="-580" y="110" width="120" height="60" as="geometry" />
        </mxCell>
        <mxCell id="Gc0ZzkE7HIkw814P57XK-28" style="edgeStyle=orthogonalEdgeStyle;rounded=1;orthogonalLoop=1;jettySize=auto;html=1;curved=1;" parent="1" source="Gc0ZzkE7HIkw814P57XK-24" target="Gc0ZzkE7HIkw814P57XK-23" edge="1">
          <mxGeometry relative="1" as="geometry" />
        </mxCell>
        <mxCell id="Gc0ZzkE7HIkw814P57XK-24" value="储区&lt;br&gt;&lt;br&gt;库房的定向存储区域" style="rounded=1;whiteSpace=wrap;html=1;" parent="1" vertex="1">
          <mxGeometry x="-580" y="200" width="120" height="60" as="geometry" />
        </mxCell>
        <mxCell id="Gc0ZzkE7HIkw814P57XK-29" style="edgeStyle=orthogonalEdgeStyle;rounded=1;orthogonalLoop=1;jettySize=auto;html=1;curved=1;" parent="1" source="Gc0ZzkE7HIkw814P57XK-25" target="Gc0ZzkE7HIkw814P57XK-24" edge="1">
          <mxGeometry relative="1" as="geometry" />
        </mxCell>
        <mxCell id="Gc0ZzkE7HIkw814P57XK-25" value="货架&lt;br&gt;&lt;br&gt;多层货物存储架" style="rounded=1;whiteSpace=wrap;html=1;" parent="1" vertex="1">
          <mxGeometry x="-580" y="290" width="120" height="60" as="geometry" />
        </mxCell>
        <mxCell id="Gc0ZzkE7HIkw814P57XK-36" value="1:N 首个库位&lt;br&gt;与容器标识一致" style="edgeStyle=orthogonalEdgeStyle;rounded=1;orthogonalLoop=1;jettySize=auto;html=1;curved=1;" parent="1" source="Gc0ZzkE7HIkw814P57XK-26" target="Gc0ZzkE7HIkw814P57XK-2" edge="1">
          <mxGeometry x="-0.3684" y="-10" relative="1" as="geometry">
            <mxPoint as="offset" />
          </mxGeometry>
        </mxCell>
        <mxCell id="Gc0ZzkE7HIkw814P57XK-26" value="库位&lt;br&gt;能放容器和商品&lt;br&gt;仓库min存储对象单位" style="rounded=1;whiteSpace=wrap;html=1;" parent="1" vertex="1">
          <mxGeometry x="-720" y="470" width="120" height="60" as="geometry" />
        </mxCell>
        <mxCell id="Gc0ZzkE7HIkw814P57XK-32" value="1:1" style="edgeStyle=orthogonalEdgeStyle;rounded=1;orthogonalLoop=1;jettySize=auto;html=1;curved=1;" parent="1" source="Gc0ZzkE7HIkw814P57XK-31" target="Gc0ZzkE7HIkw814P57XK-26" edge="1">
          <mxGeometry x="0.0556" relative="1" as="geometry">
            <mxPoint as="offset" />
          </mxGeometry>
        </mxCell>
        <mxCell id="Gc0ZzkE7HIkw814P57XK-37" style="edgeStyle=orthogonalEdgeStyle;rounded=1;orthogonalLoop=1;jettySize=auto;html=1;curved=1;" parent="1" source="Gc0ZzkE7HIkw814P57XK-31" target="Gc0ZzkE7HIkw814P57XK-2" edge="1">
          <mxGeometry relative="1" as="geometry" />
        </mxCell>
        <mxCell id="Gc0ZzkE7HIkw814P57XK-31" value="盒子&lt;br&gt;存放商品的小区域&lt;br&gt;可横/纵划分" style="rounded=1;whiteSpace=wrap;html=1;" parent="1" vertex="1">
          <mxGeometry x="-800" y="620" width="120" height="60" as="geometry" />
        </mxCell>
        <mxCell id="Gc0ZzkE7HIkw814P57XK-35" value="1:N" style="edgeStyle=orthogonalEdgeStyle;rounded=1;orthogonalLoop=1;jettySize=auto;html=1;curved=1;" parent="1" source="Gc0ZzkE7HIkw814P57XK-34" target="Gc0ZzkE7HIkw814P57XK-2" edge="1">
          <mxGeometry relative="1" as="geometry">
            <mxPoint x="-700" y="270" as="targetPoint" />
          </mxGeometry>
        </mxCell>
        <mxCell id="Gc0ZzkE7HIkw814P57XK-34" value="" style="shape=curlyBracket;whiteSpace=wrap;html=1;rounded=1;" parent="1" vertex="1">
          <mxGeometry x="-600" y="110" width="20" height="240" as="geometry" />
        </mxCell>
        <mxCell id="Gc0ZzkE7HIkw814P57XK-42" style="edgeStyle=orthogonalEdgeStyle;curved=1;rounded=1;orthogonalLoop=1;jettySize=auto;html=1;entryX=0;entryY=0.25;entryDx=0;entryDy=0;exitX=1;exitY=0.25;exitDx=0;exitDy=0;" parent="1" source="Gc0ZzkE7HIkw814P57XK-39" target="Gc0ZzkE7HIkw814P57XK-40" edge="1">
          <mxGeometry relative="1" as="geometry" />
        </mxCell>
        <mxCell id="Gc0ZzkE7HIkw814P57XK-39" value="容器&lt;br&gt;&lt;br&gt;&lt;div&gt;&amp;nbsp;&amp;nbsp;&lt;span style=&quot;background-color: initial;&quot;&gt;能放容器和库位&lt;/span&gt;&lt;/div&gt;" style="rounded=1;whiteSpace=wrap;html=1;" parent="1" vertex="1">
          <mxGeometry x="-360" y="450" width="120" height="60" as="geometry" />
        </mxCell>
        <mxCell id="Gc0ZzkE7HIkw814P57XK-43" style="edgeStyle=orthogonalEdgeStyle;curved=1;rounded=1;orthogonalLoop=1;jettySize=auto;html=1;exitX=0;exitY=0.75;exitDx=0;exitDy=0;entryX=1;entryY=0.75;entryDx=0;entryDy=0;" parent="1" source="Gc0ZzkE7HIkw814P57XK-40" target="Gc0ZzkE7HIkw814P57XK-39" edge="1">
          <mxGeometry relative="1" as="geometry" />
        </mxCell>
        <mxCell id="Gc0ZzkE7HIkw814P57XK-40" value="库位&lt;br&gt;&lt;br&gt;能放容器和商品" style="rounded=1;whiteSpace=wrap;html=1;" parent="1" vertex="1">
          <mxGeometry x="-120" y="450" width="120" height="60" as="geometry" />
        </mxCell>
        <mxCell id="Gc0ZzkE7HIkw814P57XK-44" value="一件商品" style="rounded=1;whiteSpace=wrap;html=1;" parent="1" vertex="1">
          <mxGeometry x="-580" y="620" width="120" height="60" as="geometry" />
        </mxCell>
        <mxCell id="Gc0ZzkE7HIkw814P57XK-46" value="&lt;div class=&quot;lake-content&quot;&gt;&lt;span class=&quot;ne-text&quot;&gt;逻辑栏栅&lt;/span&gt;&lt;/div&gt;" style="rounded=1;whiteSpace=wrap;html=1;" parent="1" vertex="1">
          <mxGeometry x="-260" y="750" width="120" height="60" as="geometry" />
        </mxCell>
        <mxCell id="Gc0ZzkE7HIkw814P57XK-49" style="edgeStyle=orthogonalEdgeStyle;curved=1;rounded=1;orthogonalLoop=1;jettySize=auto;html=1;" parent="1" source="Gc0ZzkE7HIkw814P57XK-48" target="Gc0ZzkE7HIkw814P57XK-46" edge="1">
          <mxGeometry relative="1" as="geometry" />
        </mxCell>
        <mxCell id="Gc0ZzkE7HIkw814P57XK-48" value="&lt;div class=&quot;lake-content&quot;&gt;&lt;span class=&quot;ne-text&quot;&gt;货主&lt;/span&gt;&lt;/div&gt;" style="rounded=1;whiteSpace=wrap;html=1;" parent="1" vertex="1">
          <mxGeometry x="-260" y="870" width="120" height="60" as="geometry" />
        </mxCell>
        <mxCell id="Gc0ZzkE7HIkw814P57XK-51" style="edgeStyle=orthogonalEdgeStyle;curved=1;rounded=1;orthogonalLoop=1;jettySize=auto;html=1;" parent="1" source="Gc0ZzkE7HIkw814P57XK-50" target="Gc0ZzkE7HIkw814P57XK-46" edge="1">
          <mxGeometry relative="1" as="geometry" />
        </mxCell>
        <mxCell id="Gc0ZzkE7HIkw814P57XK-50" value="&lt;div class=&quot;lake-content&quot;&gt;&lt;span class=&quot;ne-text&quot;&gt;货品等级&lt;/span&gt;&lt;/div&gt;" style="rounded=1;whiteSpace=wrap;html=1;" parent="1" vertex="1">
          <mxGeometry x="-100" y="750" width="120" height="60" as="geometry" />
        </mxCell>
        <mxCell id="Gc0ZzkE7HIkw814P57XK-54" style="edgeStyle=orthogonalEdgeStyle;curved=1;rounded=1;orthogonalLoop=1;jettySize=auto;html=1;" parent="1" source="Gc0ZzkE7HIkw814P57XK-53" target="Gc0ZzkE7HIkw814P57XK-46" edge="1">
          <mxGeometry relative="1" as="geometry" />
        </mxCell>
        <mxCell id="Gc0ZzkE7HIkw814P57XK-53" value="唯一码" style="rounded=1;whiteSpace=wrap;html=1;" parent="1" vertex="1">
          <mxGeometry x="-120" y="640" width="120" height="60" as="geometry" />
        </mxCell>
        <mxCell id="Gc0ZzkE7HIkw814P57XK-56" style="edgeStyle=orthogonalEdgeStyle;curved=1;rounded=1;orthogonalLoop=1;jettySize=auto;html=1;" parent="1" source="Gc0ZzkE7HIkw814P57XK-55" target="Gc0ZzkE7HIkw814P57XK-46" edge="1">
          <mxGeometry relative="1" as="geometry" />
        </mxCell>
        <mxCell id="Gc0ZzkE7HIkw814P57XK-55" value="批次号" style="rounded=1;whiteSpace=wrap;html=1;" parent="1" vertex="1">
          <mxGeometry x="-110" y="830" width="120" height="60" as="geometry" />
        </mxCell>
        <mxCell id="Gc0ZzkE7HIkw814P57XK-58" style="edgeStyle=orthogonalEdgeStyle;curved=1;rounded=1;orthogonalLoop=1;jettySize=auto;html=1;" parent="1" source="Gc0ZzkE7HIkw814P57XK-57" target="Gc0ZzkE7HIkw814P57XK-46" edge="1">
          <mxGeometry relative="1" as="geometry" />
        </mxCell>
        <mxCell id="Gc0ZzkE7HIkw814P57XK-57" value="渠道独占" style="rounded=1;whiteSpace=wrap;html=1;" parent="1" vertex="1">
          <mxGeometry x="-260" y="595" width="120" height="60" as="geometry" />
        </mxCell>
        <mxCell id="Gc0ZzkE7HIkw814P57XK-60" style="edgeStyle=orthogonalEdgeStyle;curved=1;rounded=1;orthogonalLoop=1;jettySize=auto;html=1;" parent="1" source="Gc0ZzkE7HIkw814P57XK-59" target="Gc0ZzkE7HIkw814P57XK-53" edge="1">
          <mxGeometry relative="1" as="geometry" />
        </mxCell>
        <mxCell id="Gc0ZzkE7HIkw814P57XK-59" value="&lt;div class=&quot;lake-content&quot;&gt;&lt;span class=&quot;ne-text&quot;&gt;RFID&lt;/span&gt;&lt;/div&gt;" style="rounded=1;whiteSpace=wrap;html=1;" parent="1" vertex="1">
          <mxGeometry x="40" y="640" width="120" height="60" as="geometry" />
        </mxCell>
        <mxCell id="Gc0ZzkE7HIkw814P57XK-64" style="edgeStyle=orthogonalEdgeStyle;curved=1;rounded=1;orthogonalLoop=1;jettySize=auto;html=1;" parent="1" source="Gc0ZzkE7HIkw814P57XK-61" target="Gc0ZzkE7HIkw814P57XK-53" edge="1">
          <mxGeometry relative="1" as="geometry" />
        </mxCell>
        <mxCell id="Gc0ZzkE7HIkw814P57XK-61" value="&lt;div class=&quot;lake-content&quot;&gt;&lt;span class=&quot;ne-text&quot;&gt;序列号&lt;/span&gt;&lt;/div&gt;" style="rounded=1;whiteSpace=wrap;html=1;" parent="1" vertex="1">
          <mxGeometry x="40" y="710" width="120" height="60" as="geometry" />
        </mxCell>
        <mxCell id="Gc0ZzkE7HIkw814P57XK-63" style="edgeStyle=orthogonalEdgeStyle;curved=1;rounded=1;orthogonalLoop=1;jettySize=auto;html=1;" parent="1" source="Gc0ZzkE7HIkw814P57XK-62" target="Gc0ZzkE7HIkw814P57XK-53" edge="1">
          <mxGeometry relative="1" as="geometry" />
        </mxCell>
        <mxCell id="Gc0ZzkE7HIkw814P57XK-62" value="别名号1、2..." style="rounded=1;whiteSpace=wrap;html=1;" parent="1" vertex="1">
          <mxGeometry x="40" y="570" width="120" height="60" as="geometry" />
        </mxCell>
        <mxCell id="5qOFIWLKOvoNVLVQdPbh-1" value="条码" style="rounded=1;whiteSpace=wrap;html=1;" parent="1" vertex="1">
          <mxGeometry x="-200" y="20" width="120" height="60" as="geometry" />
        </mxCell>
        <mxCell id="5qOFIWLKOvoNVLVQdPbh-3" style="edgeStyle=orthogonalEdgeStyle;rounded=1;orthogonalLoop=1;jettySize=auto;html=1;curved=1;" parent="1" source="5qOFIWLKOvoNVLVQdPbh-2" target="5qOFIWLKOvoNVLVQdPbh-1" edge="1">
          <mxGeometry relative="1" as="geometry" />
        </mxCell>
        <mxCell id="5qOFIWLKOvoNVLVQdPbh-2" value="类型&lt;br&gt;&lt;br&gt;容器、库位、出货单..." style="rounded=1;whiteSpace=wrap;html=1;" parent="1" vertex="1">
          <mxGeometry x="-330" y="110" width="120" height="60" as="geometry" />
        </mxCell>
        <mxCell id="5qOFIWLKOvoNVLVQdPbh-6" style="edgeStyle=orthogonalEdgeStyle;curved=1;rounded=1;orthogonalLoop=1;jettySize=auto;html=1;" parent="1" source="5qOFIWLKOvoNVLVQdPbh-4" target="5qOFIWLKOvoNVLVQdPbh-1" edge="1">
          <mxGeometry relative="1" as="geometry" />
        </mxCell>
        <mxCell id="5qOFIWLKOvoNVLVQdPbh-4" value="条码 ID" style="rounded=1;whiteSpace=wrap;html=1;" parent="1" vertex="1">
          <mxGeometry x="-200" y="160" width="120" height="60" as="geometry" />
        </mxCell>
        <mxCell id="5qOFIWLKOvoNVLVQdPbh-8" value="" style="edgeStyle=orthogonalEdgeStyle;curved=1;rounded=1;orthogonalLoop=1;jettySize=auto;html=1;" parent="1" source="5qOFIWLKOvoNVLVQdPbh-7" target="5qOFIWLKOvoNVLVQdPbh-1" edge="1">
          <mxGeometry relative="1" as="geometry" />
        </mxCell>
        <mxCell id="5qOFIWLKOvoNVLVQdPbh-7" value="数据 ID" style="rounded=1;whiteSpace=wrap;html=1;" parent="1" vertex="1">
          <mxGeometry x="-350" y="20" width="120" height="60" as="geometry" />
        </mxCell>
        <mxCell id="eGqFl4vL8ZYa9YGeR6jM-4" style="edgeStyle=orthogonalEdgeStyle;curved=1;rounded=1;orthogonalLoop=1;jettySize=auto;html=1;" parent="1" source="eGqFl4vL8ZYa9YGeR6jM-1" target="Gc0ZzkE7HIkw814P57XK-24" edge="1">
          <mxGeometry relative="1" as="geometry">
            <Array as="points">
              <mxPoint x="-360" y="230" />
            </Array>
          </mxGeometry>
        </mxCell>
        <mxCell id="eGqFl4vL8ZYa9YGeR6jM-1" value="子货架&lt;br&gt;&lt;br&gt;特殊货架，1*1" style="rounded=1;whiteSpace=wrap;html=1;" parent="1" vertex="1">
          <mxGeometry x="-420" y="290" width="120" height="60" as="geometry" />
        </mxCell>
        <mxCell id="eGqFl4vL8ZYa9YGeR6jM-3" value="" style="edgeStyle=orthogonalEdgeStyle;curved=1;rounded=1;orthogonalLoop=1;jettySize=auto;html=1;" parent="1" source="eGqFl4vL8ZYa9YGeR6jM-2" target="Gc0ZzkE7HIkw814P57XK-25" edge="1">
          <mxGeometry relative="1" as="geometry" />
        </mxCell>
        <mxCell id="eGqFl4vL8ZYa9YGeR6jM-6" style="edgeStyle=orthogonalEdgeStyle;curved=1;rounded=1;orthogonalLoop=1;jettySize=auto;html=1;" parent="1" source="eGqFl4vL8ZYa9YGeR6jM-2" target="eGqFl4vL8ZYa9YGeR6jM-1" edge="1">
          <mxGeometry relative="1" as="geometry" />
        </mxCell>
        <mxCell id="eGqFl4vL8ZYa9YGeR6jM-2" value="各种盒子&lt;br&gt;&lt;br&gt;1*1" style="rounded=1;whiteSpace=wrap;html=1;" parent="1" vertex="1">
          <mxGeometry x="-580" y="380" width="120" height="60" as="geometry" />
        </mxCell>
        <mxCell id="cYIj_XJX1jMNJQOhVPUD-1" value="堆场&lt;br&gt;&lt;br&gt;容器暂存区" style="rounded=1;whiteSpace=wrap;html=1;" parent="1" vertex="1">
          <mxGeometry x="20" y="210" width="120" height="60" as="geometry" />
        </mxCell>
      </root>
    </mxGraphModel>
  </diagram>
  <diagram id="xdMpLhU54_HbCeW3ZO0Q" name="Page-2">
    <mxGraphModel dx="2249" dy="762" grid="1" gridSize="10" guides="1" tooltips="1" connect="1" arrows="1" fold="1" page="1" pageScale="1" pageWidth="827" pageHeight="1169" math="0" shadow="0">
      <root>
        <mxCell id="0" />
        <mxCell id="1" parent="0" />
        <mxCell id="c3lsfkHb321xXwyXLe64-3" value="" style="edgeStyle=orthogonalEdgeStyle;rounded=1;orthogonalLoop=1;jettySize=auto;html=1;curved=1;" parent="1" source="c3lsfkHb321xXwyXLe64-1" target="c3lsfkHb321xXwyXLe64-2" edge="1">
          <mxGeometry relative="1" as="geometry" />
        </mxCell>
        <mxCell id="c3lsfkHb321xXwyXLe64-5" style="edgeStyle=orthogonalEdgeStyle;rounded=1;orthogonalLoop=1;jettySize=auto;html=1;curved=1;" parent="1" source="c3lsfkHb321xXwyXLe64-1" target="c3lsfkHb321xXwyXLe64-4" edge="1">
          <mxGeometry relative="1" as="geometry" />
        </mxCell>
        <mxCell id="c3lsfkHb321xXwyXLe64-1" value="PDPM" style="rounded=1;whiteSpace=wrap;html=1;" parent="1" vertex="1">
          <mxGeometry x="-190" y="610" width="120" height="60" as="geometry" />
        </mxCell>
        <mxCell id="c3lsfkHb321xXwyXLe64-2" value="OMS&lt;br&gt;&lt;br&gt;Order Management System" style="rounded=1;whiteSpace=wrap;html=1;" parent="1" vertex="1">
          <mxGeometry x="10" y="610" width="120" height="60" as="geometry" />
        </mxCell>
        <mxCell id="c3lsfkHb321xXwyXLe64-4" value="PMS&lt;br&gt;&lt;br&gt;Production Management System" style="rounded=1;whiteSpace=wrap;html=1;" parent="1" vertex="1">
          <mxGeometry x="10" y="740" width="120" height="60" as="geometry" />
        </mxCell>
        <mxCell id="c3lsfkHb321xXwyXLe64-8" value="" style="edgeStyle=orthogonalEdgeStyle;curved=1;rounded=1;orthogonalLoop=1;jettySize=auto;html=1;" parent="1" source="c3lsfkHb321xXwyXLe64-6" target="c3lsfkHb321xXwyXLe64-1" edge="1">
          <mxGeometry relative="1" as="geometry" />
        </mxCell>
        <mxCell id="c3lsfkHb321xXwyXLe64-6" value="黑焰医疗&lt;br&gt;&lt;br&gt;陆总" style="rounded=1;whiteSpace=wrap;html=1;" parent="1" vertex="1">
          <mxGeometry x="-190" y="350" width="120" height="60" as="geometry" />
        </mxCell>
        <mxCell id="c3lsfkHb321xXwyXLe64-9" value="黑龙工业&lt;br&gt;&lt;br&gt;薛帮主" style="rounded=1;whiteSpace=wrap;html=1;" parent="1" vertex="1">
          <mxGeometry x="130" y="350" width="120" height="60" as="geometry" />
        </mxCell>
        <mxCell id="c3lsfkHb321xXwyXLe64-16" value="" style="edgeStyle=orthogonalEdgeStyle;curved=1;rounded=1;orthogonalLoop=1;jettySize=auto;html=1;" parent="1" source="c3lsfkHb321xXwyXLe64-10" target="c3lsfkHb321xXwyXLe64-15" edge="1">
          <mxGeometry relative="1" as="geometry" />
        </mxCell>
        <mxCell id="c3lsfkHb321xXwyXLe64-38" style="edgeStyle=orthogonalEdgeStyle;curved=1;rounded=1;orthogonalLoop=1;jettySize=auto;html=1;startArrow=none;startFill=0;" parent="1" source="c3lsfkHb321xXwyXLe64-10" target="c3lsfkHb321xXwyXLe64-37" edge="1">
          <mxGeometry relative="1" as="geometry" />
        </mxCell>
        <mxCell id="c3lsfkHb321xXwyXLe64-10" value="黑钥时尚" style="rounded=1;whiteSpace=wrap;html=1;" parent="1" vertex="1">
          <mxGeometry x="-440" y="350" width="120" height="60" as="geometry" />
        </mxCell>
        <mxCell id="c3lsfkHb321xXwyXLe64-12" value="" style="edgeStyle=orthogonalEdgeStyle;curved=1;rounded=1;orthogonalLoop=1;jettySize=auto;html=1;" parent="1" source="c3lsfkHb321xXwyXLe64-11" target="c3lsfkHb321xXwyXLe64-6" edge="1">
          <mxGeometry relative="1" as="geometry" />
        </mxCell>
        <mxCell id="c3lsfkHb321xXwyXLe64-13" style="edgeStyle=orthogonalEdgeStyle;curved=1;rounded=1;orthogonalLoop=1;jettySize=auto;html=1;" parent="1" source="c3lsfkHb321xXwyXLe64-11" target="c3lsfkHb321xXwyXLe64-10" edge="1">
          <mxGeometry relative="1" as="geometry" />
        </mxCell>
        <mxCell id="c3lsfkHb321xXwyXLe64-14" style="edgeStyle=orthogonalEdgeStyle;curved=1;rounded=1;orthogonalLoop=1;jettySize=auto;html=1;" parent="1" source="c3lsfkHb321xXwyXLe64-11" target="c3lsfkHb321xXwyXLe64-9" edge="1">
          <mxGeometry relative="1" as="geometry" />
        </mxCell>
        <mxCell id="c3lsfkHb321xXwyXLe64-11" value="黑船&lt;br&gt;&lt;br&gt;沈总，殿下" style="rounded=1;whiteSpace=wrap;html=1;" parent="1" vertex="1">
          <mxGeometry x="-190" y="230" width="120" height="60" as="geometry" />
        </mxCell>
        <mxCell id="c3lsfkHb321xXwyXLe64-18" value="" style="edgeStyle=orthogonalEdgeStyle;curved=1;rounded=1;orthogonalLoop=1;jettySize=auto;html=1;" parent="1" source="c3lsfkHb321xXwyXLe64-15" target="c3lsfkHb321xXwyXLe64-17" edge="1">
          <mxGeometry relative="1" as="geometry" />
        </mxCell>
        <mxCell id="c3lsfkHb321xXwyXLe64-25" style="edgeStyle=orthogonalEdgeStyle;curved=1;rounded=1;orthogonalLoop=1;jettySize=auto;html=1;startArrow=none;startFill=0;" parent="1" source="c3lsfkHb321xXwyXLe64-15" target="c3lsfkHb321xXwyXLe64-21" edge="1">
          <mxGeometry relative="1" as="geometry" />
        </mxCell>
        <mxCell id="c3lsfkHb321xXwyXLe64-26" style="edgeStyle=orthogonalEdgeStyle;curved=1;rounded=1;orthogonalLoop=1;jettySize=auto;html=1;startArrow=none;startFill=0;" parent="1" source="c3lsfkHb321xXwyXLe64-15" target="c3lsfkHb321xXwyXLe64-22" edge="1">
          <mxGeometry relative="1" as="geometry" />
        </mxCell>
        <mxCell id="c3lsfkHb321xXwyXLe64-27" style="edgeStyle=orthogonalEdgeStyle;curved=1;rounded=1;orthogonalLoop=1;jettySize=auto;html=1;startArrow=none;startFill=0;" parent="1" source="c3lsfkHb321xXwyXLe64-15" target="c3lsfkHb321xXwyXLe64-23" edge="1">
          <mxGeometry relative="1" as="geometry" />
        </mxCell>
        <mxCell id="c3lsfkHb321xXwyXLe64-15" value="时钥&lt;br&gt;&lt;br&gt;高老师" style="rounded=1;whiteSpace=wrap;html=1;" parent="1" vertex="1">
          <mxGeometry x="-440" y="490" width="120" height="60" as="geometry" />
        </mxCell>
        <mxCell id="c3lsfkHb321xXwyXLe64-17" value="&lt;span style=&quot;color: rgb(23, 43, 77); font-family: &amp;quot;Trebuchet MS&amp;quot;, Verdana, &amp;quot;SF Pro SC&amp;quot;, &amp;quot;SF Pro Text&amp;quot;, &amp;quot;SF Pro Icons&amp;quot;, &amp;quot;PingFang SC&amp;quot;, &amp;quot;Microsoft YaHei&amp;quot;, sans-serif; font-size: 14px; letter-spacing: 0.3px; text-align: left; background-color: rgb(255, 255, 255);&quot;&gt;MERP&lt;br&gt;天梭、奥莱的订单对接等&lt;br&gt;&lt;/span&gt;" style="rounded=1;whiteSpace=wrap;html=1;" parent="1" vertex="1">
          <mxGeometry x="-440" y="610" width="120" height="60" as="geometry" />
        </mxCell>
        <mxCell id="c3lsfkHb321xXwyXLe64-20" style="edgeStyle=orthogonalEdgeStyle;curved=1;rounded=1;orthogonalLoop=1;jettySize=auto;html=1;startArrow=classic;startFill=1;dashed=1;" parent="1" source="c3lsfkHb321xXwyXLe64-19" target="c3lsfkHb321xXwyXLe64-1" edge="1">
          <mxGeometry relative="1" as="geometry" />
        </mxCell>
        <mxCell id="c3lsfkHb321xXwyXLe64-19" value="F3D/H5" style="rounded=1;whiteSpace=wrap;html=1;" parent="1" vertex="1">
          <mxGeometry x="-190" y="840" width="120" height="60" as="geometry" />
        </mxCell>
        <mxCell id="c3lsfkHb321xXwyXLe64-21" value="&lt;span style=&quot;color: rgb(23, 43, 77); font-family: &amp;quot;Trebuchet MS&amp;quot;, Verdana, &amp;quot;SF Pro SC&amp;quot;, &amp;quot;SF Pro Text&amp;quot;, &amp;quot;SF Pro Icons&amp;quot;, &amp;quot;PingFang SC&amp;quot;, &amp;quot;Microsoft YaHei&amp;quot;, sans-serif; font-size: 14px; letter-spacing: 0.3px; text-align: left; background-color: rgb(255, 255, 255);&quot;&gt;BOMS&lt;br&gt;雷达表&lt;br&gt;&lt;/span&gt;" style="rounded=1;whiteSpace=wrap;html=1;" parent="1" vertex="1">
          <mxGeometry x="-560" y="700" width="120" height="60" as="geometry" />
        </mxCell>
        <mxCell id="c3lsfkHb321xXwyXLe64-22" value="&lt;span style=&quot;color: rgb(23, 43, 77); font-family: &amp;quot;Trebuchet MS&amp;quot;, Verdana, &amp;quot;SF Pro SC&amp;quot;, &amp;quot;SF Pro Text&amp;quot;, &amp;quot;SF Pro Icons&amp;quot;, &amp;quot;PingFang SC&amp;quot;, &amp;quot;Microsoft YaHei&amp;quot;, sans-serif; font-size: 14px; letter-spacing: 0.3px; text-align: left; background-color: rgb(255, 255, 255);&quot;&gt;WMS/WCS&lt;br&gt;&lt;br&gt;仓储&lt;br&gt;&lt;/span&gt;" style="rounded=1;whiteSpace=wrap;html=1;" parent="1" vertex="1">
          <mxGeometry x="-680" y="790" width="120" height="60" as="geometry" />
        </mxCell>
        <mxCell id="c3lsfkHb321xXwyXLe64-23" value="&lt;span style=&quot;text-align: left; background-color: rgb(255, 255, 255);&quot;&gt;&lt;font face=&quot;Trebuchet MS, Verdana, SF Pro SC, SF Pro Text, SF Pro Icons, PingFang SC, Microsoft YaHei, sans-serif&quot; color=&quot;#172b4d&quot;&gt;&lt;span style=&quot;font-size: 14px; letter-spacing: 0.3px;&quot;&gt;无界零售&lt;/span&gt;&lt;/font&gt;&lt;br&gt;&lt;font face=&quot;Trebuchet MS, Verdana, SF Pro SC, SF Pro Text, SF Pro Icons, PingFang SC, Microsoft YaHei, sans-serif&quot; color=&quot;#172b4d&quot;&gt;&lt;span style=&quot;font-size: 14px; letter-spacing: 0.3px;&quot;&gt;O2O，Online To Offline&lt;/span&gt;&lt;/font&gt;&lt;br&gt;&lt;/span&gt;" style="rounded=1;whiteSpace=wrap;html=1;" parent="1" vertex="1">
          <mxGeometry x="-800" y="890" width="120" height="60" as="geometry" />
        </mxCell>
        <mxCell id="c3lsfkHb321xXwyXLe64-31" style="edgeStyle=orthogonalEdgeStyle;curved=1;rounded=1;orthogonalLoop=1;jettySize=auto;html=1;startArrow=none;startFill=0;" parent="1" source="c3lsfkHb321xXwyXLe64-24" target="c3lsfkHb321xXwyXLe64-30" edge="1">
          <mxGeometry relative="1" as="geometry" />
        </mxCell>
        <mxCell id="c3lsfkHb321xXwyXLe64-33" style="edgeStyle=orthogonalEdgeStyle;curved=1;rounded=1;orthogonalLoop=1;jettySize=auto;html=1;startArrow=none;startFill=0;" parent="1" source="c3lsfkHb321xXwyXLe64-24" target="c3lsfkHb321xXwyXLe64-32" edge="1">
          <mxGeometry relative="1" as="geometry" />
        </mxCell>
        <mxCell id="c3lsfkHb321xXwyXLe64-24" value="电商代运营" style="rounded=1;whiteSpace=wrap;html=1;" parent="1" vertex="1">
          <mxGeometry x="-380" y="120" width="120" height="60" as="geometry" />
        </mxCell>
        <mxCell id="c3lsfkHb321xXwyXLe64-39" value="转变" style="edgeStyle=orthogonalEdgeStyle;curved=1;rounded=1;orthogonalLoop=1;jettySize=auto;html=1;startArrow=none;startFill=0;" parent="1" source="c3lsfkHb321xXwyXLe64-28" target="c3lsfkHb321xXwyXLe64-24" edge="1">
          <mxGeometry relative="1" as="geometry" />
        </mxCell>
        <mxCell id="c3lsfkHb321xXwyXLe64-28" value="珠宝首饰" style="rounded=1;whiteSpace=wrap;html=1;" parent="1" vertex="1">
          <mxGeometry x="-380" y="10" width="120" height="60" as="geometry" />
        </mxCell>
        <mxCell id="c3lsfkHb321xXwyXLe64-30" value="TAKAMI" style="ellipse;whiteSpace=wrap;html=1;rounded=1;" parent="1" vertex="1">
          <mxGeometry x="-580" y="120" width="120" height="60" as="geometry" />
        </mxCell>
        <mxCell id="c3lsfkHb321xXwyXLe64-32" value="新宇/盛时&lt;br&gt;(亨得利)" style="ellipse;whiteSpace=wrap;html=1;rounded=1;" parent="1" vertex="1">
          <mxGeometry x="-580" y="240" width="120" height="60" as="geometry" />
        </mxCell>
        <mxCell id="c3lsfkHb321xXwyXLe64-35" style="edgeStyle=orthogonalEdgeStyle;curved=1;rounded=1;orthogonalLoop=1;jettySize=auto;html=1;startArrow=none;startFill=0;" parent="1" source="c3lsfkHb321xXwyXLe64-34" target="c3lsfkHb321xXwyXLe64-32" edge="1">
          <mxGeometry relative="1" as="geometry" />
        </mxCell>
        <mxCell id="c3lsfkHb321xXwyXLe64-34" value="瑞表" style="ellipse;whiteSpace=wrap;html=1;rounded=1;" parent="1" vertex="1">
          <mxGeometry x="-760" y="240" width="120" height="60" as="geometry" />
        </mxCell>
        <mxCell id="c3lsfkHb321xXwyXLe64-42" style="edgeStyle=orthogonalEdgeStyle;curved=1;rounded=1;orthogonalLoop=1;jettySize=auto;html=1;startArrow=none;startFill=0;" parent="1" source="c3lsfkHb321xXwyXLe64-37" target="c3lsfkHb321xXwyXLe64-40" edge="1">
          <mxGeometry relative="1" as="geometry" />
        </mxCell>
        <mxCell id="c3lsfkHb321xXwyXLe64-37" value="北京部门&lt;br&gt;&lt;br&gt;郝爷" style="rounded=1;whiteSpace=wrap;html=1;" parent="1" vertex="1">
          <mxGeometry x="-600" y="410" width="120" height="60" as="geometry" />
        </mxCell>
        <mxCell id="c3lsfkHb321xXwyXLe64-40" value="&lt;span style=&quot;color: rgb(23, 43, 77); font-family: &amp;quot;Trebuchet MS&amp;quot;, Verdana, &amp;quot;SF Pro SC&amp;quot;, &amp;quot;SF Pro Text&amp;quot;, &amp;quot;SF Pro Icons&amp;quot;, &amp;quot;PingFang SC&amp;quot;, &amp;quot;Microsoft YaHei&amp;quot;, sans-serif; font-size: 14px; letter-spacing: 0.3px; text-align: left; background-color: rgb(255, 255, 255);&quot;&gt;实体仓储&lt;br&gt;&lt;/span&gt;" style="rounded=1;whiteSpace=wrap;html=1;" parent="1" vertex="1">
          <mxGeometry x="-740" y="490" width="120" height="60" as="geometry" />
        </mxCell>
      </root>
    </mxGraphModel>
  </diagram>
  <diagram id="pEkRGxdHK4usvcpMnKb_" name="Request Analyze">
    <mxGraphModel dx="2249" dy="762" grid="1" gridSize="10" guides="1" tooltips="1" connect="1" arrows="1" fold="1" page="1" pageScale="1" pageWidth="827" pageHeight="1169" math="0" shadow="0">
      <root>
        <mxCell id="0" />
        <mxCell id="1" parent="0" />
        <mxCell id="mlJFifyoLXbOTB2wiHOc-3" style="edgeStyle=orthogonalEdgeStyle;rounded=0;orthogonalLoop=1;jettySize=auto;html=1;" parent="1" source="mlJFifyoLXbOTB2wiHOc-1" target="mlJFifyoLXbOTB2wiHOc-2" edge="1">
          <mxGeometry relative="1" as="geometry" />
        </mxCell>
        <mxCell id="mlJFifyoLXbOTB2wiHOc-1" value="POST 127.0.0.1/a/b/c" style="text;html=1;align=center;verticalAlign=middle;resizable=0;points=[];autosize=1;strokeColor=none;fillColor=none;" parent="1" vertex="1">
          <mxGeometry x="14" y="45" width="140" height="30" as="geometry" />
        </mxCell>
        <mxCell id="mlJFifyoLXbOTB2wiHOc-5" value="" style="edgeStyle=orthogonalEdgeStyle;rounded=0;orthogonalLoop=1;jettySize=auto;html=1;" parent="1" source="mlJFifyoLXbOTB2wiHOc-2" target="mlJFifyoLXbOTB2wiHOc-4" edge="1">
          <mxGeometry relative="1" as="geometry" />
        </mxCell>
        <mxCell id="N6ppyuez3uGlsQL3zOpG-2" style="edgeStyle=orthogonalEdgeStyle;rounded=0;orthogonalLoop=1;jettySize=auto;html=1;" parent="1" source="mlJFifyoLXbOTB2wiHOc-2" target="N6ppyuez3uGlsQL3zOpG-1" edge="1">
          <mxGeometry relative="1" as="geometry" />
        </mxCell>
        <mxCell id="mlJFifyoLXbOTB2wiHOc-2" value="输入路由" style="rounded=1;whiteSpace=wrap;html=1;" parent="1" vertex="1">
          <mxGeometry x="224" y="30" width="120" height="60" as="geometry" />
        </mxCell>
        <mxCell id="mlJFifyoLXbOTB2wiHOc-7" value="" style="edgeStyle=orthogonalEdgeStyle;rounded=0;orthogonalLoop=1;jettySize=auto;html=1;" parent="1" source="mlJFifyoLXbOTB2wiHOc-4" target="mlJFifyoLXbOTB2wiHOc-8" edge="1">
          <mxGeometry relative="1" as="geometry">
            <mxPoint x="284" y="285" as="targetPoint" />
          </mxGeometry>
        </mxCell>
        <mxCell id="mlJFifyoLXbOTB2wiHOc-4" value="将&amp;nbsp;b&amp;nbsp;作为数据集标识&lt;br&gt;&lt;br&gt;查询数据集 b 的配置" style="rounded=1;whiteSpace=wrap;html=1;" parent="1" vertex="1">
          <mxGeometry x="224" y="165" width="120" height="60" as="geometry" />
        </mxCell>
        <mxCell id="mlJFifyoLXbOTB2wiHOc-13" value="" style="edgeStyle=orthogonalEdgeStyle;rounded=0;orthogonalLoop=1;jettySize=auto;html=1;" parent="1" source="mlJFifyoLXbOTB2wiHOc-8" target="mlJFifyoLXbOTB2wiHOc-9" edge="1">
          <mxGeometry relative="1" as="geometry" />
        </mxCell>
        <mxCell id="mlJFifyoLXbOTB2wiHOc-24" style="edgeStyle=orthogonalEdgeStyle;rounded=0;orthogonalLoop=1;jettySize=auto;html=1;" parent="1" source="mlJFifyoLXbOTB2wiHOc-8" target="N6ppyuez3uGlsQL3zOpG-4" edge="1">
          <mxGeometry relative="1" as="geometry" />
        </mxCell>
        <mxCell id="mlJFifyoLXbOTB2wiHOc-8" value="数据集存在" style="rhombus;whiteSpace=wrap;html=1;" parent="1" vertex="1">
          <mxGeometry x="244" y="305" width="80" height="80" as="geometry" />
        </mxCell>
        <mxCell id="mlJFifyoLXbOTB2wiHOc-12" value="" style="edgeStyle=orthogonalEdgeStyle;rounded=0;orthogonalLoop=1;jettySize=auto;html=1;" parent="1" source="mlJFifyoLXbOTB2wiHOc-9" target="mlJFifyoLXbOTB2wiHOc-11" edge="1">
          <mxGeometry relative="1" as="geometry" />
        </mxCell>
        <mxCell id="mlJFifyoLXbOTB2wiHOc-9" value="查询用户拥有的权限" style="rounded=1;whiteSpace=wrap;html=1;" parent="1" vertex="1">
          <mxGeometry x="224" y="465" width="120" height="60" as="geometry" />
        </mxCell>
        <mxCell id="mlJFifyoLXbOTB2wiHOc-15" value="" style="edgeStyle=orthogonalEdgeStyle;rounded=0;orthogonalLoop=1;jettySize=auto;html=1;" parent="1" source="mlJFifyoLXbOTB2wiHOc-11" target="mlJFifyoLXbOTB2wiHOc-14" edge="1">
          <mxGeometry relative="1" as="geometry" />
        </mxCell>
        <mxCell id="mlJFifyoLXbOTB2wiHOc-11" value="查询的权限列组和默认列组" style="rounded=1;whiteSpace=wrap;html=1;" parent="1" vertex="1">
          <mxGeometry x="224" y="595" width="120" height="60" as="geometry" />
        </mxCell>
        <mxCell id="mlJFifyoLXbOTB2wiHOc-14" value="将查到的列组进行合并，&lt;b&gt;替换&lt;/b&gt; columns&amp;nbsp;参数" style="rounded=1;whiteSpace=wrap;html=1;" parent="1" vertex="1">
          <mxGeometry x="224" y="725" width="120" height="60" as="geometry" />
        </mxCell>
        <mxCell id="mlJFifyoLXbOTB2wiHOc-18" value="" style="edgeStyle=orthogonalEdgeStyle;rounded=0;orthogonalLoop=1;jettySize=auto;html=1;" parent="1" source="mlJFifyoLXbOTB2wiHOc-16" target="mlJFifyoLXbOTB2wiHOc-19" edge="1">
          <mxGeometry relative="1" as="geometry">
            <mxPoint x="504" y="595" as="targetPoint" />
          </mxGeometry>
        </mxCell>
        <mxCell id="mlJFifyoLXbOTB2wiHOc-16" value="查询本数据集下&lt;br&gt;的默认过滤器&lt;br&gt;或标准过滤器" style="rounded=1;whiteSpace=wrap;html=1;" parent="1" vertex="1">
          <mxGeometry x="444" y="465" width="120" height="60" as="geometry" />
        </mxCell>
        <mxCell id="mlJFifyoLXbOTB2wiHOc-23" value="" style="edgeStyle=orthogonalEdgeStyle;rounded=0;orthogonalLoop=1;jettySize=auto;html=1;" parent="1" source="mlJFifyoLXbOTB2wiHOc-19" target="mlJFifyoLXbOTB2wiHOc-20" edge="1">
          <mxGeometry relative="1" as="geometry" />
        </mxCell>
        <mxCell id="mlJFifyoLXbOTB2wiHOc-19" value="过滤器存在" style="rhombus;whiteSpace=wrap;html=1;" parent="1" vertex="1">
          <mxGeometry x="464" y="585" width="80" height="80" as="geometry" />
        </mxCell>
        <mxCell id="mlJFifyoLXbOTB2wiHOc-22" value="" style="edgeStyle=orthogonalEdgeStyle;rounded=0;orthogonalLoop=1;jettySize=auto;html=1;" parent="1" source="mlJFifyoLXbOTB2wiHOc-20" target="mlJFifyoLXbOTB2wiHOc-21" edge="1">
          <mxGeometry relative="1" as="geometry" />
        </mxCell>
        <mxCell id="N6ppyuez3uGlsQL3zOpG-10" style="edgeStyle=orthogonalEdgeStyle;rounded=0;orthogonalLoop=1;jettySize=auto;html=1;dashed=1;" parent="1" source="mlJFifyoLXbOTB2wiHOc-20" target="N6ppyuez3uGlsQL3zOpG-9" edge="1">
          <mxGeometry relative="1" as="geometry" />
        </mxCell>
        <mxCell id="mlJFifyoLXbOTB2wiHOc-20" value="获得、构建&lt;br&gt;过滤器包含的条件" style="rounded=1;whiteSpace=wrap;html=1;" parent="1" vertex="1">
          <mxGeometry x="444" y="725" width="120" height="60" as="geometry" />
        </mxCell>
        <mxCell id="ULpd8eVqh-Z6ktrkAz9N-2" value="" style="edgeStyle=none;rounded=1;orthogonalLoop=1;jettySize=auto;html=1;fontColor=#7D7D7D;endArrow=classic;endFill=1;elbow=vertical;" parent="1" source="mlJFifyoLXbOTB2wiHOc-21" target="ULpd8eVqh-Z6ktrkAz9N-1" edge="1">
          <mxGeometry relative="1" as="geometry" />
        </mxCell>
        <mxCell id="mlJFifyoLXbOTB2wiHOc-21" value="将条件&lt;b&gt;并入&lt;/b&gt;&lt;br&gt;&amp;nbsp;filters&amp;nbsp;参数" style="rounded=1;whiteSpace=wrap;html=1;" parent="1" vertex="1">
          <mxGeometry x="444" y="845" width="120" height="60" as="geometry" />
        </mxCell>
        <mxCell id="mlJFifyoLXbOTB2wiHOc-26" value="" style="endArrow=none;dashed=1;html=1;dashPattern=1 3;strokeWidth=2;rounded=0;" parent="1" edge="1">
          <mxGeometry width="50" height="50" relative="1" as="geometry">
            <mxPoint y="40" as="sourcePoint" />
            <mxPoint y="960" as="targetPoint" />
          </mxGeometry>
        </mxCell>
        <mxCell id="N6ppyuez3uGlsQL3zOpG-1" value="输入参数结构：&lt;br&gt;filters&lt;br&gt;" style="rounded=1;whiteSpace=wrap;html=1;" parent="1" vertex="1">
          <mxGeometry x="444" y="165" width="120" height="60" as="geometry" />
        </mxCell>
        <mxCell id="N6ppyuez3uGlsQL3zOpG-5" value="N" style="edgeStyle=orthogonalEdgeStyle;rounded=0;orthogonalLoop=1;jettySize=auto;html=1;" parent="1" source="N6ppyuez3uGlsQL3zOpG-4" target="mlJFifyoLXbOTB2wiHOc-16" edge="1">
          <mxGeometry relative="1" as="geometry" />
        </mxCell>
        <mxCell id="N6ppyuez3uGlsQL3zOpG-6" value="Y" style="edgeStyle=orthogonalEdgeStyle;rounded=0;orthogonalLoop=1;jettySize=auto;html=1;" parent="1" source="N6ppyuez3uGlsQL3zOpG-4" target="N6ppyuez3uGlsQL3zOpG-7" edge="1">
          <mxGeometry relative="1" as="geometry">
            <mxPoint x="620" y="345" as="targetPoint" />
          </mxGeometry>
        </mxCell>
        <mxCell id="N6ppyuez3uGlsQL3zOpG-4" value="入参指定了&lt;br&gt;数据过滤器" style="rhombus;whiteSpace=wrap;html=1;" parent="1" vertex="1">
          <mxGeometry x="464" y="305" width="80" height="80" as="geometry" />
        </mxCell>
        <mxCell id="N6ppyuez3uGlsQL3zOpG-8" style="edgeStyle=orthogonalEdgeStyle;rounded=0;orthogonalLoop=1;jettySize=auto;html=1;" parent="1" source="N6ppyuez3uGlsQL3zOpG-7" target="mlJFifyoLXbOTB2wiHOc-19" edge="1">
          <mxGeometry relative="1" as="geometry">
            <Array as="points">
              <mxPoint x="690" y="625" />
            </Array>
          </mxGeometry>
        </mxCell>
        <mxCell id="N6ppyuez3uGlsQL3zOpG-7" value="查询指定的、本数据集的过滤器" style="rounded=1;whiteSpace=wrap;html=1;" parent="1" vertex="1">
          <mxGeometry x="630" y="465" width="120" height="60" as="geometry" />
        </mxCell>
        <mxCell id="N6ppyuez3uGlsQL3zOpG-9" value="字段A = &#39;歪比巴卜&#39;" style="rounded=1;whiteSpace=wrap;html=1;" parent="1" vertex="1">
          <mxGeometry x="640" y="725" width="120" height="60" as="geometry" />
        </mxCell>
        <mxCell id="Ryw16kLozPLSsz3OT3h3-1" style="edgeStyle=none;rounded=1;orthogonalLoop=1;jettySize=auto;html=1;fontColor=#7D7D7D;endArrow=classic;endFill=1;elbow=vertical;" parent="1" source="FM37fHvZYqH1aUMr60lx-1" target="bUAoBa3GdVi1kVnGbJqX-1" edge="1">
          <mxGeometry relative="1" as="geometry">
            <mxPoint x="-440" y="1000" as="targetPoint" />
          </mxGeometry>
        </mxCell>
        <mxCell id="FM37fHvZYqH1aUMr60lx-1" value="根据 columns&amp;nbsp;和 expressions&amp;nbsp;的列&lt;br&gt;&lt;br&gt;获得对应场景、组件" style="rounded=1;whiteSpace=wrap;html=1;" parent="1" vertex="1">
          <mxGeometry x="-500" y="845" width="120" height="65" as="geometry" />
        </mxCell>
        <mxCell id="FM37fHvZYqH1aUMr60lx-3" value="" style="endArrow=none;dashed=1;html=1;dashPattern=1 3;strokeWidth=2;rounded=0;" parent="1" edge="1">
          <mxGeometry width="50" height="50" relative="1" as="geometry">
            <mxPoint x="-800" y="810" as="sourcePoint" />
            <mxPoint x="20" y="810" as="targetPoint" />
          </mxGeometry>
        </mxCell>
        <mxCell id="FM37fHvZYqH1aUMr60lx-4" value="&amp;nbsp;数据获取型&amp;nbsp;&lt;br&gt;API" style="text;html=1;align=center;verticalAlign=middle;resizable=0;points=[];autosize=1;strokeColor=#6c8ebf;fillColor=#dae8fc;" parent="1" vertex="1">
          <mxGeometry width="90" height="40" as="geometry" />
        </mxCell>
        <mxCell id="FM37fHvZYqH1aUMr60lx-5" value="页面配置获取型&lt;br&gt;API" style="text;html=1;align=center;verticalAlign=middle;resizable=0;points=[];autosize=1;strokeColor=#82b366;fillColor=#d5e8d4;" parent="1" vertex="1">
          <mxGeometry x="-110" width="110" height="40" as="geometry" />
        </mxCell>
        <mxCell id="FM37fHvZYqH1aUMr60lx-8" style="edgeStyle=orthogonalEdgeStyle;rounded=0;orthogonalLoop=1;jettySize=auto;html=1;" parent="1" source="FM37fHvZYqH1aUMr60lx-9" target="FM37fHvZYqH1aUMr60lx-12" edge="1">
          <mxGeometry relative="1" as="geometry" />
        </mxCell>
        <mxCell id="FM37fHvZYqH1aUMr60lx-9" value="GET 127.0.0.1/a/b/c" style="text;html=1;align=center;verticalAlign=middle;resizable=0;points=[];autosize=1;strokeColor=none;fillColor=none;" parent="1" vertex="1">
          <mxGeometry x="-705" y="45" width="130" height="30" as="geometry" />
        </mxCell>
        <mxCell id="FM37fHvZYqH1aUMr60lx-10" value="" style="edgeStyle=orthogonalEdgeStyle;rounded=0;orthogonalLoop=1;jettySize=auto;html=1;" parent="1" source="FM37fHvZYqH1aUMr60lx-12" target="FM37fHvZYqH1aUMr60lx-13" edge="1">
          <mxGeometry relative="1" as="geometry" />
        </mxCell>
        <mxCell id="FM37fHvZYqH1aUMr60lx-12" value="输入路由" style="rounded=1;whiteSpace=wrap;html=1;" parent="1" vertex="1">
          <mxGeometry x="-500" y="30" width="120" height="60" as="geometry" />
        </mxCell>
        <mxCell id="FM37fHvZYqH1aUMr60lx-13" value="将&amp;nbsp;b&amp;nbsp;作为数据集标识&lt;br&gt;&lt;br&gt;查询数据集 b 的配置" style="rounded=1;whiteSpace=wrap;html=1;" parent="1" vertex="1">
          <mxGeometry x="-500" y="165" width="120" height="60" as="geometry" />
        </mxCell>
        <mxCell id="FM37fHvZYqH1aUMr60lx-15" value="" style="edgeStyle=orthogonalEdgeStyle;rounded=0;orthogonalLoop=1;jettySize=auto;html=1;" parent="1" source="FM37fHvZYqH1aUMr60lx-13" target="FM37fHvZYqH1aUMr60lx-16" edge="1">
          <mxGeometry relative="1" as="geometry">
            <mxPoint x="-453" y="290" as="sourcePoint" />
            <mxPoint x="-453" y="350" as="targetPoint" />
          </mxGeometry>
        </mxCell>
        <mxCell id="FM37fHvZYqH1aUMr60lx-29" style="edgeStyle=orthogonalEdgeStyle;rounded=0;orthogonalLoop=1;jettySize=auto;html=1;" parent="1" source="FM37fHvZYqH1aUMr60lx-16" target="FM37fHvZYqH1aUMr60lx-28" edge="1">
          <mxGeometry relative="1" as="geometry" />
        </mxCell>
        <mxCell id="FM37fHvZYqH1aUMr60lx-33" style="edgeStyle=orthogonalEdgeStyle;rounded=0;orthogonalLoop=1;jettySize=auto;html=1;" parent="1" source="FM37fHvZYqH1aUMr60lx-16" target="FM37fHvZYqH1aUMr60lx-32" edge="1">
          <mxGeometry relative="1" as="geometry" />
        </mxCell>
        <mxCell id="FM37fHvZYqH1aUMr60lx-16" value="数据集存在" style="rhombus;whiteSpace=wrap;html=1;" parent="1" vertex="1">
          <mxGeometry x="-480" y="305" width="80" height="80" as="geometry" />
        </mxCell>
        <mxCell id="FM37fHvZYqH1aUMr60lx-22" value="" style="edgeStyle=orthogonalEdgeStyle;rounded=0;orthogonalLoop=1;jettySize=auto;html=1;" parent="1" source="FM37fHvZYqH1aUMr60lx-16" target="FM37fHvZYqH1aUMr60lx-24" edge="1">
          <mxGeometry relative="1" as="geometry">
            <mxPoint x="-450" y="570" as="sourcePoint" />
          </mxGeometry>
        </mxCell>
        <mxCell id="FM37fHvZYqH1aUMr60lx-23" value="" style="edgeStyle=orthogonalEdgeStyle;rounded=0;orthogonalLoop=1;jettySize=auto;html=1;" parent="1" source="FM37fHvZYqH1aUMr60lx-24" target="FM37fHvZYqH1aUMr60lx-26" edge="1">
          <mxGeometry relative="1" as="geometry" />
        </mxCell>
        <mxCell id="FM37fHvZYqH1aUMr60lx-24" value="查询用户拥有的权限" style="rounded=1;whiteSpace=wrap;html=1;" parent="1" vertex="1">
          <mxGeometry x="-500" y="465" width="120" height="60" as="geometry" />
        </mxCell>
        <mxCell id="FM37fHvZYqH1aUMr60lx-25" value="" style="edgeStyle=orthogonalEdgeStyle;rounded=0;orthogonalLoop=1;jettySize=auto;html=1;" parent="1" source="FM37fHvZYqH1aUMr60lx-26" target="FM37fHvZYqH1aUMr60lx-27" edge="1">
          <mxGeometry relative="1" as="geometry" />
        </mxCell>
        <mxCell id="FM37fHvZYqH1aUMr60lx-26" value="查询的权限列组（并入无权限列组），里面包含列" style="rounded=1;whiteSpace=wrap;html=1;" parent="1" vertex="1">
          <mxGeometry x="-500" y="595" width="120" height="60" as="geometry" />
        </mxCell>
        <mxCell id="zBZHtEsudhTMscFiqPvZ-1" style="edgeStyle=orthogonalEdgeStyle;rounded=0;orthogonalLoop=1;jettySize=auto;html=1;" parent="1" source="FM37fHvZYqH1aUMr60lx-27" target="FM37fHvZYqH1aUMr60lx-1" edge="1">
          <mxGeometry relative="1" as="geometry" />
        </mxCell>
        <mxCell id="FM37fHvZYqH1aUMr60lx-27" value="将查到的列进行合并，存放至&amp;nbsp;columns" style="rounded=1;whiteSpace=wrap;html=1;" parent="1" vertex="1">
          <mxGeometry x="-500" y="725" width="120" height="60" as="geometry" />
        </mxCell>
        <mxCell id="FM37fHvZYqH1aUMr60lx-31" value="" style="edgeStyle=orthogonalEdgeStyle;rounded=0;orthogonalLoop=1;jettySize=auto;html=1;" parent="1" source="FM37fHvZYqH1aUMr60lx-28" target="FM37fHvZYqH1aUMr60lx-30" edge="1">
          <mxGeometry relative="1" as="geometry" />
        </mxCell>
        <mxCell id="FM37fHvZYqH1aUMr60lx-28" value="查询本数据集下&lt;br&gt;所有可能过滤器" style="rounded=1;whiteSpace=wrap;html=1;" parent="1" vertex="1">
          <mxGeometry x="-280" y="465" width="120" height="60" as="geometry" />
        </mxCell>
        <mxCell id="FM37fHvZYqH1aUMr60lx-30" value="将查到的过滤器&amp;nbsp;key 存放至&amp;nbsp;filters" style="rounded=1;whiteSpace=wrap;html=1;" parent="1" vertex="1">
          <mxGeometry x="-280" y="595" width="120" height="60" as="geometry" />
        </mxCell>
        <mxCell id="FM37fHvZYqH1aUMr60lx-36" value="" style="edgeStyle=orthogonalEdgeStyle;rounded=0;orthogonalLoop=1;jettySize=auto;html=1;" parent="1" source="FM37fHvZYqH1aUMr60lx-32" target="FM37fHvZYqH1aUMr60lx-34" edge="1">
          <mxGeometry relative="1" as="geometry" />
        </mxCell>
        <mxCell id="FM37fHvZYqH1aUMr60lx-32" value="查询本数据集下&lt;br&gt;所有筛选器的表达式" style="rounded=1;whiteSpace=wrap;html=1;" parent="1" vertex="1">
          <mxGeometry x="-720" y="465" width="120" height="60" as="geometry" />
        </mxCell>
        <mxCell id="FM37fHvZYqH1aUMr60lx-34" value="将查到的表达式存放至 expressions" style="rounded=1;whiteSpace=wrap;html=1;" parent="1" vertex="1">
          <mxGeometry x="-720" y="595" width="120" height="60" as="geometry" />
        </mxCell>
        <mxCell id="zBZHtEsudhTMscFiqPvZ-2" style="edgeStyle=orthogonalEdgeStyle;rounded=0;orthogonalLoop=1;jettySize=auto;html=1;" parent="1" source="FM37fHvZYqH1aUMr60lx-34" target="FM37fHvZYqH1aUMr60lx-1" edge="1">
          <mxGeometry relative="1" as="geometry">
            <Array as="points">
              <mxPoint x="-660" y="875" />
            </Array>
          </mxGeometry>
        </mxCell>
        <mxCell id="zBZHtEsudhTMscFiqPvZ-3" value="筛选器表达式的左侧(字段 /&amp;nbsp;关系字段)" style="edgeLabel;html=1;align=center;verticalAlign=middle;resizable=0;points=[];" parent="zBZHtEsudhTMscFiqPvZ-2" vertex="1" connectable="0">
          <mxGeometry x="-0.7265" y="2" relative="1" as="geometry">
            <mxPoint x="-2" y="48" as="offset" />
          </mxGeometry>
        </mxCell>
        <mxCell id="3m1UShN65bA3SPx70haz-1" value="字段 + [筛选器 +&amp;nbsp;场景]&lt;br&gt;&lt;br&gt;如何在前端显示" style="text;html=1;align=center;verticalAlign=middle;resizable=0;points=[];autosize=1;strokeColor=#b85450;fillColor=#f8cecc;" parent="1" vertex="1">
          <mxGeometry x="-70" y="110" width="140" height="60" as="geometry" />
        </mxCell>
        <mxCell id="3m1UShN65bA3SPx70haz-2" value="" style="endArrow=none;dashed=1;html=1;dashPattern=1 3;strokeWidth=2;rounded=0;" parent="1" edge="1">
          <mxGeometry width="50" height="50" relative="1" as="geometry">
            <mxPoint x="-20" y="940" as="sourcePoint" />
            <mxPoint x="820" y="940" as="targetPoint" />
          </mxGeometry>
        </mxCell>
        <mxCell id="Ryw16kLozPLSsz3OT3h3-2" style="edgeStyle=none;rounded=1;orthogonalLoop=1;jettySize=auto;html=1;fontColor=#7D7D7D;endArrow=classic;endFill=1;elbow=vertical;" parent="1" source="3m1UShN65bA3SPx70haz-3" edge="1">
          <mxGeometry relative="1" as="geometry">
            <mxPoint x="504" y="1130" as="targetPoint" />
          </mxGeometry>
        </mxCell>
        <mxCell id="3m1UShN65bA3SPx70haz-3" value="查询" style="rounded=1;whiteSpace=wrap;html=1;" parent="1" vertex="1">
          <mxGeometry x="444" y="970" width="120" height="60" as="geometry" />
        </mxCell>
        <mxCell id="eHv1wLLCtBPjaV0LYNTW-1" value="&lt;pre style=&quot;background-color:#ffffff;color:#080808;font-family:&#39;JetBrains Mono&#39;,monospace;font-size:9.8pt;&quot;&gt;&lt;h3 style=&quot;box-sizing: border-box; position: relative; margin-top: 1em; margin-bottom: 16px; line-height: 1; font-size: 1.3em; padding-top: 0.6em; font-family: Helvetica, Arial, freesans, sans-serif;&quot;&gt;数据集设定&lt;/h3&gt;&lt;h4 style=&quot;box-sizing: border-box; position: relative; margin-top: 1em; margin-bottom: 16px; line-height: 1.4; font-size: 14px; font-family: Helvetica, Arial, freesans, sans-serif;&quot;&gt;入参契约：客户端数据请求&lt;/h4&gt;&lt;p style=&quot;box-sizing: border-box; margin-top: 16px; margin-bottom: 16px; font-family: Helvetica, Arial, freesans, sans-serif; font-size: 14px;&quot;&gt;&lt;span style=&quot;box-sizing: border-box;&quot;&gt;一般情况下，客户端请求数据时，携带的参数结构应如下：&lt;/span&gt;&lt;/p&gt;&lt;p style=&quot;box-sizing: border-box; margin-top: 16px; margin-bottom: 16px; font-family: Helvetica, Arial, freesans, sans-serif; font-size: 14px;&quot;&gt;&lt;span style=&quot;box-sizing: border-box;&quot;&gt;关系&lt;/span&gt;&amp;nbsp;&lt;span style=&quot;box-sizing: border-box;&quot;&gt;filters&lt;/span&gt;&amp;nbsp;&lt;span style=&quot;box-sizing: border-box;&quot;&gt;如何展示&lt;/span&gt;&lt;/p&gt;&lt;pre style=&quot;box-sizing: border-box; margin-top: 16px; margin-bottom: 16px; font-variant-numeric: normal; font-variant-east-asian: normal; font-stretch: normal; font-size: 0.85em; line-height: 1.45; font-family: &amp;quot;JetBrains Mono&amp;quot;, Consolas, &amp;quot;Liberation Mono&amp;quot;, Menlo, Courier, monospace; padding: 16px; overflow: auto; border-radius: 3px; background-color: rgba(212, 222, 231, 0.247);&quot;&gt;&lt;code style=&quot;box-sizing: border-box; font-variant-numeric: normal; font-variant-east-asian: normal; font-stretch: normal; font-size: 11.9px; line-height: inherit; font-family: &amp;quot;JetBrains Mono&amp;quot;, Consolas, &amp;quot;Liberation Mono&amp;quot;, Menlo, Courier, monospace; padding: 0px; margin: 0px; border-radius: 3px; background: transparent; word-break: normal; border: 0px; display: inline; max-width: initial; overflow: initial; overflow-wrap: normal;&quot; class=&quot;language-json&quot;&gt;&lt;span style=&quot;box-sizing: border-box;&quot;&gt;&lt;/span&gt;&lt;span style=&quot;box-sizing: border-box;&quot;&gt;{&lt;/span&gt;&lt;br/&gt;&lt;span style=&quot;box-sizing: border-box;&quot;&gt;  &lt;span style=&quot;box-sizing: border-box; color: rgb(6, 125, 23);&quot;&gt;&quot;page&quot;&lt;/span&gt;: &lt;span style=&quot;box-sizing: border-box; color: rgb(23, 80, 235);&quot;&gt;1&lt;/span&gt;,&lt;/span&gt;&lt;br/&gt;&lt;span style=&quot;box-sizing: border-box;&quot;&gt;  &lt;span style=&quot;box-sizing: border-box; color: rgb(6, 125, 23);&quot;&gt;&quot;limit&quot;&lt;/span&gt;: &lt;span style=&quot;box-sizing: border-box; color: rgb(23, 80, 235);&quot;&gt;10&lt;/span&gt;,&lt;/span&gt;&lt;br/&gt;&lt;span style=&quot;box-sizing: border-box;&quot;&gt;  &lt;span style=&quot;box-sizing: border-box; color: rgb(6, 125, 23);&quot;&gt;&quot;data_filter&quot;&lt;/span&gt;: &lt;span style=&quot;box-sizing: border-box; color: rgb(6, 125, 23);&quot;&gt;&quot;a_filter_key&quot;&lt;/span&gt;,&lt;/span&gt;&lt;br/&gt;&lt;span style=&quot;box-sizing: border-box;&quot;&gt;  &lt;span style=&quot;box-sizing: border-box; color: rgb(6, 125, 23);&quot;&gt;&quot;filters&quot;&lt;/span&gt;: {&lt;/span&gt;&lt;br/&gt;&lt;span style=&quot;box-sizing: border-box;&quot;&gt;    &lt;span style=&quot;box-sizing: border-box; color: rgb(6, 125, 23);&quot;&gt;&quot;_in_name&quot;&lt;/span&gt;: [&lt;/span&gt;&lt;br/&gt;&lt;span style=&quot;box-sizing: border-box;&quot;&gt;      &lt;span style=&quot;box-sizing: border-box; color: rgb(6, 125, 23);&quot;&gt;&quot;abc&quot;&lt;/span&gt;,&lt;/span&gt;&lt;br/&gt;&lt;span style=&quot;box-sizing: border-box;&quot;&gt;      &lt;span style=&quot;box-sizing: border-box; color: rgb(6, 125, 23);&quot;&gt;&quot;cde&quot;&lt;/span&gt;&lt;/span&gt;&lt;br/&gt;&lt;span style=&quot;box-sizing: border-box;&quot;&gt;    ],&lt;/span&gt;&lt;br/&gt;&lt;span style=&quot;box-sizing: border-box;&quot;&gt;    &lt;span style=&quot;box-sizing: border-box; color: rgb(6, 125, 23);&quot;&gt;&quot;general_shop_type._in_id&quot;&lt;/span&gt;: [&lt;/span&gt;&lt;br/&gt;&lt;span style=&quot;box-sizing: border-box;&quot;&gt;      &lt;span style=&quot;box-sizing: border-box; color: rgb(23, 80, 235);&quot;&gt;1&lt;/span&gt;,&lt;/span&gt;&lt;br/&gt;&lt;span style=&quot;box-sizing: border-box;&quot;&gt;      &lt;span style=&quot;box-sizing: border-box; color: rgb(23, 80, 235);&quot;&gt;3&lt;/span&gt;,&lt;/span&gt;&lt;br/&gt;&lt;span style=&quot;box-sizing: border-box;&quot;&gt;      &lt;span style=&quot;box-sizing: border-box; color: rgb(23, 80, 235);&quot;&gt;6&lt;/span&gt;&lt;/span&gt;&lt;br/&gt;&lt;span style=&quot;box-sizing: border-box;&quot;&gt;    ]&lt;/span&gt;&lt;br/&gt;&lt;span style=&quot;box-sizing: border-box;&quot;&gt;  }&lt;/span&gt;&lt;br/&gt;&lt;span style=&quot;box-sizing: border-box;&quot;&gt;}&lt;/span&gt;&lt;br/&gt;&lt;span style=&quot;box-sizing: border-box;&quot;&gt;&lt;/span&gt;&lt;span style=&quot;box-sizing: border-box;&quot;&gt;&lt;/span&gt;&lt;/code&gt;&lt;/pre&gt;&lt;h4 style=&quot;box-sizing: border-box; position: relative; margin-top: 1em; margin-bottom: 16px; line-height: 1.4; font-size: 14px; font-family: Helvetica, Arial, freesans, sans-serif;&quot;&gt;入参契约：业务逻辑前阶段&lt;/h4&gt;&lt;p style=&quot;box-sizing: border-box; margin-top: 16px; margin-bottom: 16px; font-family: Helvetica, Arial, freesans, sans-serif; font-size: 14px;&quot;&gt;&lt;span style=&quot;box-sizing: border-box;&quot;&gt;一般情况下，业务逻辑阶段时的可靠参数结构，应如下：&lt;/span&gt;&lt;/p&gt;&lt;pre style=&quot;box-sizing: border-box; margin-top: 16px; margin-bottom: 16px; font-variant-numeric: normal; font-variant-east-asian: normal; font-stretch: normal; font-size: 0.85em; line-height: 1.45; font-family: &amp;quot;JetBrains Mono&amp;quot;, Consolas, &amp;quot;Liberation Mono&amp;quot;, Menlo, Courier, monospace; padding: 16px; overflow: auto; border-radius: 3px; background-color: rgba(212, 222, 231, 0.247);&quot;&gt;&lt;code style=&quot;box-sizing: border-box; font-variant-numeric: normal; font-variant-east-asian: normal; font-stretch: normal; font-size: 11.9px; line-height: inherit; font-family: &amp;quot;JetBrains Mono&amp;quot;, Consolas, &amp;quot;Liberation Mono&amp;quot;, Menlo, Courier, monospace; padding: 0px; margin: 0px; border-radius: 3px; background: transparent; word-break: normal; border: 0px; display: inline; max-width: initial; overflow: initial; overflow-wrap: normal;&quot; class=&quot;language-json&quot;&gt;&lt;span style=&quot;box-sizing: border-box;&quot;&gt;&lt;/span&gt;&lt;span style=&quot;box-sizing: border-box;&quot;&gt;{&lt;/span&gt;&lt;br/&gt;&lt;span style=&quot;box-sizing: border-box;&quot;&gt;  &lt;span style=&quot;box-sizing: border-box; color: rgb(6, 125, 23);&quot;&gt;&quot;page&quot;&lt;/span&gt;: &lt;span style=&quot;box-sizing: border-box; color: rgb(23, 80, 235);&quot;&gt;1&lt;/span&gt;,&lt;/span&gt;&lt;br/&gt;&lt;span style=&quot;box-sizing: border-box;&quot;&gt;  &lt;span style=&quot;box-sizing: border-box; color: rgb(6, 125, 23);&quot;&gt;&quot;limit&quot;&lt;/span&gt;: &lt;span style=&quot;box-sizing: border-box; color: rgb(23, 80, 235);&quot;&gt;10&lt;/span&gt;,&lt;/span&gt;&lt;br/&gt;&lt;span style=&quot;box-sizing: border-box;&quot;&gt;  &lt;span style=&quot;box-sizing: border-box; color: rgb(6, 125, 23);&quot;&gt;&quot;filters&quot;&lt;/span&gt;: {&lt;/span&gt;&lt;br/&gt;&lt;span style=&quot;box-sizing: border-box;&quot;&gt;    &lt;span style=&quot;box-sizing: border-box; color: rgb(6, 125, 23);&quot;&gt;&quot;_in_name&quot;&lt;/span&gt;: [&lt;/span&gt;&lt;br/&gt;&lt;span style=&quot;box-sizing: border-box;&quot;&gt;      &lt;span style=&quot;box-sizing: border-box; color: rgb(6, 125, 23);&quot;&gt;&quot;abc&quot;&lt;/span&gt;,&lt;/span&gt;&lt;br/&gt;&lt;span style=&quot;box-sizing: border-box;&quot;&gt;      &lt;span style=&quot;box-sizing: border-box; color: rgb(6, 125, 23);&quot;&gt;&quot;cde&quot;&lt;/span&gt;&lt;/span&gt;&lt;br/&gt;&lt;span style=&quot;box-sizing: border-box;&quot;&gt;    ],&lt;/span&gt;&lt;br/&gt;&lt;span style=&quot;box-sizing: border-box;&quot;&gt;    &lt;span style=&quot;box-sizing: border-box; color: rgb(6, 125, 23);&quot;&gt;&quot;_gt_age&quot;&lt;/span&gt;: &lt;span style=&quot;box-sizing: border-box; color: rgb(6, 125, 23);&quot;&gt;&quot;52&quot;&lt;/span&gt;,&lt;/span&gt;&lt;br/&gt;&lt;span style=&quot;box-sizing: border-box;&quot;&gt;    &lt;span style=&quot;box-sizing: border-box; color: rgb(6, 125, 23);&quot;&gt;&quot;general_shop_type._in_id&quot;&lt;/span&gt;: [&lt;/span&gt;&lt;br/&gt;&lt;span style=&quot;box-sizing: border-box;&quot;&gt;      &lt;span style=&quot;box-sizing: border-box; color: rgb(23, 80, 235);&quot;&gt;1&lt;/span&gt;,&lt;/span&gt;&lt;br/&gt;&lt;span style=&quot;box-sizing: border-box;&quot;&gt;      &lt;span style=&quot;box-sizing: border-box; color: rgb(23, 80, 235);&quot;&gt;3&lt;/span&gt;,&lt;/span&gt;&lt;br/&gt;&lt;span style=&quot;box-sizing: border-box;&quot;&gt;      &lt;span style=&quot;box-sizing: border-box; color: rgb(23, 80, 235);&quot;&gt;6&lt;/span&gt;&lt;/span&gt;&lt;br/&gt;&lt;span style=&quot;box-sizing: border-box;&quot;&gt;    ]&lt;/span&gt;&lt;br/&gt;&lt;span style=&quot;box-sizing: border-box;&quot;&gt;  },&lt;/span&gt;&lt;br/&gt;&lt;span style=&quot;box-sizing: border-box;&quot;&gt;  &lt;span style=&quot;box-sizing: border-box; color: rgb(6, 125, 23);&quot;&gt;&quot;columns&quot;&lt;/span&gt;: [&lt;/span&gt;&lt;br/&gt;&lt;span style=&quot;box-sizing: border-box;&quot;&gt;    &lt;span style=&quot;box-sizing: border-box; color: rgb(6, 125, 23);&quot;&gt;&quot;id&quot;&lt;/span&gt;,&lt;/span&gt;&lt;br/&gt;&lt;span style=&quot;box-sizing: border-box;&quot;&gt;    &lt;span style=&quot;box-sizing: border-box; color: rgb(6, 125, 23);&quot;&gt;&quot;name&quot;&lt;/span&gt;,&lt;/span&gt;&lt;br/&gt;&lt;span style=&quot;box-sizing: border-box;&quot;&gt;    &lt;span style=&quot;box-sizing: border-box; color: rgb(6, 125, 23);&quot;&gt;&quot;age&quot;&lt;/span&gt;&lt;/span&gt;&lt;br/&gt;&lt;span style=&quot;box-sizing: border-box;&quot;&gt;  ],&lt;/span&gt;&lt;br/&gt;&lt;span style=&quot;box-sizing: border-box;&quot;&gt;  &lt;span style=&quot;box-sizing: border-box; color: rgb(6, 125, 23);&quot;&gt;&quot;relations&quot;&lt;/span&gt;: {&lt;/span&gt;&lt;br/&gt;&lt;span style=&quot;box-sizing: border-box;&quot;&gt;    &lt;span style=&quot;box-sizing: border-box; color: rgb(6, 125, 23);&quot;&gt;&quot;a_relation_name&quot;&lt;/span&gt;: {&lt;/span&gt;&lt;br/&gt;&lt;span style=&quot;box-sizing: border-box;&quot;&gt;      &lt;span style=&quot;box-sizing: border-box; color: rgb(6, 125, 23);&quot;&gt;&quot;columns&quot;&lt;/span&gt;: [&lt;/span&gt;&lt;br/&gt;&lt;span style=&quot;box-sizing: border-box;&quot;&gt;        &lt;span style=&quot;box-sizing: border-box; color: rgb(6, 125, 23);&quot;&gt;&quot;id&quot;&lt;/span&gt;,&lt;/span&gt;&lt;br/&gt;&lt;span style=&quot;box-sizing: border-box;&quot;&gt;        &lt;span style=&quot;box-sizing: border-box; color: rgb(6, 125, 23);&quot;&gt;&quot;key&quot;&lt;/span&gt;,&lt;/span&gt;&lt;br/&gt;&lt;span style=&quot;box-sizing: border-box;&quot;&gt;        &lt;span style=&quot;box-sizing: border-box; color: rgb(6, 125, 23);&quot;&gt;&quot;position&quot;&lt;/span&gt;&lt;/span&gt;&lt;br/&gt;&lt;span style=&quot;box-sizing: border-box;&quot;&gt;      ]&lt;/span&gt;&lt;br/&gt;&lt;span style=&quot;box-sizing: border-box;&quot;&gt;    }&lt;/span&gt;&lt;br/&gt;&lt;span style=&quot;box-sizing: border-box;&quot;&gt;  }&lt;/span&gt;&lt;br/&gt;&lt;span style=&quot;box-sizing: border-box;&quot;&gt;}&lt;/span&gt;&lt;/code&gt;&lt;/pre&gt;&lt;/pre&gt;" style="text;html=1;align=left;verticalAlign=middle;resizable=0;points=[];autosize=1;strokeColor=none;fillColor=none;" parent="1" vertex="1">
          <mxGeometry x="851" y="14" width="390" height="1140" as="geometry" />
        </mxCell>
        <mxCell id="SO6dIJi-9mVPolYtssUd-3" style="edgeStyle=orthogonalEdgeStyle;curved=1;rounded=0;orthogonalLoop=1;jettySize=auto;html=1;elbow=vertical;" parent="1" source="ULpd8eVqh-Z6ktrkAz9N-1" target="SO6dIJi-9mVPolYtssUd-2" edge="1">
          <mxGeometry relative="1" as="geometry">
            <Array as="points">
              <mxPoint x="700" y="810" />
              <mxPoint x="800" y="810" />
            </Array>
          </mxGeometry>
        </mxCell>
        <mxCell id="ULpd8eVqh-Z6ktrkAz9N-1" value="将表达式包含的筛选集，转化为实际值" style="rounded=1;whiteSpace=wrap;html=1;" parent="1" vertex="1">
          <mxGeometry x="640" y="845" width="120" height="60" as="geometry" />
        </mxCell>
        <mxCell id="yO7LD2wKpUjxJXzWC4XE-4" value="查询用户拥有的权限" style="rounded=1;whiteSpace=wrap;html=1;" parent="1" vertex="1">
          <mxGeometry x="-280" y="360" width="120" height="60" as="geometry" />
        </mxCell>
        <mxCell id="SO6dIJi-9mVPolYtssUd-2" value="__SELF__ =&amp;gt; 40284274" style="text;html=1;align=center;verticalAlign=middle;resizable=0;points=[];autosize=1;strokeColor=none;fillColor=none;" parent="1" vertex="1">
          <mxGeometry x="655" y="655" width="150" height="30" as="geometry" />
        </mxCell>
        <mxCell id="bUAoBa3GdVi1kVnGbJqX-1" value="TBD：Flex&amp;nbsp;的配置" style="rounded=1;whiteSpace=wrap;html=1;" parent="1" vertex="1">
          <mxGeometry x="-500" y="970" width="120" height="65" as="geometry" />
        </mxCell>
      </root>
    </mxGraphModel>
  </diagram>
  <diagram id="8oMn0SllhHtpl3eY3vOa" name="Dataset Struct">
    <mxGraphModel dx="3088" dy="3102" grid="1" gridSize="10" guides="1" tooltips="1" connect="1" arrows="1" fold="1" page="1" pageScale="1" pageWidth="827" pageHeight="1169" math="0" shadow="0">
      <root>
        <mxCell id="0" />
        <mxCell id="1" parent="0" />
        <mxCell id="RhrxDOxuOEy5grWWZuEy-2" value="&lt;font color=&quot;#545454&quot;&gt;&lt;br&gt;&lt;br&gt;&lt;br&gt;&lt;br&gt;&lt;br&gt;&lt;br&gt;&lt;br&gt;&lt;br&gt;&lt;br&gt;&lt;br&gt;&lt;br&gt;&lt;br&gt;&lt;br&gt;&lt;br&gt;&lt;br&gt;&lt;br&gt;&lt;br&gt;&lt;br&gt;&lt;br&gt;&lt;br&gt;数据集 &amp;nbsp; &amp;nbsp; &amp;nbsp; &amp;nbsp; &amp;nbsp; &amp;nbsp;&lt;/font&gt;" style="rounded=0;whiteSpace=wrap;html=1;align=right;fillColor=#f9f7ed;strokeColor=#36393d;" parent="1" vertex="1">
          <mxGeometry x="-180" y="-870.99" width="780" height="355" as="geometry" />
        </mxCell>
        <mxCell id="RhrxDOxuOEy5grWWZuEy-1" value="&lt;font color=&quot;#545454&quot;&gt;&lt;br&gt;&lt;br&gt;&lt;br&gt;&lt;br&gt;&lt;br&gt;&lt;br&gt;设计单据 &amp;nbsp; &amp;nbsp; &amp;nbsp; &amp;nbsp; &amp;nbsp; &amp;nbsp;&lt;/font&gt;" style="rounded=0;whiteSpace=wrap;html=1;align=right;fillColor=#f9f7ed;strokeColor=#36393d;" parent="1" vertex="1">
          <mxGeometry x="-783.5" y="-862" width="370" height="120" as="geometry" />
        </mxCell>
        <mxCell id="Ile-l4LaZv9kSj4C5DUR-30" value="&lt;font color=&quot;#545454&quot;&gt;&lt;br&gt;&lt;br&gt;&lt;br&gt;&lt;/font&gt;&lt;br style=&quot;color: rgb(84, 84, 84);&quot;&gt;&lt;br style=&quot;color: rgb(84, 84, 84);&quot;&gt;&lt;br style=&quot;color: rgb(84, 84, 84);&quot;&gt;&lt;br style=&quot;color: rgb(84, 84, 84);&quot;&gt;&lt;br style=&quot;color: rgb(84, 84, 84);&quot;&gt;&lt;br style=&quot;color: rgb(84, 84, 84);&quot;&gt;&lt;font color=&quot;#545454&quot;&gt;&amp;nbsp;&lt;br&gt;&lt;br&gt;&lt;br&gt;&lt;br&gt;&lt;br&gt;&lt;br&gt;&lt;br&gt;&lt;br&gt;&lt;br&gt;数据库&amp;nbsp; &amp;nbsp; &amp;nbsp; &amp;nbsp; &amp;nbsp; &amp;nbsp;&amp;nbsp;&lt;/font&gt;" style="rounded=0;whiteSpace=wrap;html=1;align=right;fillColor=#f9f7ed;strokeColor=#36393d;" parent="1" vertex="1">
          <mxGeometry x="-783.5" y="-1470" width="650" height="340" as="geometry" />
        </mxCell>
        <mxCell id="g7WgoeSPnEtAHEtF1oot-6" value="1:N" style="edgeStyle=orthogonalEdgeStyle;rounded=0;orthogonalLoop=1;jettySize=auto;html=1;endArrow=none;endFill=0;curved=1;" parent="1" source="g7WgoeSPnEtAHEtF1oot-2" target="g7WgoeSPnEtAHEtF1oot-3" edge="1">
          <mxGeometry relative="1" as="geometry" />
        </mxCell>
        <mxCell id="Ile-l4LaZv9kSj4C5DUR-3" value="N:1" style="edgeStyle=orthogonalEdgeStyle;rounded=0;orthogonalLoop=1;jettySize=auto;html=1;endArrow=none;endFill=0;curved=1;" parent="1" source="g7WgoeSPnEtAHEtF1oot-2" target="Ile-l4LaZv9kSj4C5DUR-2" edge="1">
          <mxGeometry x="0.5556" relative="1" as="geometry">
            <mxPoint as="offset" />
          </mxGeometry>
        </mxCell>
        <mxCell id="GYo8oNMYAvzBaTphCgcc-2" value="N:1" style="edgeStyle=entityRelationEdgeStyle;rounded=0;orthogonalLoop=1;jettySize=auto;html=1;endArrow=none;endFill=0;" parent="1" source="g7WgoeSPnEtAHEtF1oot-2" target="GYo8oNMYAvzBaTphCgcc-1" edge="1">
          <mxGeometry relative="1" as="geometry" />
        </mxCell>
        <mxCell id="g7WgoeSPnEtAHEtF1oot-2" value="&lt;div&gt;一个数据集&lt;/div&gt;" style="rounded=1;whiteSpace=wrap;html=1;fillColor=#f8cecc;strokeColor=#b85450;" parent="1" vertex="1">
          <mxGeometry x="250" y="-845.99" width="120" height="60" as="geometry" />
        </mxCell>
        <mxCell id="g7WgoeSPnEtAHEtF1oot-8" value="1:N" style="edgeStyle=orthogonalEdgeStyle;rounded=0;orthogonalLoop=1;jettySize=auto;html=1;endArrow=none;endFill=0;curved=1;" parent="1" source="g7WgoeSPnEtAHEtF1oot-3" target="g7WgoeSPnEtAHEtF1oot-7" edge="1">
          <mxGeometry relative="1" as="geometry" />
        </mxCell>
        <mxCell id="g7WgoeSPnEtAHEtF1oot-3" value="&lt;div&gt;一个数据过滤器&lt;/div&gt;" style="rounded=1;whiteSpace=wrap;html=1;" parent="1" vertex="1">
          <mxGeometry x="250" y="-705.99" width="120" height="60" as="geometry" />
        </mxCell>
        <mxCell id="g7WgoeSPnEtAHEtF1oot-7" value="一条表达式" style="rounded=1;whiteSpace=wrap;html=1;" parent="1" vertex="1">
          <mxGeometry x="250" y="-585.99" width="120" height="60" as="geometry" />
        </mxCell>
        <mxCell id="g7WgoeSPnEtAHEtF1oot-13" value="1:N" style="edgeStyle=orthogonalEdgeStyle;rounded=0;orthogonalLoop=1;jettySize=auto;html=1;endArrow=none;endFill=0;curved=1;" parent="1" source="g7WgoeSPnEtAHEtF1oot-12" target="g7WgoeSPnEtAHEtF1oot-3" edge="1">
          <mxGeometry relative="1" as="geometry" />
        </mxCell>
        <mxCell id="Be7AkRinNH-pqadpbQCr-22" value="1:N" style="edgeStyle=orthogonalEdgeStyle;rounded=0;orthogonalLoop=1;jettySize=auto;html=1;elbow=vertical;curved=1;" parent="1" source="g7WgoeSPnEtAHEtF1oot-12" target="Ile-l4LaZv9kSj4C5DUR-2" edge="1">
          <mxGeometry x="-0.6" relative="1" as="geometry">
            <Array as="points">
              <mxPoint x="520" y="-875.99" />
              <mxPoint x="100" y="-875.99" />
            </Array>
            <mxPoint as="offset" />
          </mxGeometry>
        </mxCell>
        <mxCell id="g7WgoeSPnEtAHEtF1oot-12" value="一条权限&lt;br&gt;（或无需权限）" style="rounded=1;whiteSpace=wrap;html=1;" parent="1" vertex="1">
          <mxGeometry x="460" y="-705.99" width="120" height="60" as="geometry" />
        </mxCell>
        <mxCell id="Ile-l4LaZv9kSj4C5DUR-6" value="N:1" style="edgeStyle=orthogonalEdgeStyle;rounded=0;orthogonalLoop=1;jettySize=auto;html=1;endArrow=none;endFill=0;curved=1;" parent="1" source="Ile-l4LaZv9kSj4C5DUR-2" target="Ile-l4LaZv9kSj4C5DUR-5" edge="1">
          <mxGeometry relative="1" as="geometry" />
        </mxCell>
        <mxCell id="Ile-l4LaZv9kSj4C5DUR-2" value="&lt;div&gt;一个列组&lt;/div&gt;" style="rounded=1;whiteSpace=wrap;html=1;" parent="1" vertex="1">
          <mxGeometry x="40" y="-845.99" width="120" height="60" as="geometry" />
        </mxCell>
        <mxCell id="Ile-l4LaZv9kSj4C5DUR-10" value="1:1" style="edgeStyle=orthogonalEdgeStyle;rounded=0;orthogonalLoop=1;jettySize=auto;html=1;endArrow=none;endFill=0;curved=1;" parent="1" source="Ile-l4LaZv9kSj4C5DUR-5" target="Ile-l4LaZv9kSj4C5DUR-9" edge="1">
          <mxGeometry relative="1" as="geometry" />
        </mxCell>
        <mxCell id="Ile-l4LaZv9kSj4C5DUR-5" value="一个列" style="whiteSpace=wrap;html=1;rounded=1;" parent="1" vertex="1">
          <mxGeometry x="-160" y="-845.99" width="120" height="60" as="geometry" />
        </mxCell>
        <mxCell id="Ile-l4LaZv9kSj4C5DUR-12" value="1:N" style="edgeStyle=orthogonalEdgeStyle;rounded=0;orthogonalLoop=1;jettySize=auto;html=1;endArrow=none;endFill=0;curved=1;" parent="1" source="Ile-l4LaZv9kSj4C5DUR-9" target="Ile-l4LaZv9kSj4C5DUR-11" edge="1">
          <mxGeometry relative="1" as="geometry" />
        </mxCell>
        <mxCell id="gvnvkSaayp7G0_kpARvG-4" value="1:1" style="edgeStyle=orthogonalEdgeStyle;curved=1;rounded=1;orthogonalLoop=1;jettySize=auto;html=1;endArrow=none;endFill=0;" parent="1" source="Ile-l4LaZv9kSj4C5DUR-9" target="gvnvkSaayp7G0_kpARvG-1" edge="1">
          <mxGeometry relative="1" as="geometry" />
        </mxCell>
        <mxCell id="Alx0HKuqFwnBBDqGttug-4" value="1:1" style="rounded=0;orthogonalLoop=1;jettySize=auto;html=1;" parent="1" source="Ile-l4LaZv9kSj4C5DUR-9" target="Alx0HKuqFwnBBDqGttug-2" edge="1">
          <mxGeometry relative="1" as="geometry" />
        </mxCell>
        <mxCell id="Ile-l4LaZv9kSj4C5DUR-9" value="一个设计单据字段" style="whiteSpace=wrap;html=1;rounded=1;" parent="1" vertex="1">
          <mxGeometry x="-553.5" y="-842" width="120" height="60" as="geometry" />
        </mxCell>
        <mxCell id="Ile-l4LaZv9kSj4C5DUR-16" value="1:1" style="edgeStyle=orthogonalEdgeStyle;rounded=0;orthogonalLoop=1;jettySize=auto;html=1;endArrow=none;endFill=0;curved=1;" parent="1" source="Ile-l4LaZv9kSj4C5DUR-11" target="Ile-l4LaZv9kSj4C5DUR-15" edge="1">
          <mxGeometry relative="1" as="geometry" />
        </mxCell>
        <mxCell id="Ile-l4LaZv9kSj4C5DUR-11" value="一个设计单据" style="whiteSpace=wrap;html=1;rounded=1;" parent="1" vertex="1">
          <mxGeometry x="-773.5" y="-842" width="120" height="60" as="geometry" />
        </mxCell>
        <mxCell id="Ile-l4LaZv9kSj4C5DUR-15" value="一张数据库里的表" style="whiteSpace=wrap;html=1;rounded=1;" parent="1" vertex="1">
          <mxGeometry x="-773.5" y="-1200" width="120" height="60" as="geometry" />
        </mxCell>
        <mxCell id="Ile-l4LaZv9kSj4C5DUR-18" value="" style="edgeStyle=orthogonalEdgeStyle;rounded=0;orthogonalLoop=1;jettySize=auto;html=1;endArrow=none;endFill=0;curved=1;" parent="1" source="Ile-l4LaZv9kSj4C5DUR-17" target="Ile-l4LaZv9kSj4C5DUR-15" edge="1">
          <mxGeometry relative="1" as="geometry" />
        </mxCell>
        <mxCell id="Ile-l4LaZv9kSj4C5DUR-19" value="1:1" style="edgeStyle=orthogonalEdgeStyle;rounded=0;orthogonalLoop=1;jettySize=auto;html=1;endArrow=none;endFill=0;curved=1;" parent="1" source="Ile-l4LaZv9kSj4C5DUR-17" target="Ile-l4LaZv9kSj4C5DUR-9" edge="1">
          <mxGeometry relative="1" as="geometry" />
        </mxCell>
        <mxCell id="Ile-l4LaZv9kSj4C5DUR-17" value="一个数据表里的字段" style="whiteSpace=wrap;html=1;rounded=1;" parent="1" vertex="1">
          <mxGeometry x="-553.5" y="-1200" width="120" height="60" as="geometry" />
        </mxCell>
        <mxCell id="Ile-l4LaZv9kSj4C5DUR-25" value="" style="edgeStyle=orthogonalEdgeStyle;curved=1;rounded=0;orthogonalLoop=1;jettySize=auto;html=1;endArrow=none;endFill=0;" parent="1" source="Ile-l4LaZv9kSj4C5DUR-24" target="Ile-l4LaZv9kSj4C5DUR-17" edge="1">
          <mxGeometry relative="1" as="geometry" />
        </mxCell>
        <mxCell id="Ile-l4LaZv9kSj4C5DUR-27" value="" style="edgeStyle=orthogonalEdgeStyle;curved=1;rounded=0;orthogonalLoop=1;jettySize=auto;html=1;endArrow=none;endFill=0;" parent="1" source="Ile-l4LaZv9kSj4C5DUR-24" target="Ile-l4LaZv9kSj4C5DUR-28" edge="1">
          <mxGeometry relative="1" as="geometry">
            <mxPoint x="-353.5" y="-1300" as="targetPoint" />
          </mxGeometry>
        </mxCell>
        <mxCell id="Ile-l4LaZv9kSj4C5DUR-24" value="一数据库字段的信息&lt;br&gt;&lt;br&gt;默认值、是否必填等" style="whiteSpace=wrap;html=1;rounded=1;" parent="1" vertex="1">
          <mxGeometry x="-553.5" y="-1320" width="120" height="60" as="geometry" />
        </mxCell>
        <mxCell id="Ile-l4LaZv9kSj4C5DUR-28" value="F2E 备注：&lt;br&gt;数据库概念完全等同于 IndexedDB&lt;br&gt;（若不熟悉，请参见&amp;nbsp;MDN&amp;nbsp;相关文档）" style="text;html=1;align=center;verticalAlign=middle;resizable=0;points=[];autosize=1;strokeColor=none;fillColor=none;" parent="1" vertex="1">
          <mxGeometry x="-363.5" y="-1320" width="230" height="60" as="geometry" />
        </mxCell>
        <mxCell id="OTIpsfMuhGmij9xbmQGy-15" value="&lt;span style=&quot;&quot;&gt;&lt;font color=&quot;#636363&quot;&gt;&lt;br&gt;业&lt;/font&gt;&lt;/span&gt;&lt;span style=&quot;color: rgb(99, 99, 99);&quot;&gt;务类型具备默认的筛选器&lt;/span&gt;&lt;span style=&quot;&quot;&gt;&lt;font color=&quot;#636363&quot;&gt;&lt;br&gt;&lt;/font&gt;&lt;/span&gt;&lt;span style=&quot;&quot;&gt;&lt;font color=&quot;#636363&quot;&gt;&lt;br&gt;&lt;br&gt;&lt;br&gt;&lt;br&gt;&lt;br&gt;&lt;br&gt;&lt;br&gt;&lt;br&gt;&lt;br&gt;&lt;br&gt;&lt;br&gt;&lt;br&gt;&lt;br&gt;&lt;br&gt;&lt;br&gt;&lt;br&gt;&lt;br&gt;&lt;br&gt;&lt;br&gt;&lt;br&gt;&lt;br&gt;&lt;/font&gt;&lt;br&gt;&lt;/span&gt;" style="rounded=0;whiteSpace=wrap;html=1;align=right;" parent="1" vertex="1">
          <mxGeometry x="323" y="-1859.0100000000002" width="394" height="330" as="geometry" />
        </mxCell>
        <mxCell id="OTIpsfMuhGmij9xbmQGy-13" value="" style="edgeStyle=orthogonalEdgeStyle;rounded=0;orthogonalLoop=1;jettySize=auto;html=1;curved=1;" parent="1" source="OTIpsfMuhGmij9xbmQGy-12" target="OTIpsfMuhGmij9xbmQGy-1" edge="1">
          <mxGeometry relative="1" as="geometry" />
        </mxCell>
        <mxCell id="OTIpsfMuhGmij9xbmQGy-12" value="&lt;div&gt;一个业务类型&lt;/div&gt;" style="rounded=1;whiteSpace=wrap;html=1;" parent="1" vertex="1">
          <mxGeometry x="347" y="-1834.0100000000002" width="120" height="60" as="geometry" />
        </mxCell>
        <mxCell id="OTIpsfMuhGmij9xbmQGy-1" value="&lt;div&gt;业务类型&lt;/div&gt;&lt;div&gt;可用的操作符&lt;/div&gt;" style="rounded=1;whiteSpace=wrap;html=1;" parent="1" vertex="1">
          <mxGeometry x="347" y="-1654.0100000000002" width="120" height="60" as="geometry" />
        </mxCell>
        <mxCell id="5VE0-21BW6HlO0TTYoIc-4" style="edgeStyle=orthogonalEdgeStyle;rounded=0;orthogonalLoop=1;jettySize=auto;html=1;" parent="1" source="5VE0-21BW6HlO0TTYoIc-1" target="5VE0-21BW6HlO0TTYoIc-3" edge="1">
          <mxGeometry relative="1" as="geometry" />
        </mxCell>
        <mxCell id="5VE0-21BW6HlO0TTYoIc-1" value="&lt;div&gt;一个场景&lt;/div&gt;&lt;div&gt;(筛选)&lt;/div&gt;" style="rounded=1;whiteSpace=wrap;html=1;" parent="1" vertex="1">
          <mxGeometry x="547" y="-1729.0100000000002" width="120" height="60" as="geometry" />
        </mxCell>
        <mxCell id="5VE0-21BW6HlO0TTYoIc-2" value="关系表 - 默认" style="edgeStyle=orthogonalEdgeStyle;rounded=0;orthogonalLoop=1;jettySize=auto;html=1;curved=1;" parent="1" source="OTIpsfMuhGmij9xbmQGy-12" target="5VE0-21BW6HlO0TTYoIc-1" edge="1">
          <mxGeometry x="-0.1069" y="-14" relative="1" as="geometry">
            <mxPoint x="417" y="-1764.0100000000002" as="sourcePoint" />
            <mxPoint x="417" y="-1644.0100000000002" as="targetPoint" />
            <mxPoint as="offset" />
          </mxGeometry>
        </mxCell>
        <mxCell id="5VE0-21BW6HlO0TTYoIc-3" value="一个组件" style="rounded=1;whiteSpace=wrap;html=1;" parent="1" vertex="1">
          <mxGeometry x="547" y="-1603.0100000000002" width="120" height="60" as="geometry" />
        </mxCell>
        <mxCell id="5VE0-21BW6HlO0TTYoIc-5" value="" style="endArrow=none;dashed=1;html=1;dashPattern=1 3;strokeWidth=2;rounded=0;entryX=0.45;entryY=-0.003;entryDx=0;entryDy=0;exitX=0.453;exitY=1.006;exitDx=0;exitDy=0;entryPerimeter=0;exitPerimeter=0;" parent="1" source="OTIpsfMuhGmij9xbmQGy-15" target="OTIpsfMuhGmij9xbmQGy-15" edge="1">
          <mxGeometry width="50" height="50" relative="1" as="geometry">
            <mxPoint x="507" y="-1319.01" as="sourcePoint" />
            <mxPoint x="797" y="-1509.01" as="targetPoint" />
          </mxGeometry>
        </mxCell>
        <mxCell id="RNaG8jqsxYrYeXH6zwjB-2" style="edgeStyle=entityRelationEdgeStyle;rounded=0;orthogonalLoop=1;jettySize=auto;html=1;endArrow=none;endFill=0;" parent="1" source="RNaG8jqsxYrYeXH6zwjB-1" target="Ile-l4LaZv9kSj4C5DUR-9" edge="1">
          <mxGeometry relative="1" as="geometry" />
        </mxCell>
        <mxCell id="RNaG8jqsxYrYeXH6zwjB-3" style="edgeStyle=entityRelationEdgeStyle;rounded=0;orthogonalLoop=1;jettySize=auto;html=1;endArrow=none;endFill=0;" parent="1" source="RNaG8jqsxYrYeXH6zwjB-1" target="g7WgoeSPnEtAHEtF1oot-7" edge="1">
          <mxGeometry relative="1" as="geometry" />
        </mxCell>
        <mxCell id="RNaG8jqsxYrYeXH6zwjB-1" value="举个栗子：&lt;br&gt;&lt;br&gt;字段A = &#39;歪比巴卜&#39;" style="rounded=1;whiteSpace=wrap;html=1;" parent="1" vertex="1">
          <mxGeometry x="-90" y="-585.99" width="120" height="60" as="geometry" />
        </mxCell>
        <mxCell id="ifBN68d82MfszLBfsSgo-2" value="1:1" style="edgeStyle=entityRelationEdgeStyle;rounded=0;orthogonalLoop=1;jettySize=auto;html=1;endArrow=none;endFill=0;" parent="1" source="GYo8oNMYAvzBaTphCgcc-1" target="ifBN68d82MfszLBfsSgo-1" edge="1">
          <mxGeometry relative="1" as="geometry" />
        </mxCell>
        <mxCell id="GYo8oNMYAvzBaTphCgcc-1" value="一个筛选器" style="rounded=1;whiteSpace=wrap;html=1;" parent="1" vertex="1">
          <mxGeometry x="40" y="-705.99" width="120" height="60" as="geometry" />
        </mxCell>
        <mxCell id="GYo8oNMYAvzBaTphCgcc-9" value="&lt;b&gt;N&lt;/b&gt;" style="text;html=1;align=center;verticalAlign=middle;resizable=0;points=[];autosize=1;strokeColor=none;fillColor=none;" parent="1" vertex="1">
          <mxGeometry x="340" y="-845.99" width="30" height="30" as="geometry" />
        </mxCell>
        <mxCell id="GYo8oNMYAvzBaTphCgcc-12" value="&lt;b&gt;N&lt;/b&gt;" style="text;html=1;align=center;verticalAlign=middle;resizable=0;points=[];autosize=1;strokeColor=none;fillColor=none;" parent="1" vertex="1">
          <mxGeometry x="437" y="-1654.0100000000002" width="30" height="30" as="geometry" />
        </mxCell>
        <mxCell id="GYo8oNMYAvzBaTphCgcc-13" value="&lt;b&gt;1&lt;/b&gt;" style="text;html=1;align=center;verticalAlign=middle;resizable=0;points=[];autosize=1;strokeColor=none;fillColor=none;" parent="1" vertex="1">
          <mxGeometry x="637" y="-1729.0100000000002" width="30" height="30" as="geometry" />
        </mxCell>
        <mxCell id="GYo8oNMYAvzBaTphCgcc-14" value="&lt;b&gt;1&lt;/b&gt;" style="text;html=1;align=center;verticalAlign=middle;resizable=0;points=[];autosize=1;strokeColor=none;fillColor=none;" parent="1" vertex="1">
          <mxGeometry x="637" y="-1603.0100000000002" width="30" height="30" as="geometry" />
        </mxCell>
        <mxCell id="ifBN68d82MfszLBfsSgo-3" style="edgeStyle=orthogonalEdgeStyle;rounded=0;orthogonalLoop=1;jettySize=auto;html=1;endArrow=none;endFill=0;curved=1;" parent="1" source="ifBN68d82MfszLBfsSgo-1" target="RNaG8jqsxYrYeXH6zwjB-1" edge="1">
          <mxGeometry relative="1" as="geometry" />
        </mxCell>
        <mxCell id="ifBN68d82MfszLBfsSgo-1" value="一条不指定值的&lt;br&gt;表达式" style="rounded=1;whiteSpace=wrap;html=1;" parent="1" vertex="1">
          <mxGeometry x="-135" y="-705.99" width="120" height="60" as="geometry" />
        </mxCell>
        <mxCell id="-QulcKufBZjhBBsuHa-b-1" value="&lt;span style=&quot;&quot;&gt;&lt;font color=&quot;#7d7d7d&quot;&gt;&lt;br&gt;&lt;br&gt;&lt;br&gt;&lt;br&gt;&lt;br&gt;&lt;br&gt;&lt;br&gt;&lt;br&gt;&lt;br&gt;&lt;br&gt;&lt;br&gt;&lt;br&gt;&lt;br&gt;筛选集&lt;/font&gt;&lt;/span&gt;" style="rounded=0;whiteSpace=wrap;html=1;align=right;" parent="1" vertex="1">
          <mxGeometry x="351" y="-1500" width="366" height="230" as="geometry" />
        </mxCell>
        <mxCell id="-QulcKufBZjhBBsuHa-b-7" value="" style="rounded=0;orthogonalLoop=1;jettySize=auto;html=1;endArrow=none;endFill=0;" parent="1" source="-QulcKufBZjhBBsuHa-b-2" target="-QulcKufBZjhBBsuHa-b-4" edge="1">
          <mxGeometry relative="1" as="geometry" />
        </mxCell>
        <mxCell id="-QulcKufBZjhBBsuHa-b-2" value="一个筛选集&lt;br&gt;&lt;br&gt;字符串常量" style="rounded=1;whiteSpace=wrap;html=1;" parent="1" vertex="1">
          <mxGeometry x="381" y="-1470" width="120" height="60" as="geometry" />
        </mxCell>
        <mxCell id="-QulcKufBZjhBBsuHa-b-4" value="一个吐值函数&lt;br&gt;&lt;br&gt;闭包" style="rounded=1;whiteSpace=wrap;html=1;" parent="1" vertex="1">
          <mxGeometry x="381" y="-1350" width="120" height="60" as="geometry" />
        </mxCell>
        <mxCell id="-QulcKufBZjhBBsuHa-b-6" value="是" style="edgeStyle=entityRelationEdgeStyle;rounded=0;orthogonalLoop=1;jettySize=auto;html=1;endArrow=none;endFill=0;" parent="1" source="-QulcKufBZjhBBsuHa-b-5" target="-QulcKufBZjhBBsuHa-b-2" edge="1">
          <mxGeometry relative="1" as="geometry" />
        </mxCell>
        <mxCell id="-QulcKufBZjhBBsuHa-b-5" value="用户输&lt;br&gt;入的值是&lt;br&gt;筛选集" style="rhombus;whiteSpace=wrap;html=1;" parent="1" vertex="1">
          <mxGeometry x="597" y="-1440" width="80" height="80" as="geometry" />
        </mxCell>
        <mxCell id="gvnvkSaayp7G0_kpARvG-1" value="一个数据类型" style="whiteSpace=wrap;html=1;rounded=1;" parent="1" vertex="1">
          <mxGeometry x="-553.5" y="-562" width="120" height="60" as="geometry" />
        </mxCell>
        <mxCell id="gvnvkSaayp7G0_kpARvG-12" value="1:N" style="rounded=1;orthogonalLoop=1;jettySize=auto;html=1;endArrow=none;endFill=0;" parent="1" source="gvnvkSaayp7G0_kpARvG-5" target="gvnvkSaayp7G0_kpARvG-7" edge="1">
          <mxGeometry relative="1" as="geometry" />
        </mxCell>
        <mxCell id="gvnvkSaayp7G0_kpARvG-18" value="1:1" style="rounded=1;orthogonalLoop=1;jettySize=auto;html=1;endArrow=none;endFill=0;elbow=vertical;" parent="1" source="gvnvkSaayp7G0_kpARvG-5" target="Ile-l4LaZv9kSj4C5DUR-9" edge="1">
          <mxGeometry relative="1" as="geometry" />
        </mxCell>
        <mxCell id="gvnvkSaayp7G0_kpARvG-5" value="一个业务类型" style="whiteSpace=wrap;html=1;rounded=1;" parent="1" vertex="1">
          <mxGeometry x="-733.5" y="-562" width="120" height="60" as="geometry" />
        </mxCell>
        <mxCell id="gvnvkSaayp7G0_kpARvG-7" value="一个场景&lt;br&gt;&lt;br&gt;查看、编辑的&lt;br&gt;一个组件" style="whiteSpace=wrap;html=1;rounded=1;" parent="1" vertex="1">
          <mxGeometry x="-663.5" y="-366" width="120" height="60" as="geometry" />
        </mxCell>
        <mxCell id="gvnvkSaayp7G0_kpARvG-17" value="1:1" style="rounded=1;orthogonalLoop=1;jettySize=auto;html=1;endArrow=none;endFill=0;elbow=vertical;" parent="1" source="gvnvkSaayp7G0_kpARvG-16" target="gvnvkSaayp7G0_kpARvG-5" edge="1">
          <mxGeometry relative="1" as="geometry" />
        </mxCell>
        <mxCell id="gvnvkSaayp7G0_kpARvG-16" value="一个场景&lt;br&gt;&lt;br&gt;筛选的一个组件" style="whiteSpace=wrap;html=1;rounded=1;" parent="1" vertex="1">
          <mxGeometry x="-753.5" y="-402" width="120" height="60" as="geometry" />
        </mxCell>
        <mxCell id="LxPK9XXzTCbhrnzVXmXn-1" value="&lt;font color=&quot;#7d7d7d&quot;&gt;关系标识的阅读逻辑：&lt;br&gt;&lt;/font&gt;&lt;span style=&quot;color: rgb(125, 125, 125);&quot;&gt;从左到右，&lt;/span&gt;&lt;font color=&quot;#7d7d7d&quot;&gt;从上到下&lt;/font&gt;" style="text;html=1;align=center;verticalAlign=middle;resizable=0;points=[];autosize=1;strokeColor=none;fillColor=none;fontSize=12;fontColor=#000000;" parent="1" vertex="1">
          <mxGeometry x="230" y="-930" width="140" height="40" as="geometry" />
        </mxCell>
        <mxCell id="Alx0HKuqFwnBBDqGttug-2" value="一个单据字段和场景的关联&lt;br&gt;&lt;br&gt;查看、编辑、筛选" style="whiteSpace=wrap;html=1;rounded=1;" parent="1" vertex="1">
          <mxGeometry x="-783.5" y="-677" width="120" height="60" as="geometry" />
        </mxCell>
        <mxCell id="ato46B2113RsRCuK_1mt-9" value="&lt;b&gt;N&lt;/b&gt;" style="text;html=1;align=center;verticalAlign=middle;resizable=0;points=[];autosize=1;strokeColor=none;fillColor=none;" parent="1" vertex="1">
          <mxGeometry x="-643.5" y="-562" width="30" height="30" as="geometry" />
        </mxCell>
        <mxCell id="ato46B2113RsRCuK_1mt-10" value="&lt;b&gt;N&lt;/b&gt;" style="text;html=1;align=center;verticalAlign=middle;resizable=0;points=[];autosize=1;strokeColor=none;fillColor=none;" parent="1" vertex="1">
          <mxGeometry x="-463.5" y="-562" width="30" height="30" as="geometry" />
        </mxCell>
        <mxCell id="T7NYAcejHvd4a3Z3r5nu-9" value="" style="edgeStyle=orthogonalEdgeStyle;curved=1;rounded=0;orthogonalLoop=1;jettySize=auto;html=1;elbow=vertical;" parent="1" source="FW5JYKwii_RU_ion3CuW-1" target="Ile-l4LaZv9kSj4C5DUR-24" edge="1">
          <mxGeometry relative="1" as="geometry" />
        </mxCell>
        <mxCell id="FW5JYKwii_RU_ion3CuW-1" value="扫描" style="rounded=1;whiteSpace=wrap;html=1;fillColor=#ffe6cc;strokeColor=#d79b00;" parent="1" vertex="1">
          <mxGeometry x="-553.5" y="-1440" width="120" height="60" as="geometry" />
        </mxCell>
        <mxCell id="T7NYAcejHvd4a3Z3r5nu-8" value="" style="edgeStyle=orthogonalEdgeStyle;curved=1;rounded=0;orthogonalLoop=1;jettySize=auto;html=1;elbow=vertical;" parent="1" source="FW5JYKwii_RU_ion3CuW-3" target="FW5JYKwii_RU_ion3CuW-1" edge="1">
          <mxGeometry relative="1" as="geometry" />
        </mxCell>
        <mxCell id="FW5JYKwii_RU_ion3CuW-3" value="业务建表，前置的一些流程" style="rounded=1;whiteSpace=wrap;html=1;fillColor=#ffe6cc;strokeColor=#d79b00;" parent="1" vertex="1">
          <mxGeometry x="-773.5" y="-1440" width="120" height="60" as="geometry" />
        </mxCell>
        <mxCell id="FW5JYKwii_RU_ion3CuW-8" value="N:1" style="edgeStyle=entityRelationEdgeStyle;rounded=1;orthogonalLoop=1;jettySize=auto;html=1;endArrow=none;endFill=0;elbow=vertical;" parent="1" source="gvnvkSaayp7G0_kpARvG-5" target="gvnvkSaayp7G0_kpARvG-1" edge="1">
          <mxGeometry relative="1" as="geometry">
            <mxPoint x="-643.5" y="-612" as="sourcePoint" />
            <mxPoint x="-543.5" y="-802" as="targetPoint" />
          </mxGeometry>
        </mxCell>
        <mxCell id="RF_-qAVbwLEgpcNNo-ka-12" value="&lt;font color=&quot;#545454&quot;&gt;&lt;br&gt;&lt;br&gt;&lt;br&gt;&lt;br&gt;&lt;br&gt;&lt;br&gt;&lt;br&gt;&lt;br&gt;&lt;br&gt;&lt;br&gt;&lt;br&gt;&lt;br&gt;&lt;br&gt;&lt;br&gt;&lt;br&gt;&lt;br&gt;&lt;br&gt;&lt;br&gt;&lt;br&gt;&lt;br&gt;RBAC &amp;nbsp; &amp;nbsp; &amp;nbsp; &amp;nbsp; &amp;nbsp; &amp;nbsp;&lt;br&gt;&lt;/font&gt;&lt;span style=&quot;text-align: center;&quot;&gt;Role&amp;nbsp;Base&amp;nbsp;Access&amp;nbsp;Control&amp;nbsp; &amp;nbsp; &amp;nbsp; &amp;nbsp;&lt;/span&gt;&lt;font color=&quot;#545454&quot;&gt;&lt;br&gt;&lt;/font&gt;" style="rounded=0;whiteSpace=wrap;html=1;align=right;fillColor=#f9f7ed;strokeColor=#36393d;" parent="1" vertex="1">
          <mxGeometry x="273" y="-370" width="450" height="355" as="geometry" />
        </mxCell>
        <mxCell id="RF_-qAVbwLEgpcNNo-ka-2" value="消费者" style="rounded=1;whiteSpace=wrap;html=1;fillColor=#FFFFFF;" parent="1" vertex="1">
          <mxGeometry x="293" y="-260" width="120" height="60" as="geometry" />
        </mxCell>
        <mxCell id="RF_-qAVbwLEgpcNNo-ka-3" value="淘宝小二客服" style="rounded=1;whiteSpace=wrap;html=1;fillColor=#FFFFFF;" parent="1" vertex="1">
          <mxGeometry x="328" y="-120" width="120" height="60" as="geometry" />
        </mxCell>
        <mxCell id="RF_-qAVbwLEgpcNNo-ka-9" style="edgeStyle=none;rounded=0;orthogonalLoop=1;jettySize=auto;html=1;fillColor=#FFFFFF;" parent="1" source="RF_-qAVbwLEgpcNNo-ka-6" target="RF_-qAVbwLEgpcNNo-ka-3" edge="1">
          <mxGeometry relative="1" as="geometry" />
        </mxCell>
        <mxCell id="RF_-qAVbwLEgpcNNo-ka-6" value="查看其他用户订单" style="ellipse;whiteSpace=wrap;html=1;fillColor=#FFFFFF;" parent="1" vertex="1">
          <mxGeometry x="490" y="-150" width="120" height="60" as="geometry" />
        </mxCell>
        <mxCell id="RF_-qAVbwLEgpcNNo-ka-8" style="edgeStyle=none;rounded=0;orthogonalLoop=1;jettySize=auto;html=1;fillColor=#FFFFFF;" parent="1" source="RF_-qAVbwLEgpcNNo-ka-7" target="RF_-qAVbwLEgpcNNo-ka-6" edge="1">
          <mxGeometry relative="1" as="geometry" />
        </mxCell>
        <mxCell id="RF_-qAVbwLEgpcNNo-ka-10" style="edgeStyle=none;rounded=0;orthogonalLoop=1;jettySize=auto;html=1;fillColor=#FFFFFF;" parent="1" source="RF_-qAVbwLEgpcNNo-ka-7" target="RF_-qAVbwLEgpcNNo-ka-2" edge="1">
          <mxGeometry relative="1" as="geometry" />
        </mxCell>
        <mxCell id="RF_-qAVbwLEgpcNNo-ka-7" value="查看自己的用户订单" style="ellipse;whiteSpace=wrap;html=1;fillColor=#FFFFFF;" parent="1" vertex="1">
          <mxGeometry x="580" y="-336" width="120" height="60" as="geometry" />
        </mxCell>
        <mxCell id="rvW7ZGYvZsN-XdU1D9aP-2" style="edgeStyle=none;rounded=0;orthogonalLoop=1;jettySize=auto;html=1;fillColor=#FFFFFF;" parent="1" source="rvW7ZGYvZsN-XdU1D9aP-1" target="RF_-qAVbwLEgpcNNo-ka-2" edge="1">
          <mxGeometry relative="1" as="geometry" />
        </mxCell>
        <mxCell id="rvW7ZGYvZsN-XdU1D9aP-1" value="付款" style="ellipse;whiteSpace=wrap;html=1;fillColor=#FFFFFF;" parent="1" vertex="1">
          <mxGeometry x="400" y="-360" width="120" height="60" as="geometry" />
        </mxCell>
        <mxCell id="rvW7ZGYvZsN-XdU1D9aP-4" style="edgeStyle=none;rounded=0;orthogonalLoop=1;jettySize=auto;html=1;fillColor=#FFFFFF;" parent="1" source="rvW7ZGYvZsN-XdU1D9aP-3" target="RF_-qAVbwLEgpcNNo-ka-2" edge="1">
          <mxGeometry relative="1" as="geometry" />
        </mxCell>
        <mxCell id="rvW7ZGYvZsN-XdU1D9aP-5" style="edgeStyle=none;rounded=0;orthogonalLoop=1;jettySize=auto;html=1;fillColor=#FFFFFF;" parent="1" source="rvW7ZGYvZsN-XdU1D9aP-3" target="RF_-qAVbwLEgpcNNo-ka-3" edge="1">
          <mxGeometry relative="1" as="geometry" />
        </mxCell>
        <mxCell id="rvW7ZGYvZsN-XdU1D9aP-3" value="删除订单" style="ellipse;whiteSpace=wrap;html=1;fillColor=#FFFFFF;" parent="1" vertex="1">
          <mxGeometry x="460" y="-250" width="120" height="60" as="geometry" />
        </mxCell>
        <mxCell id="HSZCp489YIQx7Fwczrwy-1" value="&lt;br&gt;&lt;br&gt;&lt;br&gt;&lt;br&gt;&lt;br&gt;&lt;br&gt;&lt;br&gt;&lt;br&gt;&lt;br&gt;&lt;br&gt;&lt;br&gt;&lt;br&gt;&lt;br&gt;&lt;br&gt;&lt;br&gt;&lt;br&gt;&lt;br&gt;&lt;br&gt;&lt;br&gt;&lt;br&gt;&lt;br&gt;&lt;br&gt;&lt;br&gt;&lt;br&gt;&lt;br&gt;&lt;br&gt;&lt;br&gt;&lt;br&gt;&lt;br&gt;业务系统的数据库 &amp;nbsp;&amp;nbsp;" style="rounded=0;whiteSpace=wrap;html=1;align=right;fillColor=#f9f7ed;strokeColor=#36393d;" parent="1" vertex="1">
          <mxGeometry x="-1626" y="-1480" width="650" height="500" as="geometry" />
        </mxCell>
        <mxCell id="Be7AkRinNH-pqadpbQCr-1" value="User" style="swimlane;fontStyle=0;childLayout=stackLayout;horizontal=1;startSize=30;horizontalStack=0;resizeParent=1;resizeParentMax=0;resizeLast=0;collapsible=1;marginBottom=0;" parent="1" vertex="1">
          <mxGeometry x="-1206" y="-1364.01" width="140" height="120" as="geometry" />
        </mxCell>
        <mxCell id="Be7AkRinNH-pqadpbQCr-2" value="id INT(10^32)" style="text;strokeColor=none;fillColor=#FFFEEB;align=left;verticalAlign=middle;spacingLeft=4;spacingRight=4;overflow=hidden;points=[[0,0.5],[1,0.5]];portConstraint=eastwest;rotatable=0;" parent="Be7AkRinNH-pqadpbQCr-1" vertex="1">
          <mxGeometry y="30" width="140" height="30" as="geometry" />
        </mxCell>
        <mxCell id="Be7AkRinNH-pqadpbQCr-3" value="name STRING(16)" style="text;strokeColor=none;fillColor=none;align=left;verticalAlign=middle;spacingLeft=4;spacingRight=4;overflow=hidden;points=[[0,0.5],[1,0.5]];portConstraint=eastwest;rotatable=0;" parent="Be7AkRinNH-pqadpbQCr-1" vertex="1">
          <mxGeometry y="60" width="140" height="30" as="geometry" />
        </mxCell>
        <mxCell id="Be7AkRinNH-pqadpbQCr-4" value="id_card INT(64)" style="text;strokeColor=none;fillColor=none;align=left;verticalAlign=middle;spacingLeft=4;spacingRight=4;overflow=hidden;points=[[0,0.5],[1,0.5]];portConstraint=eastwest;rotatable=0;" parent="Be7AkRinNH-pqadpbQCr-1" vertex="1">
          <mxGeometry y="90" width="140" height="30" as="geometry" />
        </mxCell>
        <mxCell id="Be7AkRinNH-pqadpbQCr-6" value="Order" style="swimlane;fontStyle=0;childLayout=stackLayout;horizontal=1;startSize=30;horizontalStack=0;resizeParent=1;resizeParentMax=0;resizeLast=0;collapsible=1;marginBottom=0;" parent="1" vertex="1">
          <mxGeometry x="-1326" y="-1170" width="150" height="150" as="geometry" />
        </mxCell>
        <mxCell id="Be7AkRinNH-pqadpbQCr-7" value="id INT(10^32)" style="text;strokeColor=none;fillColor=none;align=left;verticalAlign=middle;spacingLeft=4;spacingRight=4;overflow=hidden;points=[[0,0.5],[1,0.5]];portConstraint=eastwest;rotatable=0;" parent="Be7AkRinNH-pqadpbQCr-6" vertex="1">
          <mxGeometry y="30" width="150" height="30" as="geometry" />
        </mxCell>
        <mxCell id="Be7AkRinNH-pqadpbQCr-8" value="user_id INT(10^32)" style="text;strokeColor=none;fillColor=none;align=left;verticalAlign=middle;spacingLeft=4;spacingRight=4;overflow=hidden;points=[[0,0.5],[1,0.5]];portConstraint=eastwest;rotatable=0;" parent="Be7AkRinNH-pqadpbQCr-6" vertex="1">
          <mxGeometry y="60" width="150" height="30" as="geometry" />
        </mxCell>
        <mxCell id="68miZH-hunC8AdxY8LbP-1" value="user_id INT(10^32)" style="text;strokeColor=none;fillColor=none;align=left;verticalAlign=middle;spacingLeft=4;spacingRight=4;overflow=hidden;points=[[0,0.5],[1,0.5]];portConstraint=eastwest;rotatable=0;" parent="Be7AkRinNH-pqadpbQCr-6" vertex="1">
          <mxGeometry y="90" width="150" height="30" as="geometry" />
        </mxCell>
        <mxCell id="Be7AkRinNH-pqadpbQCr-9" value="shop_info STRING(1000)" style="text;strokeColor=none;fillColor=none;align=left;verticalAlign=middle;spacingLeft=4;spacingRight=4;overflow=hidden;points=[[0,0.5],[1,0.5]];portConstraint=eastwest;rotatable=0;" parent="Be7AkRinNH-pqadpbQCr-6" vertex="1">
          <mxGeometry y="120" width="150" height="30" as="geometry" />
        </mxCell>
        <mxCell id="Be7AkRinNH-pqadpbQCr-12" style="edgeStyle=none;rounded=0;orthogonalLoop=1;jettySize=auto;html=1;" parent="1" source="Be7AkRinNH-pqadpbQCr-10" target="Be7AkRinNH-pqadpbQCr-1" edge="1">
          <mxGeometry relative="1" as="geometry" />
        </mxCell>
        <mxCell id="Be7AkRinNH-pqadpbQCr-10" value="id:10&lt;br&gt;name: &quot;武则天&quot;&lt;br&gt;id_card: &quot;10001&quot;" style="shape=process;whiteSpace=wrap;html=1;backgroundOutline=1;" parent="1" vertex="1">
          <mxGeometry x="-1486" y="-1360" width="120" height="60" as="geometry" />
        </mxCell>
        <mxCell id="Be7AkRinNH-pqadpbQCr-13" style="edgeStyle=none;rounded=0;orthogonalLoop=1;jettySize=auto;html=1;" parent="1" source="Be7AkRinNH-pqadpbQCr-11" target="Be7AkRinNH-pqadpbQCr-1" edge="1">
          <mxGeometry relative="1" as="geometry" />
        </mxCell>
        <mxCell id="Be7AkRinNH-pqadpbQCr-11" value="id:2&lt;br&gt;name: &quot;李世民&quot;&lt;br&gt;id_card: &quot;10002&quot;" style="shape=process;whiteSpace=wrap;html=1;backgroundOutline=1;" parent="1" vertex="1">
          <mxGeometry x="-1486" y="-1270" width="120" height="60" as="geometry" />
        </mxCell>
        <mxCell id="Be7AkRinNH-pqadpbQCr-16" style="edgeStyle=none;rounded=0;orthogonalLoop=1;jettySize=auto;html=1;" parent="1" source="Be7AkRinNH-pqadpbQCr-14" target="Be7AkRinNH-pqadpbQCr-6" edge="1">
          <mxGeometry relative="1" as="geometry" />
        </mxCell>
        <mxCell id="Be7AkRinNH-pqadpbQCr-14" value="id:1&lt;br&gt;user_id: 2&lt;br&gt;shop_info: &quot;{}&quot;" style="shape=process;whiteSpace=wrap;html=1;backgroundOutline=1;" parent="1" vertex="1">
          <mxGeometry x="-1506" y="-1155" width="120" height="60" as="geometry" />
        </mxCell>
        <mxCell id="Be7AkRinNH-pqadpbQCr-17" style="edgeStyle=none;rounded=0;orthogonalLoop=1;jettySize=auto;html=1;" parent="1" source="Be7AkRinNH-pqadpbQCr-15" target="Be7AkRinNH-pqadpbQCr-6" edge="1">
          <mxGeometry relative="1" as="geometry" />
        </mxCell>
        <mxCell id="Be7AkRinNH-pqadpbQCr-15" value="id:2&lt;br&gt;user_id: 10&lt;br&gt;shop_info: &quot;{}&quot;" style="shape=process;whiteSpace=wrap;html=1;backgroundOutline=1;" parent="1" vertex="1">
          <mxGeometry x="-1526" y="-1060" width="120" height="60" as="geometry" />
        </mxCell>
        <mxCell id="t33YYXT_v3qxu-Ib2Nye-2" style="edgeStyle=orthogonalEdgeStyle;rounded=0;orthogonalLoop=1;jettySize=auto;html=1;" parent="1" source="t33YYXT_v3qxu-Ib2Nye-1" target="Be7AkRinNH-pqadpbQCr-2" edge="1">
          <mxGeometry relative="1" as="geometry" />
        </mxCell>
        <mxCell id="t33YYXT_v3qxu-Ib2Nye-1" value="列" style="text;html=1;align=center;verticalAlign=middle;resizable=0;points=[];autosize=1;strokeColor=none;fillColor=none;" parent="1" vertex="1">
          <mxGeometry x="-1066" y="-1470" width="40" height="30" as="geometry" />
        </mxCell>
        <mxCell id="t33YYXT_v3qxu-Ib2Nye-4" style="edgeStyle=orthogonalEdgeStyle;rounded=0;orthogonalLoop=1;jettySize=auto;html=1;" parent="1" source="t33YYXT_v3qxu-Ib2Nye-3" target="Be7AkRinNH-pqadpbQCr-10" edge="1">
          <mxGeometry relative="1" as="geometry" />
        </mxCell>
        <mxCell id="t33YYXT_v3qxu-Ib2Nye-3" value="一条数据" style="text;html=1;align=center;verticalAlign=middle;resizable=0;points=[];autosize=1;strokeColor=none;fillColor=none;" parent="1" vertex="1">
          <mxGeometry x="-1461" y="-1470" width="70" height="30" as="geometry" />
        </mxCell>
        <mxCell id="Be7AkRinNH-pqadpbQCr-19" style="edgeStyle=none;rounded=0;orthogonalLoop=1;jettySize=auto;html=1;" parent="1" source="Be7AkRinNH-pqadpbQCr-1" target="Ile-l4LaZv9kSj4C5DUR-15" edge="1">
          <mxGeometry relative="1" as="geometry" />
        </mxCell>
        <mxCell id="Be7AkRinNH-pqadpbQCr-18" style="edgeStyle=none;rounded=0;orthogonalLoop=1;jettySize=auto;html=1;" parent="1" source="Be7AkRinNH-pqadpbQCr-6" target="Ile-l4LaZv9kSj4C5DUR-15" edge="1">
          <mxGeometry relative="1" as="geometry" />
        </mxCell>
        <mxCell id="Be7AkRinNH-pqadpbQCr-20" style="rounded=0;orthogonalLoop=1;jettySize=auto;html=1;elbow=vertical;" parent="1" source="Be7AkRinNH-pqadpbQCr-2" target="Ile-l4LaZv9kSj4C5DUR-17" edge="1">
          <mxGeometry relative="1" as="geometry" />
        </mxCell>
        <mxCell id="HSZCp489YIQx7Fwczrwy-2" value="&lt;br&gt;&lt;br&gt;&lt;br&gt;&lt;br&gt;&lt;br&gt;&lt;br&gt;&lt;br&gt;&lt;br&gt;&lt;br&gt;&lt;br&gt;&lt;br&gt;&lt;br&gt;&lt;br&gt;&lt;br&gt;&lt;br&gt;&lt;br&gt;&lt;br&gt;&lt;br&gt;&lt;br&gt;&lt;br&gt;&lt;br&gt;&lt;br&gt;&lt;br&gt;&lt;br&gt;&lt;br&gt;&lt;br&gt;&lt;br&gt;&lt;br&gt;&lt;br&gt;&lt;br&gt;&lt;br&gt;&lt;br&gt;&lt;br&gt;业务系统的页面 &amp;nbsp;&amp;nbsp;" style="rounded=0;whiteSpace=wrap;html=1;align=right;fillColor=#f9f7ed;strokeColor=#36393d;" parent="1" vertex="1">
          <mxGeometry x="-1626" y="-560" width="650" height="500" as="geometry" />
        </mxCell>
        <mxCell id="HSZCp489YIQx7Fwczrwy-3" value="" style="whiteSpace=wrap;html=1;" parent="1" vertex="1">
          <mxGeometry x="-1622" y="-410" width="390" height="340" as="geometry" />
        </mxCell>
        <mxCell id="HSZCp489YIQx7Fwczrwy-5" value="表单" style="whiteSpace=wrap;html=1;" parent="1" vertex="1">
          <mxGeometry x="-1612" y="-350" width="370" height="220" as="geometry" />
        </mxCell>
        <mxCell id="HSZCp489YIQx7Fwczrwy-6" value="提交&amp;nbsp;、取消" style="whiteSpace=wrap;html=1;" parent="1" vertex="1">
          <mxGeometry x="-1592" y="-120" width="330" height="40" as="geometry" />
        </mxCell>
        <mxCell id="HSZCp489YIQx7Fwczrwy-7" value="Logo" style="whiteSpace=wrap;html=1;" parent="1" vertex="1">
          <mxGeometry x="-1612" y="-400" width="130" height="40" as="geometry" />
        </mxCell>
        <mxCell id="ato46B2113RsRCuK_1mt-1" value="F" style="whiteSpace=wrap;html=1;" parent="1" vertex="1">
          <mxGeometry x="-1372" y="-556" width="390" height="340" as="geometry" />
        </mxCell>
        <mxCell id="ato46B2113RsRCuK_1mt-2" value="筛 选" style="whiteSpace=wrap;html=1;" parent="1" vertex="1">
          <mxGeometry x="-1202" y="-546" width="210" height="40" as="geometry" />
        </mxCell>
        <mxCell id="ato46B2113RsRCuK_1mt-3" value="表格" style="whiteSpace=wrap;html=1;" parent="1" vertex="1">
          <mxGeometry x="-1362" y="-496" width="370" height="220" as="geometry" />
        </mxCell>
        <mxCell id="ato46B2113RsRCuK_1mt-4" value="分&amp;nbsp; &amp;nbsp; &amp;nbsp; &amp;nbsp; &amp;nbsp; &amp;nbsp;页" style="whiteSpace=wrap;html=1;" parent="1" vertex="1">
          <mxGeometry x="-1342" y="-266" width="330" height="40" as="geometry" />
        </mxCell>
        <mxCell id="ato46B2113RsRCuK_1mt-5" value="Logo" style="whiteSpace=wrap;html=1;" parent="1" vertex="1">
          <mxGeometry x="-1362" y="-546" width="130" height="40" as="geometry" />
        </mxCell>
        <mxCell id="HSZCp489YIQx7Fwczrwy-9" value="" style="endArrow=none;html=1;rounded=0;fillColor=#FFFFFF;" parent="1" edge="1">
          <mxGeometry width="50" height="50" relative="1" as="geometry">
            <mxPoint x="-830" y="-10" as="sourcePoint" />
            <mxPoint x="-831" y="-1500" as="targetPoint" />
          </mxGeometry>
        </mxCell>
        <mxCell id="gvnvkSaayp7G0_kpARvG-13" value="1:1" style="edgeStyle=orthogonalEdgeStyle;curved=1;rounded=1;orthogonalLoop=1;jettySize=auto;html=1;endArrow=none;endFill=0;" parent="1" source="gvnvkSaayp7G0_kpARvG-16" target="ato46B2113RsRCuK_1mt-2" edge="1">
          <mxGeometry relative="1" as="geometry">
            <mxPoint x="-550" y="-480" as="sourcePoint" />
            <mxPoint x="-450" y="-410" as="targetPoint" />
          </mxGeometry>
        </mxCell>
        <mxCell id="Alx0HKuqFwnBBDqGttug-5" style="rounded=0;orthogonalLoop=1;jettySize=auto;html=1;edgeStyle=orthogonalEdgeStyle;elbow=vertical;curved=1;" parent="1" source="Alx0HKuqFwnBBDqGttug-2" target="ato46B2113RsRCuK_1mt-3" edge="1">
          <mxGeometry relative="1" as="geometry">
            <mxPoint x="-764.0000000000005" y="-420" as="targetPoint" />
          </mxGeometry>
        </mxCell>
      </root>
    </mxGraphModel>
  </diagram>
  <diagram id="znkzSaIx66BYQsD4Y3Hy" name="第 5 页">
    <mxGraphModel dx="2215" dy="1175" grid="1" gridSize="10" guides="1" tooltips="1" connect="1" arrows="1" fold="1" page="1" pageScale="1" pageWidth="827" pageHeight="1169" math="0" shadow="0">
      <root>
        <mxCell id="0" />
        <mxCell id="1" parent="0" />
        <mxCell id="UO1zMGvTBw0WsCUddAWi-203" value="&lt;div style=&quot;text-align: center;&quot;&gt;&lt;span style=&quot;background-color: initial;&quot;&gt;&lt;b&gt;图 书 管 理&lt;/b&gt;&lt;/span&gt;&lt;/div&gt;" style="html=1;align=right;verticalAlign=top;rounded=1;absoluteArcSize=1;arcSize=50;dashed=0;spacingTop=10;spacingRight=30;labelBackgroundColor=none;fillColor=#FAE5C7;strokeColor=#0F8B8D;fontColor=#143642;" vertex="1" parent="1">
          <mxGeometry x="50" y="25" width="770" height="435" as="geometry" />
        </mxCell>
        <mxCell id="UO1zMGvTBw0WsCUddAWi-3" value="&lt;span style=&quot;font-size:10.5pt;font-family:&lt;br/&gt;&amp;quot;Times New Roman&amp;quot;,serif;mso-fareast-font-family:宋体;mso-font-kerning:1.0pt;&lt;br/&gt;mso-ansi-language:EN-US;mso-fareast-language:ZH-CN;mso-bidi-language:AR-SA&quot; lang=&quot;EN-US&quot;&gt;miniLib&lt;/span&gt;" style="shape=umlFrame;whiteSpace=wrap;html=1;labelBackgroundColor=none;fillColor=#FAE5C7;strokeColor=#0F8B8D;fontColor=#143642;" vertex="1" parent="1">
          <mxGeometry x="40" y="15" width="1730" height="1085" as="geometry" />
        </mxCell>
        <mxCell id="UO1zMGvTBw0WsCUddAWi-4" value="&lt;p style=&quot;text-align: left; line-height: 70%;&quot; class=&quot;MsoNormal&quot;&gt;&lt;br&gt;&lt;/p&gt;" style="text;html=1;align=center;verticalAlign=middle;resizable=0;points=[];autosize=1;strokeColor=none;fillColor=none;labelBackgroundColor=none;fontColor=#143642;" vertex="1" parent="1">
          <mxGeometry x="404" y="1090" width="20" height="50" as="geometry" />
        </mxCell>
        <mxCell id="UO1zMGvTBw0WsCUddAWi-42" value="&lt;span style=&quot;font-weight: 700; text-align: center;&quot;&gt;系 统 管 理&lt;/span&gt;" style="html=1;align=right;verticalAlign=top;rounded=1;absoluteArcSize=1;arcSize=50;dashed=0;spacingTop=10;spacingRight=30;labelBackgroundColor=none;fillColor=#FAE5C7;strokeColor=#0F8B8D;fontColor=#143642;" vertex="1" parent="1">
          <mxGeometry x="850" y="635" width="330" height="460" as="geometry" />
        </mxCell>
        <mxCell id="UO1zMGvTBw0WsCUddAWi-44" value="&lt;div style=&quot;text-align: center;&quot;&gt;&lt;span style=&quot;background-color: initial;&quot;&gt;&lt;b&gt;读 者 管 理&lt;/b&gt;&lt;/span&gt;&lt;/div&gt;" style="html=1;align=right;verticalAlign=top;rounded=1;absoluteArcSize=1;arcSize=50;dashed=0;spacingTop=10;spacingRight=30;labelBackgroundColor=none;fillColor=#FAE5C7;strokeColor=#0F8B8D;fontColor=#143642;" vertex="1" parent="1">
          <mxGeometry x="850" y="25" width="910" height="600" as="geometry" />
        </mxCell>
        <mxCell id="UO1zMGvTBw0WsCUddAWi-48" value="&lt;div style=&quot;text-align: center;&quot;&gt;&lt;span style=&quot;background-color: initial;&quot;&gt;&lt;b&gt;借 阅 管 理&lt;/b&gt;&lt;/span&gt;&lt;/div&gt;" style="html=1;align=right;verticalAlign=top;rounded=1;absoluteArcSize=1;arcSize=50;dashed=0;spacingTop=10;spacingRight=30;labelBackgroundColor=none;fillColor=#FAE5C7;strokeColor=#0F8B8D;fontColor=#143642;" vertex="1" parent="1">
          <mxGeometry x="50" y="470" width="770" height="450" as="geometry" />
        </mxCell>
        <mxCell id="UO1zMGvTBw0WsCUddAWi-112" style="rounded=0;orthogonalLoop=1;jettySize=auto;html=1;labelBackgroundColor=none;strokeColor=#A8201A;fontColor=default;" edge="1" parent="1" source="UO1zMGvTBw0WsCUddAWi-22" target="UO1zMGvTBw0WsCUddAWi-111">
          <mxGeometry relative="1" as="geometry" />
        </mxCell>
        <mxCell id="UO1zMGvTBw0WsCUddAWi-22" value="数据管理" style="html=1;rounded=1;labelBackgroundColor=none;fillColor=#FAE5C7;strokeColor=#0F8B8D;fontColor=#143642;" vertex="1" parent="1">
          <mxGeometry x="912.5" y="685" width="110" height="50" as="geometry" />
        </mxCell>
        <mxCell id="UO1zMGvTBw0WsCUddAWi-113" style="edgeStyle=none;rounded=0;orthogonalLoop=1;jettySize=auto;html=1;labelBackgroundColor=none;strokeColor=#A8201A;fontColor=default;" edge="1" parent="1" source="UO1zMGvTBw0WsCUddAWi-19" target="UO1zMGvTBw0WsCUddAWi-111">
          <mxGeometry relative="1" as="geometry" />
        </mxCell>
        <mxCell id="UO1zMGvTBw0WsCUddAWi-19" value="用户管理" style="html=1;rounded=1;labelBackgroundColor=none;fillColor=#FAE5C7;strokeColor=#0F8B8D;fontColor=#143642;" vertex="1" parent="1">
          <mxGeometry x="1057.5" y="685" width="110" height="50" as="geometry" />
        </mxCell>
        <mxCell id="UO1zMGvTBw0WsCUddAWi-116" style="edgeStyle=none;rounded=0;orthogonalLoop=1;jettySize=auto;html=1;labelBackgroundColor=none;strokeColor=#A8201A;fontColor=default;" edge="1" parent="1" source="UO1zMGvTBw0WsCUddAWi-111" target="UO1zMGvTBw0WsCUddAWi-114">
          <mxGeometry relative="1" as="geometry" />
        </mxCell>
        <mxCell id="UO1zMGvTBw0WsCUddAWi-117" style="edgeStyle=none;rounded=0;orthogonalLoop=1;jettySize=auto;html=1;labelBackgroundColor=none;strokeColor=#A8201A;fontColor=default;" edge="1" parent="1" source="UO1zMGvTBw0WsCUddAWi-111" target="UO1zMGvTBw0WsCUddAWi-115">
          <mxGeometry relative="1" as="geometry" />
        </mxCell>
        <mxCell id="UO1zMGvTBw0WsCUddAWi-111" value="" style="html=1;points=[];perimeter=orthogonalPerimeter;fillColor=#FAE5C7;rounded=1;direction=south;labelBackgroundColor=none;strokeColor=#0F8B8D;fontColor=#143642;" vertex="1" parent="1">
          <mxGeometry x="912.5" y="765" width="255" height="10" as="geometry" />
        </mxCell>
        <mxCell id="UO1zMGvTBw0WsCUddAWi-122" style="edgeStyle=none;rounded=0;orthogonalLoop=1;jettySize=auto;html=1;labelBackgroundColor=none;strokeColor=#A8201A;fontColor=default;" edge="1" parent="1" source="UO1zMGvTBw0WsCUddAWi-114" target="UO1zMGvTBw0WsCUddAWi-120">
          <mxGeometry relative="1" as="geometry" />
        </mxCell>
        <mxCell id="UO1zMGvTBw0WsCUddAWi-114" value="获取系统数据" style="html=1;rounded=1;labelBackgroundColor=none;fillColor=#FAE5C7;strokeColor=#0F8B8D;fontColor=#143642;" vertex="1" parent="1">
          <mxGeometry x="912.5" y="805" width="110" height="50" as="geometry" />
        </mxCell>
        <mxCell id="UO1zMGvTBw0WsCUddAWi-121" style="edgeStyle=none;rounded=0;orthogonalLoop=1;jettySize=auto;html=1;labelBackgroundColor=none;strokeColor=#A8201A;fontColor=default;" edge="1" parent="1" source="UO1zMGvTBw0WsCUddAWi-115" target="UO1zMGvTBw0WsCUddAWi-118">
          <mxGeometry relative="1" as="geometry" />
        </mxCell>
        <mxCell id="UO1zMGvTBw0WsCUddAWi-115" value="获取系统用户" style="html=1;rounded=1;labelBackgroundColor=none;fillColor=#FAE5C7;strokeColor=#0F8B8D;fontColor=#143642;" vertex="1" parent="1">
          <mxGeometry x="1057.5" y="805" width="110" height="50" as="geometry" />
        </mxCell>
        <mxCell id="UO1zMGvTBw0WsCUddAWi-131" style="edgeStyle=none;rounded=0;orthogonalLoop=1;jettySize=auto;html=1;labelBackgroundColor=none;strokeColor=#A8201A;fontColor=default;" edge="1" parent="1" source="UO1zMGvTBw0WsCUddAWi-118" target="UO1zMGvTBw0WsCUddAWi-128">
          <mxGeometry relative="1" as="geometry" />
        </mxCell>
        <mxCell id="UO1zMGvTBw0WsCUddAWi-118" value="按请求参数&lt;br&gt;处理系统用户" style="html=1;rounded=1;labelBackgroundColor=none;fillColor=#FAE5C7;strokeColor=#0F8B8D;fontColor=#143642;" vertex="1" parent="1">
          <mxGeometry x="1057.5" y="895" width="110" height="50" as="geometry" />
        </mxCell>
        <mxCell id="UO1zMGvTBw0WsCUddAWi-132" style="edgeStyle=none;rounded=0;orthogonalLoop=1;jettySize=auto;html=1;labelBackgroundColor=none;strokeColor=#A8201A;fontColor=default;" edge="1" parent="1" source="UO1zMGvTBw0WsCUddAWi-120" target="UO1zMGvTBw0WsCUddAWi-128">
          <mxGeometry relative="1" as="geometry" />
        </mxCell>
        <mxCell id="UO1zMGvTBw0WsCUddAWi-120" value="按请求参数&lt;br style=&quot;border-color: var(--border-color);&quot;&gt;处理系统数据" style="html=1;rounded=1;labelBackgroundColor=none;fillColor=#FAE5C7;strokeColor=#0F8B8D;fontColor=#143642;" vertex="1" parent="1">
          <mxGeometry x="912.5" y="895" width="110" height="50" as="geometry" />
        </mxCell>
        <mxCell id="UO1zMGvTBw0WsCUddAWi-126" value="" style="ellipse;html=1;shape=endState;fillColor=#FAE5C7;rounded=1;labelBackgroundColor=none;strokeColor=#0F8B8D;fontColor=#143642;" vertex="1" parent="1">
          <mxGeometry x="1105" y="1055" width="30" height="30" as="geometry" />
        </mxCell>
        <mxCell id="UO1zMGvTBw0WsCUddAWi-127" value="" style="edgeStyle=none;rounded=0;orthogonalLoop=1;jettySize=auto;html=1;labelBackgroundColor=none;strokeColor=#A8201A;fontColor=default;" edge="1" parent="1" source="UO1zMGvTBw0WsCUddAWi-128" target="UO1zMGvTBw0WsCUddAWi-130">
          <mxGeometry relative="1" as="geometry" />
        </mxCell>
        <mxCell id="UO1zMGvTBw0WsCUddAWi-128" value="" style="html=1;points=[];perimeter=orthogonalPerimeter;fillColor=#FAE5C7;rounded=1;direction=south;labelBackgroundColor=none;strokeColor=#0F8B8D;fontColor=#143642;" vertex="1" parent="1">
          <mxGeometry x="912.5" y="995" width="255" height="10" as="geometry" />
        </mxCell>
        <mxCell id="UO1zMGvTBw0WsCUddAWi-129" style="edgeStyle=none;rounded=0;orthogonalLoop=1;jettySize=auto;html=1;labelBackgroundColor=none;strokeColor=#A8201A;fontColor=default;" edge="1" parent="1" source="UO1zMGvTBw0WsCUddAWi-130" target="UO1zMGvTBw0WsCUddAWi-126">
          <mxGeometry relative="1" as="geometry" />
        </mxCell>
        <mxCell id="UO1zMGvTBw0WsCUddAWi-135" style="edgeStyle=isometricEdgeStyle;rounded=0;orthogonalLoop=1;jettySize=auto;html=1;elbow=vertical;entryX=1;entryY=0.5;entryDx=0;entryDy=0;labelBackgroundColor=none;strokeColor=#A8201A;fontColor=default;" edge="1" parent="1" source="UO1zMGvTBw0WsCUddAWi-130" target="UO1zMGvTBw0WsCUddAWi-133">
          <mxGeometry relative="1" as="geometry">
            <Array as="points">
              <mxPoint x="1010" y="1065" />
            </Array>
          </mxGeometry>
        </mxCell>
        <mxCell id="UO1zMGvTBw0WsCUddAWi-130" value="" style="rhombus;rounded=1;labelBackgroundColor=none;fillColor=#FAE5C7;strokeColor=#0F8B8D;fontColor=#143642;" vertex="1" parent="1">
          <mxGeometry x="1027.5" y="1055" width="30" height="30" as="geometry" />
        </mxCell>
        <mxCell id="UO1zMGvTBw0WsCUddAWi-133" value="处理异常" style="html=1;rounded=1;labelBackgroundColor=none;fillColor=#FAE5C7;strokeColor=#0F8B8D;fontColor=#143642;" vertex="1" parent="1">
          <mxGeometry x="860" y="1025" width="110" height="50" as="geometry" />
        </mxCell>
        <mxCell id="UO1zMGvTBw0WsCUddAWi-138" style="rounded=0;orthogonalLoop=1;jettySize=auto;html=1;elbow=vertical;labelBackgroundColor=none;strokeColor=#A8201A;fontColor=default;" edge="1" parent="1" source="UO1zMGvTBw0WsCUddAWi-136" target="UO1zMGvTBw0WsCUddAWi-22">
          <mxGeometry relative="1" as="geometry" />
        </mxCell>
        <mxCell id="UO1zMGvTBw0WsCUddAWi-139" style="edgeStyle=none;rounded=0;orthogonalLoop=1;jettySize=auto;html=1;elbow=vertical;labelBackgroundColor=none;strokeColor=#A8201A;fontColor=default;" edge="1" parent="1" source="UO1zMGvTBw0WsCUddAWi-136" target="UO1zMGvTBw0WsCUddAWi-19">
          <mxGeometry relative="1" as="geometry" />
        </mxCell>
        <mxCell id="UO1zMGvTBw0WsCUddAWi-136" value="" style="ellipse;html=1;shape=startState;fillColor=#FAE5C7;strokeColor=#0F8B8D;labelBackgroundColor=none;fontColor=#143642;" vertex="1" parent="1">
          <mxGeometry x="1022.5" y="645" width="30" height="30" as="geometry" />
        </mxCell>
        <mxCell id="UO1zMGvTBw0WsCUddAWi-137" value="系统管理员" style="text;html=1;align=center;verticalAlign=middle;resizable=0;points=[];autosize=1;strokeColor=none;fillColor=none;labelBackgroundColor=none;fontColor=#143642;" vertex="1" parent="1">
          <mxGeometry x="940" y="645" width="80" height="30" as="geometry" />
        </mxCell>
        <mxCell id="UO1zMGvTBw0WsCUddAWi-151" style="edgeStyle=none;rounded=0;orthogonalLoop=1;jettySize=auto;html=1;elbow=vertical;labelBackgroundColor=none;strokeColor=#A8201A;fontColor=default;" edge="1" parent="1" source="UO1zMGvTBw0WsCUddAWi-147" target="UO1zMGvTBw0WsCUddAWi-148">
          <mxGeometry relative="1" as="geometry" />
        </mxCell>
        <mxCell id="UO1zMGvTBw0WsCUddAWi-147" value="&#xa;&#xa;&#xa;用户" style="ellipse;fillColor=#FAE5C7;rounded=0;labelBackgroundColor=none;strokeColor=#0F8B8D;fontColor=#143642;" vertex="1" parent="1">
          <mxGeometry x="70" y="100" width="30" height="30" as="geometry" />
        </mxCell>
        <mxCell id="UO1zMGvTBw0WsCUddAWi-157" value="" style="edgeStyle=none;rounded=0;orthogonalLoop=1;jettySize=auto;html=1;elbow=vertical;labelBackgroundColor=none;strokeColor=#A8201A;fontColor=default;" edge="1" parent="1" source="UO1zMGvTBw0WsCUddAWi-148" target="UO1zMGvTBw0WsCUddAWi-158">
          <mxGeometry relative="1" as="geometry">
            <mxPoint x="335" y="115" as="targetPoint" />
          </mxGeometry>
        </mxCell>
        <mxCell id="UO1zMGvTBw0WsCUddAWi-148" value="图书查询" style="html=1;rounded=1;labelBackgroundColor=none;fillColor=#FAE5C7;strokeColor=#0F8B8D;fontColor=#143642;" vertex="1" parent="1">
          <mxGeometry x="130" y="95" width="110" height="40" as="geometry" />
        </mxCell>
        <mxCell id="UO1zMGvTBw0WsCUddAWi-165" style="edgeStyle=orthogonalEdgeStyle;rounded=0;orthogonalLoop=1;jettySize=auto;html=1;elbow=vertical;labelBackgroundColor=none;strokeColor=#A8201A;fontColor=default;" edge="1" parent="1" source="UO1zMGvTBw0WsCUddAWi-154" target="UO1zMGvTBw0WsCUddAWi-164">
          <mxGeometry relative="1" as="geometry" />
        </mxCell>
        <mxCell id="UO1zMGvTBw0WsCUddAWi-154" value="«datastore»&lt;br&gt;&lt;br&gt;&lt;b&gt;书籍数据&lt;/b&gt;" style="html=1;align=center;verticalAlign=middle;dashed=0;rounded=1;labelBackgroundColor=none;fillColor=#FAE5C7;strokeColor=#0F8B8D;fontColor=#143642;" vertex="1" parent="1">
          <mxGeometry x="585" y="90" width="120" height="50" as="geometry" />
        </mxCell>
        <mxCell id="UO1zMGvTBw0WsCUddAWi-162" value="T" style="edgeStyle=none;rounded=0;orthogonalLoop=1;jettySize=auto;html=1;elbow=vertical;labelBackgroundColor=none;strokeColor=#A8201A;fontColor=default;" edge="1" parent="1" source="UO1zMGvTBw0WsCUddAWi-158" target="UO1zMGvTBw0WsCUddAWi-184">
          <mxGeometry relative="1" as="geometry" />
        </mxCell>
        <mxCell id="UO1zMGvTBw0WsCUddAWi-168" value="" style="edgeStyle=none;rounded=0;orthogonalLoop=1;jettySize=auto;html=1;elbow=vertical;labelBackgroundColor=none;strokeColor=#A8201A;fontColor=default;" edge="1" parent="1" source="UO1zMGvTBw0WsCUddAWi-158" target="UO1zMGvTBw0WsCUddAWi-167">
          <mxGeometry relative="1" as="geometry" />
        </mxCell>
        <mxCell id="UO1zMGvTBw0WsCUddAWi-158" value="存在" style="rhombus;rounded=0;labelBackgroundColor=none;fillColor=#FAE5C7;strokeColor=#0F8B8D;fontColor=#143642;" vertex="1" parent="1">
          <mxGeometry x="320" y="100" width="30" height="30" as="geometry" />
        </mxCell>
        <mxCell id="UO1zMGvTBw0WsCUddAWi-164" value="" style="ellipse;html=1;shape=endState;fillColor=#FAE5C7;rounded=0;labelBackgroundColor=none;strokeColor=#0F8B8D;fontColor=#143642;" vertex="1" parent="1">
          <mxGeometry x="760" y="100" width="30" height="30" as="geometry" />
        </mxCell>
        <mxCell id="UO1zMGvTBw0WsCUddAWi-169" style="edgeStyle=orthogonalEdgeStyle;rounded=0;orthogonalLoop=1;jettySize=auto;html=1;elbow=vertical;labelBackgroundColor=none;strokeColor=#A8201A;fontColor=default;" edge="1" parent="1" source="UO1zMGvTBw0WsCUddAWi-167" target="UO1zMGvTBw0WsCUddAWi-164">
          <mxGeometry relative="1" as="geometry" />
        </mxCell>
        <mxCell id="UO1zMGvTBw0WsCUddAWi-167" value="给出提示" style="html=1;rounded=1;labelBackgroundColor=none;fillColor=#FAE5C7;strokeColor=#0F8B8D;fontColor=#143642;" vertex="1" parent="1">
          <mxGeometry x="280" y="30" width="110" height="40" as="geometry" />
        </mxCell>
        <mxCell id="UO1zMGvTBw0WsCUddAWi-170" style="edgeStyle=orthogonalEdgeStyle;rounded=0;orthogonalLoop=1;jettySize=auto;html=1;elbow=vertical;labelBackgroundColor=none;strokeColor=#A8201A;fontColor=default;" edge="1" parent="1" source="UO1zMGvTBw0WsCUddAWi-190" target="UO1zMGvTBw0WsCUddAWi-173">
          <mxGeometry relative="1" as="geometry">
            <mxPoint x="100.00000000000023" y="265" as="sourcePoint" />
          </mxGeometry>
        </mxCell>
        <mxCell id="UO1zMGvTBw0WsCUddAWi-172" value="" style="edgeStyle=none;rounded=0;orthogonalLoop=1;jettySize=auto;html=1;elbow=vertical;labelBackgroundColor=none;strokeColor=#A8201A;fontColor=default;" edge="1" parent="1" source="UO1zMGvTBw0WsCUddAWi-173" target="UO1zMGvTBw0WsCUddAWi-178">
          <mxGeometry relative="1" as="geometry">
            <mxPoint x="335" y="265" as="targetPoint" />
          </mxGeometry>
        </mxCell>
        <mxCell id="UO1zMGvTBw0WsCUddAWi-173" value="新书登记" style="html=1;rounded=1;labelBackgroundColor=none;fillColor=#FAE5C7;strokeColor=#0F8B8D;fontColor=#143642;" vertex="1" parent="1">
          <mxGeometry x="130" y="245" width="110" height="40" as="geometry" />
        </mxCell>
        <mxCell id="UO1zMGvTBw0WsCUddAWi-174" style="edgeStyle=none;rounded=0;orthogonalLoop=1;jettySize=auto;html=1;elbow=vertical;labelBackgroundColor=none;strokeColor=#A8201A;fontColor=default;" edge="1" parent="1" source="UO1zMGvTBw0WsCUddAWi-186" target="UO1zMGvTBw0WsCUddAWi-179">
          <mxGeometry relative="1" as="geometry" />
        </mxCell>
        <mxCell id="UO1zMGvTBw0WsCUddAWi-176" value="T" style="edgeStyle=none;rounded=0;orthogonalLoop=1;jettySize=auto;html=1;elbow=vertical;labelBackgroundColor=none;strokeColor=#A8201A;fontColor=default;" edge="1" parent="1" source="UO1zMGvTBw0WsCUddAWi-178" target="UO1zMGvTBw0WsCUddAWi-188">
          <mxGeometry relative="1" as="geometry" />
        </mxCell>
        <mxCell id="UO1zMGvTBw0WsCUddAWi-177" value="" style="edgeStyle=none;rounded=0;orthogonalLoop=1;jettySize=auto;html=1;elbow=vertical;labelBackgroundColor=none;strokeColor=#A8201A;fontColor=default;" edge="1" parent="1" source="UO1zMGvTBw0WsCUddAWi-178" target="UO1zMGvTBw0WsCUddAWi-181">
          <mxGeometry relative="1" as="geometry" />
        </mxCell>
        <mxCell id="UO1zMGvTBw0WsCUddAWi-178" value="&#xa;录入数据完整" style="rhombus;rounded=0;labelBackgroundColor=none;fillColor=#FAE5C7;strokeColor=#0F8B8D;fontColor=#143642;" vertex="1" parent="1">
          <mxGeometry x="320" y="250" width="30" height="30" as="geometry" />
        </mxCell>
        <mxCell id="UO1zMGvTBw0WsCUddAWi-179" value="" style="ellipse;html=1;shape=endState;fillColor=#FAE5C7;rounded=0;labelBackgroundColor=none;strokeColor=#0F8B8D;fontColor=#143642;" vertex="1" parent="1">
          <mxGeometry x="760" y="250" width="30" height="30" as="geometry" />
        </mxCell>
        <mxCell id="UO1zMGvTBw0WsCUddAWi-180" style="edgeStyle=orthogonalEdgeStyle;rounded=0;orthogonalLoop=1;jettySize=auto;html=1;elbow=vertical;labelBackgroundColor=none;strokeColor=#A8201A;fontColor=default;" edge="1" parent="1" source="UO1zMGvTBw0WsCUddAWi-181" target="UO1zMGvTBw0WsCUddAWi-179">
          <mxGeometry relative="1" as="geometry" />
        </mxCell>
        <mxCell id="UO1zMGvTBw0WsCUddAWi-181" value="给出提示" style="html=1;rounded=1;labelBackgroundColor=none;fillColor=#FAE5C7;strokeColor=#0F8B8D;fontColor=#143642;" vertex="1" parent="1">
          <mxGeometry x="280" y="180" width="110" height="40" as="geometry" />
        </mxCell>
        <mxCell id="UO1zMGvTBw0WsCUddAWi-185" style="edgeStyle=orthogonalEdgeStyle;rounded=0;orthogonalLoop=1;jettySize=auto;html=1;elbow=vertical;labelBackgroundColor=none;strokeColor=#A8201A;fontColor=default;" edge="1" parent="1" source="UO1zMGvTBw0WsCUddAWi-184" target="UO1zMGvTBw0WsCUddAWi-154">
          <mxGeometry relative="1" as="geometry" />
        </mxCell>
        <mxCell id="UO1zMGvTBw0WsCUddAWi-184" value="获取图书具体信息" style="html=1;rounded=1;labelBackgroundColor=none;fillColor=#FAE5C7;strokeColor=#0F8B8D;fontColor=#143642;" vertex="1" parent="1">
          <mxGeometry x="420" y="95" width="110" height="40" as="geometry" />
        </mxCell>
        <mxCell id="UO1zMGvTBw0WsCUddAWi-186" value="«datastore»&lt;br&gt;&lt;br&gt;&lt;b&gt;书籍数据&lt;/b&gt;" style="html=1;align=center;verticalAlign=middle;dashed=0;rounded=1;labelBackgroundColor=none;fillColor=#FAE5C7;strokeColor=#0F8B8D;fontColor=#143642;" vertex="1" parent="1">
          <mxGeometry x="585" y="240" width="120" height="50" as="geometry" />
        </mxCell>
        <mxCell id="UO1zMGvTBw0WsCUddAWi-187" style="edgeStyle=orthogonalEdgeStyle;rounded=0;orthogonalLoop=1;jettySize=auto;html=1;elbow=vertical;labelBackgroundColor=none;strokeColor=#A8201A;fontColor=default;" edge="1" parent="1" source="UO1zMGvTBw0WsCUddAWi-188" target="UO1zMGvTBw0WsCUddAWi-186">
          <mxGeometry relative="1" as="geometry" />
        </mxCell>
        <mxCell id="UO1zMGvTBw0WsCUddAWi-188" value="新增书籍记录" style="html=1;rounded=1;labelBackgroundColor=none;fillColor=#FAE5C7;strokeColor=#0F8B8D;fontColor=#143642;" vertex="1" parent="1">
          <mxGeometry x="420" y="245" width="110" height="40" as="geometry" />
        </mxCell>
        <mxCell id="UO1zMGvTBw0WsCUddAWi-189" style="edgeStyle=orthogonalEdgeStyle;rounded=0;orthogonalLoop=1;jettySize=auto;html=1;elbow=vertical;labelBackgroundColor=none;strokeColor=#A8201A;fontColor=default;" edge="1" parent="1" source="UO1zMGvTBw0WsCUddAWi-190" target="UO1zMGvTBw0WsCUddAWi-192">
          <mxGeometry relative="1" as="geometry" />
        </mxCell>
        <mxCell id="UO1zMGvTBw0WsCUddAWi-190" value="&#xa;&#xa;&#xa;书籍管理员" style="ellipse;fillColor=#FAE5C7;rounded=0;labelBackgroundColor=none;strokeColor=#0F8B8D;fontColor=#143642;" vertex="1" parent="1">
          <mxGeometry x="80" y="320" width="30" height="30" as="geometry" />
        </mxCell>
        <mxCell id="UO1zMGvTBw0WsCUddAWi-191" value="" style="edgeStyle=none;rounded=0;orthogonalLoop=1;jettySize=auto;html=1;elbow=vertical;labelBackgroundColor=none;strokeColor=#A8201A;fontColor=default;" edge="1" parent="1" source="UO1zMGvTBw0WsCUddAWi-192" target="UO1zMGvTBw0WsCUddAWi-196">
          <mxGeometry relative="1" as="geometry">
            <mxPoint x="335" y="405" as="targetPoint" />
          </mxGeometry>
        </mxCell>
        <mxCell id="UO1zMGvTBw0WsCUddAWi-192" value="图书注销" style="html=1;rounded=1;labelBackgroundColor=none;fillColor=#FAE5C7;strokeColor=#0F8B8D;fontColor=#143642;" vertex="1" parent="1">
          <mxGeometry x="130" y="385" width="110" height="40" as="geometry" />
        </mxCell>
        <mxCell id="UO1zMGvTBw0WsCUddAWi-193" style="edgeStyle=none;rounded=0;orthogonalLoop=1;jettySize=auto;html=1;elbow=vertical;labelBackgroundColor=none;strokeColor=#A8201A;fontColor=default;" edge="1" parent="1" source="UO1zMGvTBw0WsCUddAWi-200" target="UO1zMGvTBw0WsCUddAWi-197">
          <mxGeometry relative="1" as="geometry" />
        </mxCell>
        <mxCell id="UO1zMGvTBw0WsCUddAWi-194" value="T" style="edgeStyle=none;rounded=0;orthogonalLoop=1;jettySize=auto;html=1;elbow=vertical;labelBackgroundColor=none;strokeColor=#A8201A;fontColor=default;" edge="1" parent="1" source="UO1zMGvTBw0WsCUddAWi-196" target="UO1zMGvTBw0WsCUddAWi-202">
          <mxGeometry relative="1" as="geometry" />
        </mxCell>
        <mxCell id="UO1zMGvTBw0WsCUddAWi-195" value="" style="edgeStyle=none;rounded=0;orthogonalLoop=1;jettySize=auto;html=1;elbow=vertical;labelBackgroundColor=none;strokeColor=#A8201A;fontColor=default;" edge="1" parent="1" source="UO1zMGvTBw0WsCUddAWi-196" target="UO1zMGvTBw0WsCUddAWi-199">
          <mxGeometry relative="1" as="geometry" />
        </mxCell>
        <mxCell id="UO1zMGvTBw0WsCUddAWi-196" value="&#xa;录入数据完整" style="rhombus;rounded=0;labelBackgroundColor=none;fillColor=#FAE5C7;strokeColor=#0F8B8D;fontColor=#143642;" vertex="1" parent="1">
          <mxGeometry x="320" y="390" width="30" height="30" as="geometry" />
        </mxCell>
        <mxCell id="UO1zMGvTBw0WsCUddAWi-197" value="" style="ellipse;html=1;shape=endState;fillColor=#FAE5C7;rounded=0;labelBackgroundColor=none;strokeColor=#0F8B8D;fontColor=#143642;" vertex="1" parent="1">
          <mxGeometry x="760" y="390" width="30" height="30" as="geometry" />
        </mxCell>
        <mxCell id="UO1zMGvTBw0WsCUddAWi-198" style="edgeStyle=orthogonalEdgeStyle;rounded=0;orthogonalLoop=1;jettySize=auto;html=1;elbow=vertical;labelBackgroundColor=none;strokeColor=#A8201A;fontColor=default;" edge="1" parent="1" source="UO1zMGvTBw0WsCUddAWi-199" target="UO1zMGvTBw0WsCUddAWi-197">
          <mxGeometry relative="1" as="geometry" />
        </mxCell>
        <mxCell id="UO1zMGvTBw0WsCUddAWi-199" value="给出提示" style="html=1;rounded=1;labelBackgroundColor=none;fillColor=#FAE5C7;strokeColor=#0F8B8D;fontColor=#143642;" vertex="1" parent="1">
          <mxGeometry x="280" y="320" width="110" height="40" as="geometry" />
        </mxCell>
        <mxCell id="UO1zMGvTBw0WsCUddAWi-200" value="«datastore»&lt;br&gt;&lt;br&gt;&lt;b&gt;书籍数据&lt;/b&gt;" style="html=1;align=center;verticalAlign=middle;dashed=0;rounded=1;labelBackgroundColor=none;fillColor=#FAE5C7;strokeColor=#0F8B8D;fontColor=#143642;" vertex="1" parent="1">
          <mxGeometry x="585" y="380" width="120" height="50" as="geometry" />
        </mxCell>
        <mxCell id="UO1zMGvTBw0WsCUddAWi-201" style="edgeStyle=orthogonalEdgeStyle;rounded=0;orthogonalLoop=1;jettySize=auto;html=1;elbow=vertical;labelBackgroundColor=none;strokeColor=#A8201A;fontColor=default;" edge="1" parent="1" source="UO1zMGvTBw0WsCUddAWi-202" target="UO1zMGvTBw0WsCUddAWi-200">
          <mxGeometry relative="1" as="geometry" />
        </mxCell>
        <mxCell id="UO1zMGvTBw0WsCUddAWi-202" value="清理书籍记录" style="html=1;rounded=1;labelBackgroundColor=none;fillColor=#FAE5C7;strokeColor=#0F8B8D;fontColor=#143642;" vertex="1" parent="1">
          <mxGeometry x="420" y="385" width="110" height="40" as="geometry" />
        </mxCell>
        <mxCell id="UO1zMGvTBw0WsCUddAWi-204" style="edgeStyle=orthogonalEdgeStyle;rounded=0;orthogonalLoop=1;jettySize=auto;html=1;elbow=vertical;labelBackgroundColor=none;strokeColor=#A8201A;fontColor=default;" edge="1" parent="1" source="UO1zMGvTBw0WsCUddAWi-205" target="UO1zMGvTBw0WsCUddAWi-207">
          <mxGeometry relative="1" as="geometry" />
        </mxCell>
        <mxCell id="UO1zMGvTBw0WsCUddAWi-240" style="edgeStyle=orthogonalEdgeStyle;rounded=0;orthogonalLoop=1;jettySize=auto;html=1;elbow=vertical;labelBackgroundColor=none;strokeColor=#A8201A;fontColor=default;" edge="1" parent="1" source="UO1zMGvTBw0WsCUddAWi-205" target="UO1zMGvTBw0WsCUddAWi-221">
          <mxGeometry relative="1" as="geometry" />
        </mxCell>
        <mxCell id="UO1zMGvTBw0WsCUddAWi-205" value="&#xa;&#xa;&#xa;用户" style="ellipse;fillColor=#FAE5C7;rounded=0;labelBackgroundColor=none;strokeColor=#0F8B8D;fontColor=#143642;" vertex="1" parent="1">
          <mxGeometry x="70" y="625" width="30" height="30" as="geometry" />
        </mxCell>
        <mxCell id="UO1zMGvTBw0WsCUddAWi-206" value="" style="edgeStyle=none;rounded=0;orthogonalLoop=1;jettySize=auto;html=1;elbow=vertical;labelBackgroundColor=none;strokeColor=#A8201A;fontColor=default;" edge="1" parent="1" source="UO1zMGvTBw0WsCUddAWi-207" target="UO1zMGvTBw0WsCUddAWi-212">
          <mxGeometry relative="1" as="geometry">
            <mxPoint x="335" y="575" as="targetPoint" />
          </mxGeometry>
        </mxCell>
        <mxCell id="UO1zMGvTBw0WsCUddAWi-207" value="图书借出" style="html=1;rounded=1;labelBackgroundColor=none;fillColor=#FAE5C7;strokeColor=#0F8B8D;fontColor=#143642;" vertex="1" parent="1">
          <mxGeometry x="130" y="555" width="110" height="40" as="geometry" />
        </mxCell>
        <mxCell id="UO1zMGvTBw0WsCUddAWi-208" style="edgeStyle=orthogonalEdgeStyle;rounded=0;orthogonalLoop=1;jettySize=auto;html=1;elbow=vertical;labelBackgroundColor=none;strokeColor=#A8201A;fontColor=default;" edge="1" parent="1" source="UO1zMGvTBw0WsCUddAWi-209" target="UO1zMGvTBw0WsCUddAWi-213">
          <mxGeometry relative="1" as="geometry" />
        </mxCell>
        <mxCell id="UO1zMGvTBw0WsCUddAWi-209" value="«datastore»&lt;br&gt;&lt;br&gt;&lt;b&gt;书籍数据&lt;/b&gt;" style="html=1;align=center;verticalAlign=middle;dashed=0;rounded=1;labelBackgroundColor=none;fillColor=#FAE5C7;strokeColor=#0F8B8D;fontColor=#143642;" vertex="1" parent="1">
          <mxGeometry x="585" y="550" width="120" height="50" as="geometry" />
        </mxCell>
        <mxCell id="UO1zMGvTBw0WsCUddAWi-210" value="T" style="edgeStyle=none;rounded=0;orthogonalLoop=1;jettySize=auto;html=1;elbow=vertical;labelBackgroundColor=none;strokeColor=#A8201A;fontColor=default;" edge="1" parent="1" source="UO1zMGvTBw0WsCUddAWi-212" target="UO1zMGvTBw0WsCUddAWi-217">
          <mxGeometry relative="1" as="geometry" />
        </mxCell>
        <mxCell id="UO1zMGvTBw0WsCUddAWi-211" value="" style="edgeStyle=none;rounded=0;orthogonalLoop=1;jettySize=auto;html=1;elbow=vertical;labelBackgroundColor=none;strokeColor=#A8201A;fontColor=default;" edge="1" parent="1" source="UO1zMGvTBw0WsCUddAWi-212" target="UO1zMGvTBw0WsCUddAWi-215">
          <mxGeometry relative="1" as="geometry" />
        </mxCell>
        <mxCell id="UO1zMGvTBw0WsCUddAWi-212" value="&#xa;存在&#xa;且可以借出" style="rhombus;rounded=0;labelBackgroundColor=none;fillColor=#FAE5C7;strokeColor=#0F8B8D;fontColor=#143642;" vertex="1" parent="1">
          <mxGeometry x="320" y="560" width="30" height="30" as="geometry" />
        </mxCell>
        <mxCell id="UO1zMGvTBw0WsCUddAWi-213" value="" style="ellipse;html=1;shape=endState;fillColor=#FAE5C7;rounded=0;labelBackgroundColor=none;strokeColor=#0F8B8D;fontColor=#143642;" vertex="1" parent="1">
          <mxGeometry x="760" y="560" width="30" height="30" as="geometry" />
        </mxCell>
        <mxCell id="UO1zMGvTBw0WsCUddAWi-214" style="edgeStyle=orthogonalEdgeStyle;rounded=0;orthogonalLoop=1;jettySize=auto;html=1;elbow=vertical;labelBackgroundColor=none;strokeColor=#A8201A;fontColor=default;" edge="1" parent="1" source="UO1zMGvTBw0WsCUddAWi-215" target="UO1zMGvTBw0WsCUddAWi-213">
          <mxGeometry relative="1" as="geometry" />
        </mxCell>
        <mxCell id="UO1zMGvTBw0WsCUddAWi-215" value="给出提示" style="html=1;rounded=1;labelBackgroundColor=none;fillColor=#FAE5C7;strokeColor=#0F8B8D;fontColor=#143642;" vertex="1" parent="1">
          <mxGeometry x="280" y="490" width="110" height="40" as="geometry" />
        </mxCell>
        <mxCell id="UO1zMGvTBw0WsCUddAWi-216" style="edgeStyle=orthogonalEdgeStyle;rounded=0;orthogonalLoop=1;jettySize=auto;html=1;elbow=vertical;labelBackgroundColor=none;strokeColor=#A8201A;fontColor=default;" edge="1" parent="1" source="UO1zMGvTBw0WsCUddAWi-217" target="UO1zMGvTBw0WsCUddAWi-209">
          <mxGeometry relative="1" as="geometry" />
        </mxCell>
        <mxCell id="UO1zMGvTBw0WsCUddAWi-217" value="更新书籍借出状态" style="html=1;rounded=1;labelBackgroundColor=none;fillColor=#FAE5C7;strokeColor=#0F8B8D;fontColor=#143642;" vertex="1" parent="1">
          <mxGeometry x="420" y="555" width="110" height="40" as="geometry" />
        </mxCell>
        <mxCell id="UO1zMGvTBw0WsCUddAWi-220" value="" style="edgeStyle=none;rounded=0;orthogonalLoop=1;jettySize=auto;html=1;elbow=vertical;labelBackgroundColor=none;strokeColor=#A8201A;fontColor=default;" edge="1" parent="1" source="UO1zMGvTBw0WsCUddAWi-221" target="UO1zMGvTBw0WsCUddAWi-226">
          <mxGeometry relative="1" as="geometry">
            <mxPoint x="335" y="705" as="targetPoint" />
          </mxGeometry>
        </mxCell>
        <mxCell id="UO1zMGvTBw0WsCUddAWi-221" value="图书归还" style="html=1;rounded=1;labelBackgroundColor=none;fillColor=#FAE5C7;strokeColor=#0F8B8D;fontColor=#143642;" vertex="1" parent="1">
          <mxGeometry x="130" y="685" width="110" height="40" as="geometry" />
        </mxCell>
        <mxCell id="UO1zMGvTBw0WsCUddAWi-222" style="edgeStyle=orthogonalEdgeStyle;rounded=0;orthogonalLoop=1;jettySize=auto;html=1;elbow=vertical;labelBackgroundColor=none;strokeColor=#A8201A;fontColor=default;" edge="1" parent="1" source="UO1zMGvTBw0WsCUddAWi-223" target="UO1zMGvTBw0WsCUddAWi-227">
          <mxGeometry relative="1" as="geometry" />
        </mxCell>
        <mxCell id="UO1zMGvTBw0WsCUddAWi-223" value="«datastore»&lt;br&gt;&lt;br&gt;&lt;b&gt;书籍数据&lt;/b&gt;" style="html=1;align=center;verticalAlign=middle;dashed=0;rounded=1;labelBackgroundColor=none;fillColor=#FAE5C7;strokeColor=#0F8B8D;fontColor=#143642;" vertex="1" parent="1">
          <mxGeometry x="585" y="680" width="120" height="50" as="geometry" />
        </mxCell>
        <mxCell id="UO1zMGvTBw0WsCUddAWi-224" value="T" style="edgeStyle=none;rounded=0;orthogonalLoop=1;jettySize=auto;html=1;elbow=vertical;labelBackgroundColor=none;strokeColor=#A8201A;fontColor=default;" edge="1" parent="1" source="UO1zMGvTBw0WsCUddAWi-226" target="UO1zMGvTBw0WsCUddAWi-233">
          <mxGeometry relative="1" as="geometry" />
        </mxCell>
        <mxCell id="UO1zMGvTBw0WsCUddAWi-225" value="" style="edgeStyle=none;rounded=0;orthogonalLoop=1;jettySize=auto;html=1;elbow=vertical;labelBackgroundColor=none;strokeColor=#A8201A;fontColor=default;" edge="1" parent="1" source="UO1zMGvTBw0WsCUddAWi-226" target="UO1zMGvTBw0WsCUddAWi-229">
          <mxGeometry relative="1" as="geometry" />
        </mxCell>
        <mxCell id="UO1zMGvTBw0WsCUddAWi-226" value="&#xa;存在&#xa;自己的借出记录" style="rhombus;rounded=0;labelBackgroundColor=none;fillColor=#FAE5C7;strokeColor=#0F8B8D;fontColor=#143642;" vertex="1" parent="1">
          <mxGeometry x="320" y="690" width="30" height="30" as="geometry" />
        </mxCell>
        <mxCell id="UO1zMGvTBw0WsCUddAWi-227" value="" style="ellipse;html=1;shape=endState;fillColor=#FAE5C7;rounded=0;labelBackgroundColor=none;strokeColor=#0F8B8D;fontColor=#143642;" vertex="1" parent="1">
          <mxGeometry x="760" y="690" width="30" height="30" as="geometry" />
        </mxCell>
        <mxCell id="UO1zMGvTBw0WsCUddAWi-228" style="edgeStyle=orthogonalEdgeStyle;rounded=0;orthogonalLoop=1;jettySize=auto;html=1;elbow=vertical;labelBackgroundColor=none;strokeColor=#A8201A;fontColor=default;" edge="1" parent="1" source="UO1zMGvTBw0WsCUddAWi-229" target="UO1zMGvTBw0WsCUddAWi-227">
          <mxGeometry relative="1" as="geometry" />
        </mxCell>
        <mxCell id="UO1zMGvTBw0WsCUddAWi-229" value="给出提示" style="html=1;rounded=1;labelBackgroundColor=none;fillColor=#FAE5C7;strokeColor=#0F8B8D;fontColor=#143642;" vertex="1" parent="1">
          <mxGeometry x="280" y="620" width="110" height="40" as="geometry" />
        </mxCell>
        <mxCell id="UO1zMGvTBw0WsCUddAWi-230" style="edgeStyle=orthogonalEdgeStyle;rounded=0;orthogonalLoop=1;jettySize=auto;html=1;elbow=vertical;labelBackgroundColor=none;strokeColor=#A8201A;fontColor=default;" edge="1" parent="1" source="UO1zMGvTBw0WsCUddAWi-231" target="UO1zMGvTBw0WsCUddAWi-223">
          <mxGeometry relative="1" as="geometry" />
        </mxCell>
        <mxCell id="UO1zMGvTBw0WsCUddAWi-231" value="更新书籍借出状态" style="html=1;rounded=1;labelBackgroundColor=none;fillColor=#FAE5C7;strokeColor=#0F8B8D;fontColor=#143642;" vertex="1" parent="1">
          <mxGeometry x="420" y="685" width="110" height="40" as="geometry" />
        </mxCell>
        <mxCell id="UO1zMGvTBw0WsCUddAWi-236" style="edgeStyle=none;rounded=0;orthogonalLoop=1;jettySize=auto;html=1;elbow=vertical;labelBackgroundColor=none;strokeColor=#A8201A;fontColor=default;" edge="1" parent="1" source="UO1zMGvTBw0WsCUddAWi-232" target="UO1zMGvTBw0WsCUddAWi-231">
          <mxGeometry relative="1" as="geometry">
            <mxPoint x="600.2631578947369" y="775" as="sourcePoint" />
          </mxGeometry>
        </mxCell>
        <mxCell id="UO1zMGvTBw0WsCUddAWi-232" value="更新书籍逾期情况" style="html=1;rounded=1;labelBackgroundColor=none;fillColor=#FAE5C7;strokeColor=#0F8B8D;fontColor=#143642;" vertex="1" parent="1">
          <mxGeometry x="420" y="780" width="110" height="40" as="geometry" />
        </mxCell>
        <mxCell id="UO1zMGvTBw0WsCUddAWi-234" value="T" style="edgeStyle=orthogonalEdgeStyle;rounded=0;orthogonalLoop=1;jettySize=auto;html=1;elbow=vertical;labelBackgroundColor=none;strokeColor=#A8201A;fontColor=default;" edge="1" parent="1" source="UO1zMGvTBw0WsCUddAWi-233" target="UO1zMGvTBw0WsCUddAWi-232">
          <mxGeometry relative="1" as="geometry" />
        </mxCell>
        <mxCell id="UO1zMGvTBw0WsCUddAWi-235" style="rounded=0;orthogonalLoop=1;jettySize=auto;html=1;elbow=vertical;labelBackgroundColor=none;strokeColor=#A8201A;fontColor=default;" edge="1" parent="1" source="UO1zMGvTBw0WsCUddAWi-233" target="UO1zMGvTBw0WsCUddAWi-231">
          <mxGeometry relative="1" as="geometry" />
        </mxCell>
        <mxCell id="UO1zMGvTBw0WsCUddAWi-233" value="&#xa;是否还书逾期" style="rhombus;rounded=0;labelBackgroundColor=none;fillColor=#FAE5C7;strokeColor=#0F8B8D;fontColor=#143642;" vertex="1" parent="1">
          <mxGeometry x="320" y="785" width="30" height="30" as="geometry" />
        </mxCell>
        <mxCell id="UO1zMGvTBw0WsCUddAWi-241" style="edgeStyle=orthogonalEdgeStyle;rounded=0;orthogonalLoop=1;jettySize=auto;html=1;elbow=vertical;labelBackgroundColor=none;strokeColor=#A8201A;fontColor=default;" edge="1" parent="1" source="UO1zMGvTBw0WsCUddAWi-242" target="UO1zMGvTBw0WsCUddAWi-244">
          <mxGeometry relative="1" as="geometry" />
        </mxCell>
        <mxCell id="UO1zMGvTBw0WsCUddAWi-242" value="&#xa;&#xa;&#xa;书籍管理员" style="ellipse;fillColor=#FAE5C7;rounded=0;labelBackgroundColor=none;strokeColor=#0F8B8D;fontColor=#143642;" vertex="1" parent="1">
          <mxGeometry x="70" y="850" width="30" height="30" as="geometry" />
        </mxCell>
        <mxCell id="UO1zMGvTBw0WsCUddAWi-243" value="" style="edgeStyle=none;rounded=0;orthogonalLoop=1;jettySize=auto;html=1;elbow=vertical;labelBackgroundColor=none;strokeColor=#A8201A;fontColor=default;" edge="1" parent="1" source="UO1zMGvTBw0WsCUddAWi-244" target="UO1zMGvTBw0WsCUddAWi-252">
          <mxGeometry relative="1" as="geometry">
            <mxPoint x="310" y="864.9999999999998" as="targetPoint" />
          </mxGeometry>
        </mxCell>
        <mxCell id="UO1zMGvTBw0WsCUddAWi-244" value="&lt;span style=&quot;text-align: left;&quot;&gt;查询今日逾期读者&lt;/span&gt;" style="html=1;rounded=1;labelBackgroundColor=none;fillColor=#FAE5C7;strokeColor=#0F8B8D;fontColor=#143642;" vertex="1" parent="1">
          <mxGeometry x="150" y="845" width="110" height="40" as="geometry" />
        </mxCell>
        <mxCell id="UO1zMGvTBw0WsCUddAWi-245" style="edgeStyle=none;rounded=0;orthogonalLoop=1;jettySize=auto;html=1;elbow=vertical;labelBackgroundColor=none;strokeColor=#A8201A;fontColor=default;" edge="1" parent="1" source="UO1zMGvTBw0WsCUddAWi-252" target="UO1zMGvTBw0WsCUddAWi-258">
          <mxGeometry relative="1" as="geometry" />
        </mxCell>
        <mxCell id="UO1zMGvTBw0WsCUddAWi-249" value="" style="ellipse;html=1;shape=endState;fillColor=#FAE5C7;rounded=0;labelBackgroundColor=none;strokeColor=#0F8B8D;fontColor=#143642;" vertex="1" parent="1">
          <mxGeometry x="750" y="850" width="30" height="30" as="geometry" />
        </mxCell>
        <mxCell id="UO1zMGvTBw0WsCUddAWi-252" value="«datastore»&lt;br&gt;&lt;br&gt;&lt;b&gt;用户数据&lt;/b&gt;" style="html=1;align=center;verticalAlign=middle;dashed=0;rounded=1;labelBackgroundColor=none;fillColor=#FAE5C7;strokeColor=#0F8B8D;fontColor=#143642;" vertex="1" parent="1">
          <mxGeometry x="330" y="840" width="120" height="50" as="geometry" />
        </mxCell>
        <mxCell id="UO1zMGvTBw0WsCUddAWi-257" value="" style="edgeStyle=none;rounded=0;orthogonalLoop=1;jettySize=auto;html=1;elbow=vertical;labelBackgroundColor=none;strokeColor=#A8201A;fontColor=default;" edge="1" parent="1" source="UO1zMGvTBw0WsCUddAWi-258" target="UO1zMGvTBw0WsCUddAWi-259">
          <mxGeometry relative="1" as="geometry" />
        </mxCell>
        <mxCell id="UO1zMGvTBw0WsCUddAWi-260" value="T" style="edgeStyle=orthogonalEdgeStyle;rounded=0;orthogonalLoop=1;jettySize=auto;html=1;strokeColor=#A8201A;fontColor=#143642;fillColor=#FAE5C7;" edge="1" parent="1" source="UO1zMGvTBw0WsCUddAWi-258" target="UO1zMGvTBw0WsCUddAWi-249">
          <mxGeometry relative="1" as="geometry" />
        </mxCell>
        <mxCell id="UO1zMGvTBw0WsCUddAWi-258" value="&#xa;&#xa;今日存在逾期读者" style="rhombus;rounded=0;labelBackgroundColor=none;fillColor=#FAE5C7;strokeColor=#0F8B8D;fontColor=#143642;" vertex="1" parent="1">
          <mxGeometry x="630" y="850" width="30" height="30" as="geometry" />
        </mxCell>
        <mxCell id="UO1zMGvTBw0WsCUddAWi-259" value="给出提示" style="html=1;rounded=1;labelBackgroundColor=none;fillColor=#FAE5C7;strokeColor=#0F8B8D;fontColor=#143642;" vertex="1" parent="1">
          <mxGeometry x="590" y="780" width="110" height="40" as="geometry" />
        </mxCell>
        <mxCell id="UO1zMGvTBw0WsCUddAWi-262" style="edgeStyle=orthogonalEdgeStyle;rounded=0;orthogonalLoop=1;jettySize=auto;html=1;elbow=vertical;labelBackgroundColor=none;strokeColor=#A8201A;fontColor=default;" edge="1" parent="1" source="UO1zMGvTBw0WsCUddAWi-276" target="UO1zMGvTBw0WsCUddAWi-264">
          <mxGeometry relative="1" as="geometry">
            <mxPoint x="900.0000000000002" y="150" as="sourcePoint" />
          </mxGeometry>
        </mxCell>
        <mxCell id="UO1zMGvTBw0WsCUddAWi-263" value="" style="edgeStyle=none;rounded=0;orthogonalLoop=1;jettySize=auto;html=1;elbow=vertical;labelBackgroundColor=none;strokeColor=#A8201A;fontColor=default;" edge="1" parent="1" source="UO1zMGvTBw0WsCUddAWi-264" target="UO1zMGvTBw0WsCUddAWi-268">
          <mxGeometry relative="1" as="geometry">
            <mxPoint x="1135" y="150" as="targetPoint" />
          </mxGeometry>
        </mxCell>
        <mxCell id="UO1zMGvTBw0WsCUddAWi-264" value="增加读者" style="html=1;rounded=1;labelBackgroundColor=none;fillColor=#FAE5C7;strokeColor=#0F8B8D;fontColor=#143642;" vertex="1" parent="1">
          <mxGeometry x="930" y="130" width="110" height="40" as="geometry" />
        </mxCell>
        <mxCell id="UO1zMGvTBw0WsCUddAWi-265" style="edgeStyle=none;rounded=0;orthogonalLoop=1;jettySize=auto;html=1;elbow=vertical;labelBackgroundColor=none;strokeColor=#A8201A;fontColor=default;" edge="1" parent="1" source="UO1zMGvTBw0WsCUddAWi-272" target="UO1zMGvTBw0WsCUddAWi-269">
          <mxGeometry relative="1" as="geometry" />
        </mxCell>
        <mxCell id="UO1zMGvTBw0WsCUddAWi-266" value="T" style="edgeStyle=none;rounded=0;orthogonalLoop=1;jettySize=auto;html=1;elbow=vertical;labelBackgroundColor=none;strokeColor=#A8201A;fontColor=default;" edge="1" parent="1" source="UO1zMGvTBw0WsCUddAWi-268" target="UO1zMGvTBw0WsCUddAWi-274">
          <mxGeometry relative="1" as="geometry" />
        </mxCell>
        <mxCell id="UO1zMGvTBw0WsCUddAWi-267" value="" style="edgeStyle=none;rounded=0;orthogonalLoop=1;jettySize=auto;html=1;elbow=vertical;labelBackgroundColor=none;strokeColor=#A8201A;fontColor=default;" edge="1" parent="1" source="UO1zMGvTBw0WsCUddAWi-268" target="UO1zMGvTBw0WsCUddAWi-271">
          <mxGeometry relative="1" as="geometry" />
        </mxCell>
        <mxCell id="UO1zMGvTBw0WsCUddAWi-268" value="&#xa;读者唯一标识不存在" style="rhombus;rounded=0;labelBackgroundColor=none;fillColor=#FAE5C7;strokeColor=#0F8B8D;fontColor=#143642;" vertex="1" parent="1">
          <mxGeometry x="1120" y="135" width="30" height="30" as="geometry" />
        </mxCell>
        <mxCell id="UO1zMGvTBw0WsCUddAWi-269" value="" style="ellipse;html=1;shape=endState;fillColor=#FAE5C7;rounded=0;labelBackgroundColor=none;strokeColor=#0F8B8D;fontColor=#143642;" vertex="1" parent="1">
          <mxGeometry x="1560" y="135" width="30" height="30" as="geometry" />
        </mxCell>
        <mxCell id="UO1zMGvTBw0WsCUddAWi-270" style="edgeStyle=orthogonalEdgeStyle;rounded=0;orthogonalLoop=1;jettySize=auto;html=1;elbow=vertical;labelBackgroundColor=none;strokeColor=#A8201A;fontColor=default;" edge="1" parent="1" source="UO1zMGvTBw0WsCUddAWi-271" target="UO1zMGvTBw0WsCUddAWi-269">
          <mxGeometry relative="1" as="geometry" />
        </mxCell>
        <mxCell id="UO1zMGvTBw0WsCUddAWi-271" value="给出提示" style="html=1;rounded=1;labelBackgroundColor=none;fillColor=#FAE5C7;strokeColor=#0F8B8D;fontColor=#143642;" vertex="1" parent="1">
          <mxGeometry x="1080" y="65" width="110" height="40" as="geometry" />
        </mxCell>
        <mxCell id="UO1zMGvTBw0WsCUddAWi-272" value="«datastore»&lt;br style=&quot;border-color: var(--border-color);&quot;&gt;&lt;br style=&quot;border-color: var(--border-color);&quot;&gt;&lt;b style=&quot;border-color: var(--border-color);&quot;&gt;用户数据&lt;/b&gt;" style="html=1;align=center;verticalAlign=middle;dashed=0;rounded=1;labelBackgroundColor=none;fillColor=#FAE5C7;strokeColor=#0F8B8D;fontColor=#143642;" vertex="1" parent="1">
          <mxGeometry x="1385" y="125" width="120" height="50" as="geometry" />
        </mxCell>
        <mxCell id="UO1zMGvTBw0WsCUddAWi-273" style="edgeStyle=orthogonalEdgeStyle;rounded=0;orthogonalLoop=1;jettySize=auto;html=1;elbow=vertical;labelBackgroundColor=none;strokeColor=#A8201A;fontColor=default;" edge="1" parent="1" source="UO1zMGvTBw0WsCUddAWi-274" target="UO1zMGvTBw0WsCUddAWi-272">
          <mxGeometry relative="1" as="geometry" />
        </mxCell>
        <mxCell id="UO1zMGvTBw0WsCUddAWi-274" value="新增读者" style="html=1;rounded=1;labelBackgroundColor=none;fillColor=#FAE5C7;strokeColor=#0F8B8D;fontColor=#143642;" vertex="1" parent="1">
          <mxGeometry x="1220" y="130" width="110" height="40" as="geometry" />
        </mxCell>
        <mxCell id="UO1zMGvTBw0WsCUddAWi-275" style="edgeStyle=orthogonalEdgeStyle;rounded=0;orthogonalLoop=1;jettySize=auto;html=1;elbow=vertical;labelBackgroundColor=none;strokeColor=#A8201A;fontColor=default;" edge="1" parent="1" source="UO1zMGvTBw0WsCUddAWi-276" target="UO1zMGvTBw0WsCUddAWi-278">
          <mxGeometry relative="1" as="geometry" />
        </mxCell>
        <mxCell id="UO1zMGvTBw0WsCUddAWi-302" style="edgeStyle=orthogonalEdgeStyle;rounded=0;orthogonalLoop=1;jettySize=auto;html=1;strokeColor=#A8201A;fontColor=#143642;fillColor=#FAE5C7;" edge="1" parent="1" source="UO1zMGvTBw0WsCUddAWi-276" target="UO1zMGvTBw0WsCUddAWi-291">
          <mxGeometry relative="1" as="geometry">
            <Array as="points">
              <mxPoint x="895" y="370" />
            </Array>
          </mxGeometry>
        </mxCell>
        <mxCell id="UO1zMGvTBw0WsCUddAWi-327" style="edgeStyle=orthogonalEdgeStyle;rounded=0;orthogonalLoop=1;jettySize=auto;html=1;strokeColor=#A8201A;fontColor=#143642;fillColor=#FAE5C7;" edge="1" parent="1" source="UO1zMGvTBw0WsCUddAWi-276" target="UO1zMGvTBw0WsCUddAWi-304">
          <mxGeometry relative="1" as="geometry">
            <Array as="points">
              <mxPoint x="895" y="515" />
            </Array>
          </mxGeometry>
        </mxCell>
        <mxCell id="UO1zMGvTBw0WsCUddAWi-276" value="&#xa;&#xa;&#xa;用户管理员" style="ellipse;fillColor=#FAE5C7;rounded=0;labelBackgroundColor=none;strokeColor=#0F8B8D;fontColor=#143642;" vertex="1" parent="1">
          <mxGeometry x="880" y="205" width="30" height="30" as="geometry" />
        </mxCell>
        <mxCell id="UO1zMGvTBw0WsCUddAWi-277" value="" style="edgeStyle=none;rounded=0;orthogonalLoop=1;jettySize=auto;html=1;elbow=vertical;labelBackgroundColor=none;strokeColor=#A8201A;fontColor=default;" edge="1" parent="1" source="UO1zMGvTBw0WsCUddAWi-278" target="UO1zMGvTBw0WsCUddAWi-282">
          <mxGeometry relative="1" as="geometry">
            <mxPoint x="1135" y="290" as="targetPoint" />
          </mxGeometry>
        </mxCell>
        <mxCell id="UO1zMGvTBw0WsCUddAWi-278" value="删除读者" style="html=1;rounded=1;labelBackgroundColor=none;fillColor=#FAE5C7;strokeColor=#0F8B8D;fontColor=#143642;" vertex="1" parent="1">
          <mxGeometry x="930" y="270" width="110" height="40" as="geometry" />
        </mxCell>
        <mxCell id="UO1zMGvTBw0WsCUddAWi-279" style="edgeStyle=none;rounded=0;orthogonalLoop=1;jettySize=auto;html=1;elbow=vertical;labelBackgroundColor=none;strokeColor=#A8201A;fontColor=default;" edge="1" parent="1" source="UO1zMGvTBw0WsCUddAWi-286" target="UO1zMGvTBw0WsCUddAWi-283">
          <mxGeometry relative="1" as="geometry" />
        </mxCell>
        <mxCell id="UO1zMGvTBw0WsCUddAWi-280" value="T" style="edgeStyle=none;rounded=0;orthogonalLoop=1;jettySize=auto;html=1;elbow=vertical;labelBackgroundColor=none;strokeColor=#A8201A;fontColor=default;" edge="1" parent="1" source="UO1zMGvTBw0WsCUddAWi-282" target="UO1zMGvTBw0WsCUddAWi-288">
          <mxGeometry relative="1" as="geometry" />
        </mxCell>
        <mxCell id="UO1zMGvTBw0WsCUddAWi-281" value="" style="edgeStyle=none;rounded=0;orthogonalLoop=1;jettySize=auto;html=1;elbow=vertical;labelBackgroundColor=none;strokeColor=#A8201A;fontColor=default;" edge="1" parent="1" source="UO1zMGvTBw0WsCUddAWi-282" target="UO1zMGvTBw0WsCUddAWi-285">
          <mxGeometry relative="1" as="geometry" />
        </mxCell>
        <mxCell id="UO1zMGvTBw0WsCUddAWi-282" value="&#xa;读者已存在" style="rhombus;rounded=0;labelBackgroundColor=none;fillColor=#FAE5C7;strokeColor=#0F8B8D;fontColor=#143642;" vertex="1" parent="1">
          <mxGeometry x="1120" y="275" width="30" height="30" as="geometry" />
        </mxCell>
        <mxCell id="UO1zMGvTBw0WsCUddAWi-283" value="" style="ellipse;html=1;shape=endState;fillColor=#FAE5C7;rounded=0;labelBackgroundColor=none;strokeColor=#0F8B8D;fontColor=#143642;" vertex="1" parent="1">
          <mxGeometry x="1560" y="275" width="30" height="30" as="geometry" />
        </mxCell>
        <mxCell id="UO1zMGvTBw0WsCUddAWi-284" style="edgeStyle=orthogonalEdgeStyle;rounded=0;orthogonalLoop=1;jettySize=auto;html=1;elbow=vertical;labelBackgroundColor=none;strokeColor=#A8201A;fontColor=default;" edge="1" parent="1" source="UO1zMGvTBw0WsCUddAWi-285" target="UO1zMGvTBw0WsCUddAWi-283">
          <mxGeometry relative="1" as="geometry" />
        </mxCell>
        <mxCell id="UO1zMGvTBw0WsCUddAWi-285" value="给出提示" style="html=1;rounded=1;labelBackgroundColor=none;fillColor=#FAE5C7;strokeColor=#0F8B8D;fontColor=#143642;" vertex="1" parent="1">
          <mxGeometry x="1080" y="205" width="110" height="40" as="geometry" />
        </mxCell>
        <mxCell id="UO1zMGvTBw0WsCUddAWi-286" value="«datastore»&lt;br style=&quot;border-color: var(--border-color);&quot;&gt;&lt;br style=&quot;border-color: var(--border-color);&quot;&gt;&lt;b style=&quot;border-color: var(--border-color);&quot;&gt;用户数据&lt;/b&gt;" style="html=1;align=center;verticalAlign=middle;dashed=0;rounded=1;labelBackgroundColor=none;fillColor=#FAE5C7;strokeColor=#0F8B8D;fontColor=#143642;" vertex="1" parent="1">
          <mxGeometry x="1385" y="265" width="120" height="50" as="geometry" />
        </mxCell>
        <mxCell id="UO1zMGvTBw0WsCUddAWi-287" style="edgeStyle=orthogonalEdgeStyle;rounded=0;orthogonalLoop=1;jettySize=auto;html=1;elbow=vertical;labelBackgroundColor=none;strokeColor=#A8201A;fontColor=default;" edge="1" parent="1" source="UO1zMGvTBw0WsCUddAWi-288" target="UO1zMGvTBw0WsCUddAWi-286">
          <mxGeometry relative="1" as="geometry" />
        </mxCell>
        <mxCell id="UO1zMGvTBw0WsCUddAWi-288" value="删除读者" style="html=1;rounded=1;labelBackgroundColor=none;fillColor=#FAE5C7;strokeColor=#0F8B8D;fontColor=#143642;" vertex="1" parent="1">
          <mxGeometry x="1220" y="270" width="110" height="40" as="geometry" />
        </mxCell>
        <mxCell id="UO1zMGvTBw0WsCUddAWi-290" value="" style="edgeStyle=none;rounded=0;orthogonalLoop=1;jettySize=auto;html=1;elbow=vertical;labelBackgroundColor=none;strokeColor=#A8201A;fontColor=default;" edge="1" parent="1" source="UO1zMGvTBw0WsCUddAWi-291" target="UO1zMGvTBw0WsCUddAWi-299">
          <mxGeometry relative="1" as="geometry">
            <mxPoint x="1120" y="370" as="targetPoint" />
          </mxGeometry>
        </mxCell>
        <mxCell id="UO1zMGvTBw0WsCUddAWi-291" value="查询读者" style="html=1;rounded=1;labelBackgroundColor=none;fillColor=#FAE5C7;strokeColor=#0F8B8D;fontColor=#143642;" vertex="1" parent="1">
          <mxGeometry x="930" y="350" width="110" height="40" as="geometry" />
        </mxCell>
        <mxCell id="UO1zMGvTBw0WsCUddAWi-292" style="edgeStyle=none;rounded=0;orthogonalLoop=1;jettySize=auto;html=1;elbow=vertical;labelBackgroundColor=none;strokeColor=#A8201A;fontColor=default;" edge="1" parent="1" source="UO1zMGvTBw0WsCUddAWi-299" target="UO1zMGvTBw0WsCUddAWi-296">
          <mxGeometry relative="1" as="geometry" />
        </mxCell>
        <mxCell id="UO1zMGvTBw0WsCUddAWi-296" value="" style="ellipse;html=1;shape=endState;fillColor=#FAE5C7;rounded=0;labelBackgroundColor=none;strokeColor=#0F8B8D;fontColor=#143642;" vertex="1" parent="1">
          <mxGeometry x="1560" y="355" width="30" height="30" as="geometry" />
        </mxCell>
        <mxCell id="UO1zMGvTBw0WsCUddAWi-299" value="«datastore»&lt;br style=&quot;border-color: var(--border-color);&quot;&gt;&lt;br style=&quot;border-color: var(--border-color);&quot;&gt;&lt;b style=&quot;border-color: var(--border-color);&quot;&gt;用户数据&lt;/b&gt;" style="html=1;align=center;verticalAlign=middle;dashed=0;rounded=1;labelBackgroundColor=none;fillColor=#FAE5C7;strokeColor=#0F8B8D;fontColor=#143642;" vertex="1" parent="1">
          <mxGeometry x="1385" y="345" width="120" height="50" as="geometry" />
        </mxCell>
        <mxCell id="UO1zMGvTBw0WsCUddAWi-303" value="" style="edgeStyle=none;rounded=0;orthogonalLoop=1;jettySize=auto;html=1;elbow=vertical;labelBackgroundColor=none;strokeColor=#A8201A;fontColor=default;" edge="1" parent="1" source="UO1zMGvTBw0WsCUddAWi-304" target="UO1zMGvTBw0WsCUddAWi-308">
          <mxGeometry relative="1" as="geometry">
            <mxPoint x="1130" y="450" as="targetPoint" />
          </mxGeometry>
        </mxCell>
        <mxCell id="UO1zMGvTBw0WsCUddAWi-304" value="读者类别调整" style="html=1;rounded=1;labelBackgroundColor=none;fillColor=#FAE5C7;strokeColor=#0F8B8D;fontColor=#143642;" vertex="1" parent="1">
          <mxGeometry x="930" y="495" width="110" height="40" as="geometry" />
        </mxCell>
        <mxCell id="UO1zMGvTBw0WsCUddAWi-305" style="edgeStyle=none;rounded=0;orthogonalLoop=1;jettySize=auto;html=1;elbow=vertical;labelBackgroundColor=none;strokeColor=#A8201A;fontColor=default;" edge="1" parent="1" source="UO1zMGvTBw0WsCUddAWi-307" target="UO1zMGvTBw0WsCUddAWi-323">
          <mxGeometry relative="1" as="geometry">
            <mxPoint x="1650" y="515" as="targetPoint" />
          </mxGeometry>
        </mxCell>
        <mxCell id="UO1zMGvTBw0WsCUddAWi-306" value="" style="ellipse;html=1;shape=endState;fillColor=#FAE5C7;rounded=0;labelBackgroundColor=none;strokeColor=#0F8B8D;fontColor=#143642;" vertex="1" parent="1">
          <mxGeometry x="1720" y="497.5" width="30" height="30" as="geometry" />
        </mxCell>
        <mxCell id="UO1zMGvTBw0WsCUddAWi-307" value="«datastore»&lt;br style=&quot;border-color: var(--border-color);&quot;&gt;&lt;b style=&quot;border-color: var(--border-color);&quot;&gt;读者类别数据&lt;br&gt;（持久化缓存）&lt;br&gt;&lt;/b&gt;" style="html=1;align=center;verticalAlign=middle;dashed=0;rounded=1;labelBackgroundColor=none;fillColor=#FAE5C7;strokeColor=#0F8B8D;fontColor=#143642;" vertex="1" parent="1">
          <mxGeometry x="1470" y="490" width="120" height="50" as="geometry" />
        </mxCell>
        <mxCell id="UO1zMGvTBw0WsCUddAWi-310" style="edgeStyle=orthogonalEdgeStyle;rounded=0;orthogonalLoop=1;jettySize=auto;html=1;strokeColor=#A8201A;fontColor=#143642;fillColor=#FAE5C7;" edge="1" parent="1" source="UO1zMGvTBw0WsCUddAWi-308" target="UO1zMGvTBw0WsCUddAWi-312">
          <mxGeometry relative="1" as="geometry">
            <mxPoint x="1220" y="450" as="targetPoint" />
          </mxGeometry>
        </mxCell>
        <mxCell id="UO1zMGvTBw0WsCUddAWi-308" value="&#xa;移除的读者类别无读者挂载" style="rhombus;rounded=0;labelBackgroundColor=none;fillColor=#FAE5C7;strokeColor=#0F8B8D;fontColor=#143642;" vertex="1" parent="1">
          <mxGeometry x="1120" y="500" width="30" height="30" as="geometry" />
        </mxCell>
        <mxCell id="UO1zMGvTBw0WsCUddAWi-318" style="edgeStyle=orthogonalEdgeStyle;rounded=0;orthogonalLoop=1;jettySize=auto;html=1;strokeColor=#A8201A;fontColor=#143642;fillColor=#FAE5C7;" edge="1" parent="1" source="UO1zMGvTBw0WsCUddAWi-311" target="UO1zMGvTBw0WsCUddAWi-307">
          <mxGeometry relative="1" as="geometry" />
        </mxCell>
        <mxCell id="UO1zMGvTBw0WsCUddAWi-311" value="删除不需要的&lt;br&gt;读者类别" style="html=1;rounded=1;labelBackgroundColor=none;fillColor=#FAE5C7;strokeColor=#0F8B8D;fontColor=#143642;" vertex="1" parent="1">
          <mxGeometry x="1320" y="425" width="110" height="40" as="geometry" />
        </mxCell>
        <mxCell id="UO1zMGvTBw0WsCUddAWi-313" style="edgeStyle=orthogonalEdgeStyle;rounded=0;orthogonalLoop=1;jettySize=auto;html=1;strokeColor=#A8201A;fontColor=#143642;fillColor=#FAE5C7;" edge="1" parent="1" source="UO1zMGvTBw0WsCUddAWi-312" target="UO1zMGvTBw0WsCUddAWi-311">
          <mxGeometry relative="1" as="geometry" />
        </mxCell>
        <mxCell id="UO1zMGvTBw0WsCUddAWi-316" style="edgeStyle=orthogonalEdgeStyle;rounded=0;orthogonalLoop=1;jettySize=auto;html=1;strokeColor=#A8201A;fontColor=#143642;fillColor=#FAE5C7;" edge="1" parent="1" source="UO1zMGvTBw0WsCUddAWi-312" target="UO1zMGvTBw0WsCUddAWi-314">
          <mxGeometry relative="1" as="geometry" />
        </mxCell>
        <mxCell id="UO1zMGvTBw0WsCUddAWi-317" style="edgeStyle=orthogonalEdgeStyle;rounded=0;orthogonalLoop=1;jettySize=auto;html=1;strokeColor=#A8201A;fontColor=#143642;fillColor=#FAE5C7;" edge="1" parent="1" source="UO1zMGvTBw0WsCUddAWi-312" target="UO1zMGvTBw0WsCUddAWi-315">
          <mxGeometry relative="1" as="geometry" />
        </mxCell>
        <mxCell id="UO1zMGvTBw0WsCUddAWi-312" value="" style="html=1;points=[];perimeter=orthogonalPerimeter;fillColor=#FAE5C7;rounded=1;direction=west;labelBackgroundColor=none;strokeColor=#0F8B8D;fontColor=#143642;" vertex="1" parent="1">
          <mxGeometry x="1270" y="427.5" width="10" height="175" as="geometry" />
        </mxCell>
        <mxCell id="UO1zMGvTBw0WsCUddAWi-319" style="edgeStyle=orthogonalEdgeStyle;rounded=0;orthogonalLoop=1;jettySize=auto;html=1;strokeColor=#A8201A;fontColor=#143642;fillColor=#FAE5C7;" edge="1" parent="1" source="UO1zMGvTBw0WsCUddAWi-314" target="UO1zMGvTBw0WsCUddAWi-307">
          <mxGeometry relative="1" as="geometry" />
        </mxCell>
        <mxCell id="UO1zMGvTBw0WsCUddAWi-314" value="新增新的读者类别" style="html=1;rounded=1;labelBackgroundColor=none;fillColor=#FAE5C7;strokeColor=#0F8B8D;fontColor=#143642;" vertex="1" parent="1">
          <mxGeometry x="1320" y="495" width="110" height="40" as="geometry" />
        </mxCell>
        <mxCell id="UO1zMGvTBw0WsCUddAWi-320" style="edgeStyle=orthogonalEdgeStyle;rounded=0;orthogonalLoop=1;jettySize=auto;html=1;strokeColor=#A8201A;fontColor=#143642;fillColor=#FAE5C7;" edge="1" parent="1" source="UO1zMGvTBw0WsCUddAWi-315" target="UO1zMGvTBw0WsCUddAWi-307">
          <mxGeometry relative="1" as="geometry" />
        </mxCell>
        <mxCell id="UO1zMGvTBw0WsCUddAWi-315" value="更新现存的读者类别" style="html=1;rounded=1;labelBackgroundColor=none;fillColor=#FAE5C7;strokeColor=#0F8B8D;fontColor=#143642;" vertex="1" parent="1">
          <mxGeometry x="1320" y="565" width="110" height="40" as="geometry" />
        </mxCell>
        <mxCell id="UO1zMGvTBw0WsCUddAWi-325" style="edgeStyle=orthogonalEdgeStyle;rounded=0;orthogonalLoop=1;jettySize=auto;html=1;strokeColor=#A8201A;fontColor=#143642;fillColor=#FAE5C7;" edge="1" parent="1" source="UO1zMGvTBw0WsCUddAWi-323" target="UO1zMGvTBw0WsCUddAWi-306">
          <mxGeometry relative="1" as="geometry" />
        </mxCell>
        <mxCell id="UO1zMGvTBw0WsCUddAWi-323" value="" style="html=1;points=[];perimeter=orthogonalPerimeter;fillColor=#FAE5C7;rounded=1;direction=west;labelBackgroundColor=none;strokeColor=#0F8B8D;fontColor=#143642;" vertex="1" parent="1">
          <mxGeometry x="1645" y="425" width="10" height="175" as="geometry" />
        </mxCell>
      </root>
    </mxGraphModel>
  </diagram>
</mxfile>
